<?xml version="1.0" encoding="UTF-8"?>
<svg version="1.1" xmlns="http://www.w3.org/2000/svg" width="375" height="475">
<path d="M0 0 C1.89213599 -0.00543085 3.78426774 -0.01255888 5.6763916 -0.02124023 C10.77974464 -0.03936198 15.88277156 -0.0324524 20.98612976 -0.01972389 C26.34785792 -0.00953812 31.70955971 -0.01900497 37.07128906 -0.02526855 C46.07231618 -0.03252879 55.07321166 -0.02299996 64.07421875 -0.00390625 C74.45408301 0.01785929 84.83363289 0.01080678 95.21348953 -0.01121187 C104.15403544 -0.02941223 113.09448716 -0.03190158 122.03504562 -0.0214572 C127.36232398 -0.01524771 132.68945497 -0.01431618 138.01672363 -0.02760315 C143.02710048 -0.03922872 148.03707527 -0.0310143 153.04740906 -0.00802612 C154.877043 -0.00277466 156.70671127 -0.00419106 158.53633118 -0.01307678 C173.98387126 -0.08113481 187.05451719 1.5374994 198.921875 12.51757812 C211.15174035 25.73571543 211.5031348 40.24758046 211.3125 57.25585938 C211.30502401 59.2326754 211.29933751 61.20949893 211.29534912 63.18632507 C211.28019963 68.34684317 211.24101196 73.50689882 211.1965332 78.66723633 C211.15534787 83.94996895 211.13728879 89.23277753 211.1171875 94.515625 C211.0745057 104.84981067 211.00638647 115.18365569 210.921875 125.51757812 C211.911875 125.84757812 212.901875 126.17757812 213.921875 126.51757812 C213.921875 145.65757812 213.921875 164.79757813 213.921875 184.51757812 C212.931875 184.84757813 211.941875 185.17757812 210.921875 185.51757812 C210.92358374 186.33214527 210.92358374 186.33214527 210.925327 187.16316831 C210.99240502 219.32086408 211.04390619 251.47854138 211.07507099 283.63629093 C211.07882328 287.49418105 211.08270623 291.35207103 211.08666992 295.20996094 C211.08745685 295.97802431 211.08824378 296.74608769 211.08905456 297.53742571 C211.10212223 309.98739327 211.12578353 322.43731942 211.15333339 334.88726239 C211.18134979 347.65414956 211.19804326 360.421015 211.20414048 373.18793166 C211.20826477 381.07109659 211.22130882 388.95414455 211.2456244 396.83727349 C211.26329941 402.87360378 211.26525019 408.90983261 211.26119804 414.94619179 C211.26202706 417.42869731 211.26804282 419.91120704 211.27949142 422.39368629 C211.29430284 425.76940925 211.29087017 429.14462174 211.28263855 432.52035522 C211.29137707 433.51450325 211.3001156 434.50865128 211.30911893 435.53292501 C211.30314578 436.43213977 211.29717264 437.33135453 211.29101849 438.25781822 C211.29272723 439.42773656 211.29272723 439.42773656 211.29447049 440.62128961 C211.11003572 441.55995243 211.11003572 441.55995243 210.921875 442.51757812 C207.78372439 444.60967853 207.08783415 444.76745724 203.51900578 444.76646709 C202.61329997 444.77106589 201.70759417 444.77566469 200.77444273 444.78040284 C199.28000982 444.77268749 199.28000982 444.77268749 197.75538635 444.76481628 C196.69800528 444.7672307 195.64062421 444.76964512 194.55120128 444.77213269 C190.99053389 444.77779069 187.43004424 444.76909062 183.86938477 444.76049805 C181.32374014 444.76157041 178.77809576 444.76350842 176.23245239 444.76625061 C170.0251273 444.77060441 163.81786872 444.76564552 157.61055083 444.75640031 C150.38482022 444.74602456 143.15910116 444.74608629 135.9333645 444.74657289 C123.04174673 444.74707375 110.15015375 444.73790574 97.25854492 444.72338867 C84.74421741 444.70930371 72.22991172 444.70221776 59.71557617 444.70288086 C58.9449941 444.70292082 58.17441203 444.70296077 57.38047899 444.70300194 C56.61124052 444.70304229 55.84200205 444.70308265 55.04945332 444.70312423 C40.81119402 444.70381395 26.57294401 444.69792428 12.33468773 444.68897101 C7.29607267 444.68595324 2.25745932 444.68489127 -2.78115654 444.68443871 C-9.56164878 444.68368564 -16.34211483 444.67734504 -23.12260056 444.66727257 C-25.61554765 444.66434551 -28.1084974 444.66312261 -30.60144615 444.6637001 C-33.99587302 444.66418896 -37.39023487 444.6585531 -40.78465271 444.65129089 C-42.27573954 444.6536138 -42.27573954 444.6536138 -43.79694933 444.65598363 C-44.70526288 444.65275918 -45.61357643 444.64953473 -46.54941463 444.64621258 C-47.33305006 444.64550815 -48.11668548 444.64480373 -48.92406744 444.64407796 C-51.09133279 444.51680248 -52.99527311 444.11437896 -55.078125 443.51757812 C-55.08235694 442.26098924 -55.08658888 441.00440035 -55.09094906 439.70973301 C-55.19152397 409.91185716 -55.2972138 380.11400428 -55.40924194 350.3161695 C-55.42301228 346.65226744 -55.43673926 342.98836522 -55.45043945 339.32446289 C-55.45316776 338.5950152 -55.45589606 337.8655675 -55.45870704 337.11401533 C-55.50283774 325.28742283 -55.54345214 313.46082071 -55.58277761 301.63421137 C-55.62317709 289.50802871 -55.6673308 277.38186395 -55.71500355 265.25570768 C-55.74432445 257.76721475 -55.77068192 250.27872323 -55.79330397 242.79020702 C-55.8109343 237.05766493 -55.83377615 231.32515297 -55.85861588 225.59263802 C-55.86800748 223.23389303 -55.87567509 220.8751405 -55.88154411 218.51638412 C-55.88976961 215.31122341 -55.90403597 212.10614682 -55.91990662 208.90101624 C-55.92088472 207.95453769 -55.92186283 207.00805915 -55.92287058 206.03289944 C-55.53447153 201.95176299 -55.53447153 201.95176299 -57.078125 198.51757812 C-57.17915755 195.71764215 -57.21782588 192.94289169 -57.2109375 190.14257812 C-57.21189423 189.30291504 -57.21285095 188.46325195 -57.21383667 187.59814453 C-57.21451848 185.81933518 -57.21266417 184.04052335 -57.20849609 182.26171875 C-57.20314783 179.52924036 -57.20844105 176.79692636 -57.21484375 174.06445312 C-57.21418297 172.34049443 -57.21290181 170.61653583 -57.2109375 168.89257812 C-57.21296173 168.06967285 -57.21498596 167.24676758 -57.21707153 166.39892578 C-57.19307554 160.63252867 -57.19307554 160.63252867 -56.078125 159.51757812 C-55.91758685 157.64435865 -55.91758685 157.64435865 -55.953125 155.51757812 C-55.94925781 154.43476563 -55.94925781 154.43476563 -55.9453125 153.33007812 C-55.88117224 151.49668398 -55.88117224 151.49668398 -57.078125 150.51757812 C-57.17915755 147.71764215 -57.21782588 144.94289169 -57.2109375 142.14257812 C-57.21189423 141.30291504 -57.21285095 140.46325195 -57.21383667 139.59814453 C-57.21451848 137.81933518 -57.21266417 136.04052335 -57.20849609 134.26171875 C-57.20314783 131.52924036 -57.20844105 128.79692636 -57.21484375 126.06445312 C-57.21418297 124.34049443 -57.21290181 122.61653583 -57.2109375 120.89257812 C-57.21296173 120.06967285 -57.21498596 119.24676758 -57.21707153 118.39892578 C-57.19307554 112.63252867 -57.19307554 112.63252867 -56.078125 111.51757812 C-55.97825525 108.67422765 -55.93934619 105.86060649 -55.953125 103.01757812 C-55.94925781 102.21964844 -55.94539063 101.42171875 -55.94140625 100.59960938 C-55.5691289 96.74918493 -55.5691289 96.74918493 -57.078125 93.51757812 C-57.17672631 92.11409077 -57.20891437 90.70577335 -57.2109375 89.29882812 C-57.21222656 88.44933594 -57.21351562 87.59984375 -57.21484375 86.72460938 C-57.21097656 85.83128906 -57.20710938 84.93796875 -57.203125 84.01757812 C-57.20699219 83.12425781 -57.21085937 82.2309375 -57.21484375 81.31054688 C-57.21355469 80.46105469 -57.21226563 79.6115625 -57.2109375 78.73632812 C-57.20980957 77.95193359 -57.20868164 77.16753906 -57.20751953 76.359375 C-57.078125 74.51757812 -57.078125 74.51757812 -56.078125 73.51757812 C-55.96712811 70.93236318 -55.91645173 68.36944943 -55.90234375 65.78320312 C-55.87910081 64.15949288 -55.85498183 62.53579499 -55.83007812 60.91210938 C-55.79530679 58.35848276 -55.76582629 55.80529667 -55.75219727 53.25146484 C-55.65325498 37.74035869 -54.07652515 24.40473789 -43.078125 12.51757812 C-30.37805279 0.76704403 -16.38662266 -0.07958323 0 0 Z " fill="#F5F6F8" transform="translate(109.078125,14.482421875)"/>
<path d="M0 0 C0.70719885 -0.00779995 1.41439771 -0.01559991 2.14302683 -0.02363622 C4.50713978 -0.04354265 6.86964045 -0.02779882 9.23376465 -0.01205444 C10.93081094 -0.01883123 12.62784987 -0.02773471 14.32487488 -0.03860474 C18.93032297 -0.06139754 23.53521099 -0.05256192 28.14066887 -0.03670931 C32.96033106 -0.02405019 37.7799453 -0.03579045 42.59960938 -0.04364014 C50.69340627 -0.05273667 58.78697504 -0.0407487 66.8807373 -0.01693726 C76.23820543 0.01027404 85.59512886 0.00145988 94.95258379 -0.02606928 C102.98671395 -0.04875925 111.02068013 -0.05196099 119.05483198 -0.03887594 C123.85328061 -0.03108081 128.65147321 -0.03004153 133.4499054 -0.04655838 C137.96123056 -0.06100228 142.4718535 -0.05098318 146.9831028 -0.0220871 C148.63870388 -0.01547581 150.29436407 -0.01737476 151.94994164 -0.02840042 C154.21050803 -0.04206713 156.46882502 -0.02493103 158.72924805 0 C159.99390648 0.00188513 161.25856491 0.00377026 162.56154633 0.00571251 C166.77903902 0.8091058 168.26350667 2.27793317 170.86462402 5.63491821 C171.3638936 8.63279651 171.5681083 11.05044753 171.52868652 14.04116821 C171.53347015 14.84348877 171.53825378 15.64580933 171.54318237 16.47244263 C171.54657469 18.16350269 171.53741885 19.85462892 171.51647949 21.54556274 C171.48969969 24.12762265 171.51624499 26.70533655 171.54821777 29.28726196 C171.54491355 30.93440693 171.53850705 32.58154921 171.52868652 34.22866821 C171.53880768 34.99650635 171.54892883 35.76434448 171.55935669 36.55545044 C171.47745989 40.31883085 171.09657038 42.33561634 168.77014923 45.33761311 C165.14896445 48.20076716 163.30754658 48.26503907 158.72924805 48.27656555 C158.02204919 48.28507107 157.31485034 48.29357659 156.58622122 48.30233985 C154.2221314 48.3245833 151.85961963 48.3111823 149.4954834 48.29776001 C147.7984352 48.30617432 146.10139635 48.31669994 144.40437317 48.32917786 C139.79894286 48.3562421 135.19405391 48.35152126 130.58857918 48.3394773 C126.74396073 48.33234879 122.89944258 48.34084324 119.05483198 48.3493827 C109.98596647 48.3693391 100.91736454 48.36376043 91.84851074 48.34170532 C82.49097699 48.31933492 73.13413287 48.33694737 63.77666426 48.37475461 C55.74252802 48.40597576 47.70860541 48.41390855 39.67441607 48.40280086 C34.87591023 48.39630957 30.07780251 48.39833622 25.27934265 48.42212486 C20.76793148 48.44335161 16.25749479 48.43543283 11.74614525 48.4050312 C10.09053926 48.39869516 8.43485787 48.40258557 6.77930641 48.41744232 C4.51841727 48.43608703 2.26072874 48.41775671 0 48.39009094 C-1.26465843 48.38912761 -2.52931686 48.38816427 -3.83229828 48.38717175 C-8.50438959 47.32313465 -9.53281162 45.60741189 -12.13537598 41.63491821 C-12.62610018 38.6718699 -12.83974469 36.29991635 -12.79943848 33.34976196 C-12.80422211 32.5710524 -12.80900574 31.79234283 -12.81393433 30.99003601 C-12.81732133 29.3520301 -12.80820296 27.71395548 -12.78723145 26.07608032 C-12.76040663 23.5752764 -12.78703273 21.07894452 -12.81896973 18.57827759 C-12.81566612 16.98126253 -12.80926088 15.38425024 -12.79943848 13.78726196 C-12.80955963 13.04443466 -12.81968079 12.30160736 -12.83010864 11.53627014 C-12.74672275 7.82746291 -12.33558071 5.89265792 -10.04090118 2.93853188 C-6.4185616 0.06659983 -4.58403151 0.00683306 0 0 Z " fill="#7560FE" transform="translate(125.1353759765625,382.3650817871094)"/>
<path d="M0 0 C0.70719885 -0.00709439 1.41439771 -0.01418877 2.14302683 -0.02149814 C4.50716291 -0.0390675 6.86965246 -0.02098087 9.23376465 -0.00291443 C10.930809 -0.0080537 12.62784802 -0.01533505 14.32487488 -0.02459717 C18.93034042 -0.04311849 23.53522737 -0.0301681 28.14066887 -0.01050687 C32.96032259 0.00587495 37.77993954 -0.00293261 42.59960938 -0.00802612 C50.69341274 -0.0125476 58.78698503 0.00332613 66.8807373 0.03126526 C76.23814852 0.06331741 85.59514298 0.06330161 94.95258379 0.04605049 C103.95425676 0.03018655 112.95577695 0.03691811 121.95744324 0.0539875 C125.78830533 0.06085999 129.61904502 0.05982352 133.4499054 0.05244255 C137.96115624 0.04478122 142.47193283 0.05690072 146.9831028 0.08429146 C148.63870142 0.091178 150.29434432 0.09127036 151.94994164 0.08407593 C154.21023962 0.07538559 156.46907255 0.0913278 158.72924805 0.11352539 C159.99390648 0.11633231 161.25856491 0.11913923 162.56154633 0.12203121 C166.47915651 0.72235898 168.15121645 1.77213941 170.86462402 4.62818909 C171.36084939 7.59344762 171.54431627 9.97578373 171.49353027 12.93678284 C171.49594223 13.74051834 171.49835419 14.54425385 171.50083923 15.37234497 C171.49986132 17.06941163 171.48648073 18.76651039 171.46154785 20.46339417 C171.42727944 23.05394039 171.44087828 25.64106616 171.46032715 28.23170471 C171.45342705 29.88341188 171.44375318 31.53511026 171.43103027 33.18678284 C171.43599014 33.95775803 171.44095001 34.72873322 171.44606018 35.52307129 C171.3708059 38.98005445 171.03851866 41.33239674 169.27489471 44.33229637 C166.03095235 47.42229936 164.20555059 47.25657847 159.7668457 47.2631073 C159.0516286 47.27090725 158.3364115 47.27870721 157.59952116 47.28674352 C155.20233912 47.3066916 152.80673977 47.29088969 150.4095459 47.27516174 C148.69132052 47.28193668 146.9731024 47.29083911 145.25489807 47.30171204 C140.58747912 47.3245269 135.9206121 47.31566011 131.25318336 47.29981661 C126.37165449 47.28716891 121.49017328 47.29889457 116.60864258 47.30674744 C108.41051741 47.3158473 100.21261737 47.30384726 92.01452637 47.28004456 C82.5326615 47.25283263 73.05133416 47.26164655 63.56948233 47.28917658 C55.43262931 47.31185706 47.29593823 47.31507294 39.15906382 47.30198324 C34.29747613 47.29418288 29.43614121 47.29316316 24.5745697 47.30966568 C20.00416811 47.32409578 15.43446036 47.31411576 10.86413383 47.2851944 C9.18553762 47.27857572 7.50688314 47.28049463 5.82831001 47.29150772 C3.53888254 47.3051452 1.25168699 47.28807358 -1.03759766 47.2631073 C-2.31922539 47.26122217 -3.60085312 47.25933704 -4.92131805 47.25739479 C-8.13537598 46.62818909 -8.13537598 46.62818909 -10.54564667 44.32556725 C-12.66803604 40.72439646 -12.72882365 37.50771951 -12.70178223 33.44068909 C-12.7079808 32.66056458 -12.71417938 31.88044006 -12.7205658 31.07667542 C-12.72764718 29.43272648 -12.72451928 27.78870557 -12.71179199 26.14479065 C-12.69791533 23.63530641 -12.732027 21.12954675 -12.7701416 18.62037659 C-12.77109282 17.01881318 -12.76923385 15.41724512 -12.76428223 13.81568909 C-12.77754044 13.06972473 -12.79079865 12.32376038 -12.80445862 11.55519104 C-12.73822577 7.83359171 -12.34342518 5.89629486 -10.04189301 2.93039036 C-6.4176822 0.05971641 -4.58467311 0.0021255 0 0 Z " fill="#FE8E5E" transform="translate(125.1353759765625,329.37181091308594)"/>
<path d="M0 0 C0.33 0 0.66 0 1 0 C1 126.72 1 253.44 1 384 C9.88196601 384.74535599 9.88196601 384.74535599 13 383 C13.08687496 386.12482562 13.14034568 389.24934246 13.1875 392.375 C13.21263672 393.26445312 13.23777344 394.15390625 13.26367188 395.0703125 C13.27817383 396.34648438 13.27817383 396.34648438 13.29296875 397.6484375 C13.31653442 398.82672119 13.31653442 398.82672119 13.34057617 400.02880859 C13.22818604 400.67930176 13.1157959 401.32979492 13 402 C9.6774775 404.215015 9.12268409 404.19410876 5.375 403.6875 C4.18003906 403.53861328 4.18003906 403.53861328 2.9609375 403.38671875 C1 403 1 403 0 402 C-0.09799902 399.86811345 -0.12371164 397.73290687 -0.12304783 395.59876919 C-0.1247786 394.57894909 -0.1247786 394.57894909 -0.12654433 393.53852656 C-0.12921756 391.23175083 -0.12468307 388.92504316 -0.12025452 386.61827087 C-0.12069007 384.9592379 -0.1215647 383.300205 -0.12284368 381.64117247 C-0.12509168 377.05999045 -0.12106322 372.47883157 -0.11606562 367.89765251 C-0.11176565 362.96579033 -0.11320722 358.03392956 -0.1139679 353.10206604 C-0.11449342 344.54987717 -0.11134366 335.99769591 -0.10573006 327.44550896 C-0.09761889 315.08033039 -0.09500023 302.71515552 -0.09374207 290.34997458 C-0.09155094 270.29052459 -0.08488922 250.23107865 -0.07543945 230.17163086 C-0.0662669 210.68042013 -0.0591853 191.1892105 -0.05493164 171.69799805 C-0.05466892 170.49748855 -0.05440619 169.29697905 -0.05413551 168.06009047 C-0.05283052 162.03776447 -0.0515668 156.01543846 -0.05032361 149.99311244 C-0.03994911 99.99540549 -0.02232916 49.99770294 0 0 Z " fill="#EDF0F5" transform="translate(307,55)"/>
<path d="M0 0 C1.25103516 0.0009668 1.25103516 0.0009668 2.52734375 0.00195312 C3.39488281 0.01806641 4.26242188 0.03417969 5.15625 0.05078125 C6.45755859 0.04594727 6.45755859 0.04594727 7.78515625 0.04101562 C14.25535409 0.09601731 14.25535409 0.09601731 17.65625 2.36328125 C18.02856445 4.48632812 18.02856445 4.48632812 18.01953125 7.08203125 C18.01888672 8.01402344 18.01824219 8.94601562 18.01757812 9.90625 C18.00146484 10.88207031 17.98535156 11.85789062 17.96875 12.86328125 C17.97358398 14.32701172 17.97358398 14.32701172 17.97851562 15.8203125 C17.92316529 23.09636596 17.92316529 23.09636596 15.65625 25.36328125 C13.53320312 25.62207031 13.53320312 25.62207031 10.9375 25.62890625 C10.00550781 25.63148438 9.07351562 25.6340625 8.11328125 25.63671875 C7.13746094 25.62898438 6.16164063 25.62125 5.15625 25.61328125 C4.18042969 25.62101562 3.20460938 25.62875 2.19921875 25.63671875 C1.26722656 25.63414062 0.33523437 25.6315625 -0.625 25.62890625 C-1.48158203 25.62665039 -2.33816406 25.62439453 -3.22070312 25.62207031 C-5.34375 25.36328125 -5.34375 25.36328125 -7.34375 23.36328125 C-7.79244661 20.07084521 -7.66783242 16.74530382 -7.65625 13.42578125 C-7.67236328 12.50603516 -7.68847656 11.58628906 -7.70507812 10.63867188 C-7.70572266 9.75501953 -7.70636719 8.87136719 -7.70703125 7.9609375 C-7.71001221 7.15148682 -7.71299316 6.34203613 -7.71606445 5.50805664 C-6.9283489 0.97029854 -4.28274221 -0.01677196 0 0 Z " fill="#E6E9FF" transform="translate(88.34375,302.63671875)"/>
<path d="M0 0 C3.68137204 1.56654129 6.19896612 3.39793224 8 7 C8.59395701 11.33669978 8.47153454 14.89189383 6.75 18.9375 C4.82364453 21.20784752 3.86911204 22.20302443 1 23 C-5.44444444 22.55555556 -5.44444444 22.55555556 -8 20 C-8.67784992 17.66989091 -9.34416793 15.33640176 -10 13 C-10.66 12.01 -11.32 11.02 -12 10 C-12 8.68 -12 7.36 -12 6 C-12.99 6 -13.98 6 -15 6 C-11.97630374 -0.9777606 -6.80180489 -0.70738771 0 0 Z " fill="#D1E4EF" transform="translate(140,394)"/>
<path d="M0 0 C0.66 0.66 1.32 1.32 2 2 C2.66 1.34 3.32 0.68 4 0 C4.33 0.66 4.66 1.32 5 2 C5.99 1.67 6.98 1.34 8 1 C8.99 1.66 9.98 2.32 11 3 C13.55936559 2.67147918 13.55936559 2.67147918 16 2 C16.66 2 17.32 2 18 2 C18 4.64 18 7.28 18 10 C15.42786866 11.61949011 14.32330841 12.04408751 11.25 11.625 C10.13625 11.315625 10.13625 11.315625 9 11 C9.33 11.99 9.66 12.98 10 14 C7.03 14 4.06 14 1 14 C1 13.01 1 12.02 1 11 C-1.97 11 -4.94 11 -8 11 C-8.33 8.69 -8.66 6.38 -9 4 C-2.25 0 -2.25 0 0 0 Z " fill="#DFE2FF" transform="translate(89,444)"/>
<path d="M0 0 C0 0.66 0 1.32 0 2 C1.65 2 3.3 2 5 2 C5.33 7.61 5.66 13.22 6 19 C1.05 19 -3.9 19 -9 19 C-9 13.06 -9 7.12 -9 1 C-2 0 -2 0 0 0 Z " fill="#DEE5EE" transform="translate(63,438)"/>
<path d="M0 0 C0.33 0 0.66 0 1 0 C1.08687496 3.12482562 1.14034568 6.24934246 1.1875 9.375 C1.22520508 10.70917969 1.22520508 10.70917969 1.26367188 12.0703125 C1.27817383 13.34648437 1.27817383 13.34648437 1.29296875 14.6484375 C1.31653442 15.82672119 1.31653442 15.82672119 1.34057617 17.02880859 C1.22818604 17.67930176 1.1157959 18.32979492 1 19 C-2.35327639 21.23551759 -2.90743657 21.17283528 -6.6875 20.625 C-7.49574219 20.51414062 -8.30398438 20.40328125 -9.13671875 20.2890625 C-9.75160156 20.19367188 -10.36648438 20.09828125 -11 20 C-12.09587955 15.75448144 -11.92865836 12.0407161 -11.5625 7.6875 C-11.46066406 6.43324219 -11.35882813 5.17898438 -11.25390625 3.88671875 C-11.17011719 2.93410156 -11.08632813 1.98148437 -11 1 C-10.28972656 1.01160156 -9.57945312 1.02320313 -8.84765625 1.03515625 C-7.92855469 1.04417969 -7.00945312 1.05320312 -6.0625 1.0625 C-4.68771484 1.07990234 -4.68771484 1.07990234 -3.28515625 1.09765625 C-1.03406673 1.25949049 -1.03406673 1.25949049 0 0 Z " fill="#CDD6E5" transform="translate(319,438)"/>
<path d="M0 0 C1.9375 1.5 1.9375 1.5 3 3 C1 6 1 6 -1.4375 6.875 C-4.69011725 8.30297831 -5.32058645 9.94652082 -7 13 C-7.99 13.66 -8.98 14.32 -10 15 C-10 15.99 -10 16.98 -10 18 C-9.34 18.33 -8.68 18.66 -8 19 C-8 19.66 -8 20.32 -8 21 C-10.875 20.6875 -10.875 20.6875 -14 20 C-16.68642419 15.97036372 -16.80001403 12.73543661 -16 8 C-14.33161883 4.84935189 -11.99958264 2.73302727 -9.125 0.625 C-5.96248442 -0.30515164 -3.2714563 -0.29740512 0 0 Z " fill="#6DCEA6" transform="translate(139,340)"/>
<path d="M0 0 C5.94 0.99 5.94 0.99 12 2 C12.33 3.65 12.66 5.3 13 7 C13.66 7 14.32 7 15 7 C15.28875 7.763125 15.5775 8.52625 15.875 9.3125 C16.96269013 12.15029308 16.96269013 12.15029308 19 15 C17.78515625 16.51171875 17.78515625 16.51171875 16 18 C13.80859375 18.14453125 13.80859375 18.14453125 11.4375 17.8125 C10.65246094 17.71582031 9.86742187 17.61914062 9.05859375 17.51953125 C7 17 7 17 5 15 C4.31526605 12.67190457 3.65146849 10.33762223 3 8 C2.05508941 5.64005089 1.02403578 3.32735404 0 1 C0 0.67 0 0.34 0 0 Z " fill="#F7C3BB" transform="translate(127,399)"/>
<path d="M0 0 C14.19 0 28.38 0 43 0 C43 1.32 43 2.64 43 4 C28.81 4 14.62 4 0 4 C0 2.68 0 1.36 0 0 Z " fill="#FAFAFA" transform="translate(166,37)"/>
<path d="M0 0 C1.9375 1.0625 1.9375 1.0625 3 3 C3.5 6.4375 3.5 6.4375 3 10 C0.875 12.5 0.875 12.5 -2 14 C-5.50732933 14 -7.2434698 13.6345092 -9.9375 11.375 C-11.48100034 7.92482276 -10.93333407 5.60000284 -10 2 C-6.30513897 -0.46324069 -4.36706908 -0.38991688 0 0 Z " fill="#786AFE" transform="translate(228,232)"/>
<path d="M0 0 C2.375 1.625 2.375 1.625 4 4 C4.61195145 7.6717087 4.48706506 9.28813568 2.375 12.375 C0 14 0 14 -3 14.5625 C-6 14 -6 14 -8.4375 11.875 C-10 9 -10 9 -9.9375 5.875 C-8.12944906 0.33031044 -5.83514388 -0.83359198 0 0 Z " fill="#FEB965" transform="translate(133,204)"/>
<path d="M0 0 C1.9375 1.0625 1.9375 1.0625 3 3 C3.49891602 6.92005446 3.55253414 9.11594538 1.4375 12.5 C-1 14 -1 14 -4.5625 14 C-8 13 -8 13 -9.9375 11.25 C-11.23370853 8.50508782 -11.52487013 6.99925788 -11 4 C-7.99829475 -0.44252378 -5.15110438 -0.6555951 0 0 Z " fill="#F4586E" transform="translate(197,176)"/>
<path d="M0 0 C2.5 2.1875 2.5 2.1875 4 5 C3.9314372 7.87963761 3.42017888 9.38078902 1.8125 11.75 C-0.82981958 13.57228937 -2.80291961 13.93475346 -6 14 C-8.375 12.5 -8.375 12.5 -10 10 C-10.42519574 6.53769185 -10.63902633 4.1652833 -8.9375 1.0625 C-5.79665674 -0.65989792 -3.50181214 -0.49148241 0 0 Z " fill="#0DB9AE" transform="translate(164,232)"/>
<path d="M0 0 C1 1 1 1 1.0625 4.0625 C1.041875 5.031875 1.02125 6.00125 1 7 C-0.175625 6.9690625 -0.175625 6.9690625 -1.375 6.9375 C-3.98114961 6.81315937 -3.98114961 6.81315937 -6 8 C-6 7.34 -6 6.68 -6 6 C-7.32 6 -8.64 6 -10 6 C-10.99 7.485 -10.99 7.485 -12 9 C-12.33 8.01 -12.66 7.02 -13 6 C-13.99 6 -14.98 6 -16 6 C-16 5.34 -16 4.68 -16 4 C-17.1446875 4.7425 -17.1446875 4.7425 -18.3125 5.5 C-21 7 -21 7 -24 7 C-24.125 4.625 -24.125 4.625 -24 2 C-18.87431433 -3.12568567 -6.71985559 -1.26789728 0 0 Z " fill="#EBEDFF" transform="translate(105,440)"/>
<path d="M0 0 C0.99 0 1.98 0 3 0 C5.1651417 4.94889531 7.13250249 9.93107817 9 15 C10.134375 15.12375 11.26875 15.2475 12.4375 15.375 C13.613125 15.58125 14.78875 15.7875 16 16 C16.33 16.66 16.66 17.32 17 18 C13.52817697 19.73591152 9.79591036 19.46571673 6 19 C1.91136176 16.91851144 -0.3111811 15.241326 -2 11 C-2.265625 8.7109375 -2.265625 8.7109375 -2.25 6.375 C-2.25515625 5.59898437 -2.2603125 4.82296875 -2.265625 4.0234375 C-2 2 -2 2 0 0 Z " fill="#522765" transform="translate(125,400)"/>
<path d="M0 0 C3 3.75 3 3.75 3 6 C2.01 6 1.02 6 0 6 C-0.433125 7.2065625 -0.433125 7.2065625 -0.875 8.4375 C-2 11 -2 11 -4 12 C-3.67 9.69 -3.34 7.38 -3 5 C-3.99 5.495 -3.99 5.495 -5 6 C-5.68729254 8.11846285 -5.68729254 8.11846285 -6.125 10.5625 C-6.29257813 11.38878906 -6.46015625 12.21507812 -6.6328125 13.06640625 C-6.75398437 13.70449219 -6.87515625 14.34257812 -7 15 C-6.34 15.33 -5.68 15.66 -5 16 C-5.33 17.32 -5.66 18.64 -6 20 C-9.71599191 20.20086443 -10.77208445 20.1519437 -14 18 C-14 17.34 -14 16.68 -14 16 C-12.35 16 -10.7 16 -9 16 C-9 15.34 -9 14.68 -9 14 C-9.99 13.67 -10.98 13.34 -12 13 C-11.42655063 10.13275314 -11.1385485 9.1385485 -9 7 C-8.401875 6.175 -7.80375 5.35 -7.1875 4.5 C-4.87604158 1.85833324 -3.30930603 1.01117684 0 0 Z " fill="#E5C075" transform="translate(140,345)"/>
<path d="M0 0 C1.79244141 0.01740234 1.79244141 0.01740234 3.62109375 0.03515625 C5.41740234 0.04869141 5.41740234 0.04869141 7.25 0.0625 C8.17683594 0.07410156 9.10367187 0.08570313 10.05859375 0.09765625 C11.18359375 2.41015625 11.18359375 2.41015625 12.05859375 5.09765625 C11.06859375 6.58265625 11.06859375 6.58265625 10.05859375 8.09765625 C7.30859375 8.4609375 7.30859375 8.4609375 4.05859375 8.41015625 C2.44984375 8.40435547 2.44984375 8.40435547 0.80859375 8.3984375 C-1.94140625 8.09765625 -1.94140625 8.09765625 -3.94140625 6.09765625 C-4.12890625 3.53515625 -4.12890625 3.53515625 -3.94140625 1.09765625 C-2.94140625 0.09765625 -2.94140625 0.09765625 0 0 Z " fill="#CDCCD1" transform="translate(286.94140625,41.90234375)"/>
<path d="M0 0 C0.99 0 1.98 0 3 0 C3 0.99 3 1.98 3 3 C4.32 3.33 5.64 3.66 7 4 C7 6.31 7 8.62 7 11 C6.67 11 6.34 11 6 11 C6 9.02 6 7.04 6 5 C5.01 5 4.02 5 3 5 C3 6.98 3 8.96 3 11 C1.52093108 11.02689216 0.04172517 11.04634621 -1.4375 11.0625 C-2.67306641 11.07990234 -2.67306641 11.07990234 -3.93359375 11.09765625 C-6 11 -6 11 -7 10 C-7.04080783 8.00041636 -7.04254356 5.99954746 -7 4 C-2.25 2.875 -2.25 2.875 0 4 C0 2.68 0 1.36 0 0 Z " fill="#E8E8EA" transform="translate(184,98)"/>
<path d="M0 0 C2.64 0 5.28 0 8 0 C7.96591928 7.82152466 7.96591928 7.82152466 5.59765625 10.7109375 C3.9375 12.0625 3.9375 12.0625 1 14 C0.4465236 11.92446352 0 10.15634036 0 8 C-0.66 8 -1.32 8 -2 8 C-1.34 5.36 -0.68 2.72 0 0 Z " fill="#314E80" transform="translate(140,351)"/>
<path d="M0 0 C4.62 0 9.24 0 14 0 C15 4 15 4 14 6 C9.38 6 4.76 6 0 6 C0 5.34 0 4.68 0 4 C0.66 4 1.32 4 2 4 C1.34 2.68 0.68 1.36 0 0 Z " fill="#FFA680" transform="translate(197,341)"/>
<path d="M0 0 C2.00451121 0.30503431 4.00448218 0.64080679 6 1 C8.88301208 1.12794628 8.88301208 1.12794628 11.125 0.4375 C11.74375 0.293125 12.3625 0.14875 13 0 C14 1 14 1 14 6 C9.05 6 4.1 6 -1 6 C-1 1 -1 1 0 0 Z " fill="#8D7BFF" transform="translate(160,394)"/>
<path d="M0 0 C0.66 0 1.32 0 2 0 C2 3.96 2 7.92 2 12 C0.02 12 -1.96 12 -4 12 C-6 10 -6 10 -6.1875 7.4375 C-6 5 -6 5 -5 4 C-3.33382885 3.95936168 -1.66611905 3.957279 0 4 C0 2.68 0 1.36 0 0 Z " fill="#363247" transform="translate(153,66)"/>
<path d="M0 0 C4.8434046 0.41514897 6.81587829 2.46208699 10 6 C10.33 6.33 10.66 6.66 11 7 C11.04063832 8.66617115 11.042721 10.33388095 11 12 C5.60616465 9.86755347 2.72769634 7.00882293 0 2 C0 1.34 0 0.68 0 0 Z " fill="#F7F7FE" transform="translate(137,394)"/>
<path d="M0 0 C1.65 1.65 3.3 3.3 5 5 C3.78515625 6.51171875 3.78515625 6.51171875 2 8 C-0.19140625 8.14453125 -0.19140625 8.14453125 -2.5625 7.8125 C-3.34753906 7.71582031 -4.13257813 7.61914062 -4.94140625 7.51953125 C-7 7 -7 7 -9 5 C-9 3.68 -9 2.36 -9 1 C-5.125 2.75 -5.125 2.75 -4 5 C-3.67 4.01 -3.34 3.02 -3 2 C-2.01 2 -1.02 2 0 2 C0 1.34 0 0.68 0 0 Z " fill="#949DB6" transform="translate(141,409)"/>
<path d="M0 0 C2.625 0.375 2.625 0.375 5 1 C5.125 4.375 5.125 4.375 5 8 C4.34 8.66 3.68 9.32 3 10 C-0.53571429 9.46428571 -0.53571429 9.46428571 -2 8 C-2.1875 5.0625 -2.1875 5.0625 -2 2 C-1.34 1.34 -0.68 0.68 0 0 Z " fill="#423E52" transform="translate(206,99)"/>
<path d="M0 0 C0.99 0.33 1.98 0.66 3 1 C3.6875 3.0625 3.6875 3.0625 4 5 C4.66 5 5.32 5 6 5 C6.66 3.35 7.32 1.7 8 0 C8.66 0 9.32 0 10 0 C10 3.3 10 6.6 10 10 C9.34 10 8.68 10 8 10 C7.67 8.68 7.34 7.36 7 6 C6.67 6.66 6.34 7.32 6 8 C5.34 8 4.68 8 4 8 C3.67 7.34 3.34 6.68 3 6 C2.67 7.32 2.34 8.64 2 10 C1.34 10 0.68 10 0 10 C0 6.7 0 3.4 0 0 Z " fill="#3B374C" transform="translate(152,99)"/>
<path d="M0 0 C1.32 0.66 2.64 1.32 4 2 C3.01 3.32 2.02 4.64 1 6 C4.3 5.34 7.6 4.68 11 4 C10 8 10 8 7 10 C1.55555556 9.55555556 1.55555556 9.55555556 -1 7 C-1.1875 3.9375 -1.1875 3.9375 -1 1 C-0.67 0.67 -0.34 0.34 0 0 Z " fill="#7465FE" transform="translate(219,236)"/>
<path d="M0 0 C0.66 0 1.32 0 2 0 C2 0.99 2 1.98 2 3 C2.61875 2.835 3.2375 2.67 3.875 2.5 C7.16673441 1.72547426 9.7222975 2.30995737 13 3 C12.67 4.32 12.34 5.64 12 7 C12 6.01 12 5.02 12 4 C11.34 4 10.68 4 10 4 C10 5.32 10 6.64 10 8 C8.68 7.67 7.36 7.34 6 7 C6 6.01 6 5.02 6 4 C5.34 4 4.68 4 4 4 C4 4.99 4 5.98 4 7 C2.68 7.33 1.36 7.66 0 8 C-1.125 2.25 -1.125 2.25 0 0 Z " fill="#6B6878" transform="translate(127,127)"/>
<path d="M0 0 C3.63 0 7.26 0 11 0 C11 1.65 11 3.3 11 5 C7.37 5 3.74 5 0 5 C0 3.35 0 1.7 0 0 Z " fill="#120D26" transform="translate(285,43)"/>
<path d="M0 0 C0.66 0 1.32 0 2 0 C2 1.98 2 3.96 2 6 C2.66 5.67 3.32 5.34 4 5 C4.28571429 12.42857143 4.28571429 12.42857143 2 16 C1.87625 15.071875 1.87625 15.071875 1.75 14.125 C1.19884128 11.81418662 1.19884128 11.81418662 -1.046875 10.8671875 C-1.69140625 10.58101563 -2.3359375 10.29484375 -3 10 C-2.69201674 8.51988629 -2.378482 7.04092675 -2.0625 5.5625 C-1.88847656 4.73878906 -1.71445313 3.91507812 -1.53515625 3.06640625 C-1 1 -1 1 0 0 Z " fill="#CA5B4E" transform="translate(135,350)"/>
<path d="M0 0 C0.99 0 1.98 0 3 0 C3.33 0.66 3.66 1.32 4 2 C4.33 1.34 4.66 0.68 5 0 C6.32 0.33 7.64 0.66 9 1 C9 2.65 9 4.3 9 6 C6.03 6 3.06 6 0 6 C-0.38218767 4.34385343 -0.71395102 2.67542976 -1 1 C-0.67 0.67 -0.34 0.34 0 0 Z " fill="#BEB4FF" transform="translate(206,410)"/>
<path d="M0 0 C4.455 0.99 4.455 0.99 9 2 C9 3.32 9 4.64 9 6 C7.68 6.33 6.36 6.66 5 7 C5.66 8.32 6.32 9.64 7 11 C6.34 11 5.68 11 5 11 C2.25221116 7.41954788 0.53031138 4.5076467 0 0 Z " fill="#E6AEAC" transform="translate(127,399)"/>
<path d="M0 0 C0.33 0 0.66 0 1 0 C1 2.31 1 4.62 1 7 C-2.63 7 -6.26 7 -10 7 C-10 5.35 -10 3.7 -10 2 C-9.67 3.32 -9.34 4.64 -9 6 C-8.34 6 -7.68 6 -7 6 C-7 4.68 -7 3.36 -7 2 C-4.69 2 -2.38 2 0 2 C0 1.34 0 0.68 0 0 Z " fill="#FFCFBC" transform="translate(197,355)"/>
<path d="M0 0 C1.67542976 0.28604898 3.34385343 0.61781233 5 1 C5 1.33 5 1.66 5 2 C3.35 2 1.7 2 0 2 C0.33 2.99 0.66 3.98 1 5 C1.66 5.33 2.32 5.66 3 6 C3 5.01 3 4.02 3 3 C4.32 3.33 5.64 3.66 7 4 C7 3.34 7 2.68 7 2 C8.32 2.33 9.64 2.66 11 3 C11 4.32 11 5.64 11 7 C9.18757948 7.02687279 7.37504767 7.04633715 5.5625 7.0625 C4.55316406 7.07410156 3.54382813 7.08570313 2.50390625 7.09765625 C0 7 0 7 -1 6 C-1.125 3.5 -1.125 3.5 -1 1 C-0.67 0.67 -0.34 0.34 0 0 Z " fill="#FFD9C9" transform="translate(157,355)"/>
<path d="M0 0 C-0.6875 1.875 -0.6875 1.875 -2 4 C-3.2065625 4.4640625 -3.2065625 4.4640625 -4.4375 4.9375 C-7.69589041 6.28853992 -8.45475325 7.9095065 -10 11 C-11 8 -11 8 -9.8125 4.4375 C-8 1 -8 1 -6.0625 -0.5 C-3.67361265 -1.07912421 -2.2947314 -0.81954693 0 0 Z " fill="#0FB7A7" transform="translate(142,342)"/>
<path d="M0 0 C0.33 0 0.66 0 1 0 C1 2.31 1 4.62 1 7 C-2.63 7 -6.26 7 -10 7 C-9 4 -9 4 -7.1875 3.0859375 C-6.465625 2.85132813 -5.74375 2.61671875 -5 2.375 C-2.25730729 1.58884867 -2.25730729 1.58884867 0 0 Z " fill="#615E6E" transform="translate(266,42)"/>
<path d="M0 0 C0.66 0.33 1.32 0.66 2 1 C1.01 2.3303125 1.01 2.3303125 0 3.6875 C-2.01386882 7.02297023 -2.50742579 8.24504913 -2 12 C-1.67 12.99 -1.34 13.98 -1 15 C0.65 15.33 2.3 15.66 4 16 C4 16.66 4 17.32 4 18 C1.125 17.6875 1.125 17.6875 -2 17 C-4.67348144 12.98977783 -4.71022805 9.71558394 -4 5 C-2 1.9375 -2 1.9375 0 0 Z " fill="#259B96" transform="translate(127,343)"/>
<path d="M0 0 C2.31 0 4.62 0 7 0 C7 0.66 7 1.32 7 2 C7.66 2 8.32 2 9 2 C9.33 1.34 9.66 0.68 10 0 C10 1.65 10 3.3 10 5 C9.67 4.34 9.34 3.68 9 3 C8.34 3 7.68 3 7 3 C7 3.66 7 4.32 7 5 C4.125 5.625 4.125 5.625 1 6 C0.34 5.34 -0.32 4.68 -1 4 C-0.625 1.875 -0.625 1.875 0 0 Z " fill="#94929D" transform="translate(181,313)"/>
<path d="M0 0 C1.2065625 0.0309375 1.2065625 0.0309375 2.4375 0.0625 C3.79189668 2.77129335 3.50251451 5.07183268 3.4375 8.0625 C1.1275 8.0625 -1.1825 8.0625 -3.5625 8.0625 C-2.6875 3.1875 -2.6875 3.1875 -1.5625 2.0625 C-2.2225 1.7325 -2.8825 1.4025 -3.5625 1.0625 C-2.5625 0.0625 -2.5625 0.0625 0 0 Z " fill="#555163" transform="translate(160.5625,69.9375)"/>
<path d="M0 0 C3.625 0.375 3.625 0.375 7 1 C7 1.66 7 2.32 7 3 C4.69 2.67 2.38 2.34 0 2 C0 4.31 0 6.62 0 9 C3.465 8.505 3.465 8.505 7 8 C7 8.66 7 9.32 7 10 C4.69 10.33 2.38 10.66 0 11 C-1.5625 9.3125 -1.5625 9.3125 -3 7 C-2.75925978 3.62963689 -2.41201979 2.41201979 0 0 Z " fill="#39354A" transform="translate(108,67)"/>
<path d="M0 0 C1.33841672 0.31229724 2.67139075 0.64830932 4 1 C4.99 1 5.98 1 7 1 C7.33 2.32 7.66 3.64 8 5 C3.03926578 6.32286246 -1.91111512 6.08893197 -7 6 C-5 4 -5 4 -1.875 3.875 C-0.92625 3.91625 0.0225 3.9575 1 4 C1 3.34 1 2.68 1 2 C0.34 1.67 -0.32 1.34 -1 1 C-0.67 0.67 -0.34 0.34 0 0 Z " fill="#9D8EFF" transform="translate(204,394)"/>
<path d="M0 0 C0.5775 0.165 1.155 0.33 1.75 0.5 C4.26664369 1.14462031 4.26664369 1.14462031 8 1 C7.67 2.65 7.34 4.3 7 6 C3.88742431 6 1.89234315 5.82638376 -1 5 C-0.67 3.35 -0.34 1.7 0 0 Z " fill="#FFAA86" transform="translate(166,341)"/>
<path d="M0 0 C1.2065625 0.0309375 1.2065625 0.0309375 2.4375 0.0625 C3.79189668 2.77129335 3.50251451 5.07183268 3.4375 8.0625 C1.1275 8.0625 -1.1825 8.0625 -3.5625 8.0625 C-2.6875 3.1875 -2.6875 3.1875 -1.5625 2.0625 C-2.2225 1.7325 -2.8825 1.4025 -3.5625 1.0625 C-2.5625 0.0625 -2.5625 0.0625 0 0 Z " fill="#504D5F" transform="translate(120.5625,69.9375)"/>
<path d="M0 0 C1.23556641 0.01740234 1.23556641 0.01740234 2.49609375 0.03515625 C3.32238281 0.04417969 4.14867187 0.05320312 5 0.0625 C5.63808594 0.07410156 6.27617187 0.08570313 6.93359375 0.09765625 C7.26359375 1.74765625 7.59359375 3.39765625 7.93359375 5.09765625 C7.60359375 4.10765625 7.27359375 3.11765625 6.93359375 2.09765625 C6.27359375 2.09765625 5.61359375 2.09765625 4.93359375 2.09765625 C4.60359375 2.75765625 4.27359375 3.41765625 3.93359375 4.09765625 C1.61953155 4.82841273 -0.71469494 5.49903883 -3.06640625 6.09765625 C-3.10912725 4.4315372 -3.10704457 2.7638274 -3.06640625 1.09765625 C-2.06640625 0.09765625 -2.06640625 0.09765625 0 0 Z " fill="#FFAA86" transform="translate(217.06640625,341.90234375)"/>
<path d="M0 0 C0.99 0.99 1.98 1.98 3 3 C3.33 2.01 3.66 1.02 4 0 C5.65 0.33 7.3 0.66 9 1 C8.3125 2.9375 8.3125 2.9375 7 5 C3.85335593 5.99367708 1.33401374 6 -2 6 C-1.34 4.02 -0.68 2.04 0 0 Z " fill="#70707C" transform="translate(167,449)"/>
<path d="M0 0 C1.4540625 0.0309375 1.4540625 0.0309375 2.9375 0.0625 C4 1.9375 4 1.9375 4.9375 4.0625 C4.6075 4.7225 4.2775 5.3825 3.9375 6.0625 C1.2975 6.0625 -1.3425 6.0625 -4.0625 6.0625 C-4.105221 4.39638095 -4.10313832 2.72867115 -4.0625 1.0625 C-3.0625 0.0625 -3.0625 0.0625 0 0 Z " fill="#AAA8B1" transform="translate(161.0625,262.9375)"/>
<path d="M0 0 C0 0.66 0 1.32 0 2 C0.99 2.33 1.98 2.66 3 3 C2.67 4.32 2.34 5.64 2 7 C2 6.01 2 5.02 2 4 C1.34 4 0.68 4 0 4 C0 5.32 0 6.64 0 8 C-0.66 8 -1.32 8 -2 8 C-2 6.02 -2 4.04 -2 2 C-2.66 2 -3.32 2 -4 2 C-4 3.98 -4 5.96 -4 8 C-4.66 8 -5.32 8 -6 8 C-6 6.02 -6 4.04 -6 2 C-6.66 1.67 -7.32 1.34 -8 1 C-2.25 0 -2.25 0 0 0 Z " fill="#73717F" transform="translate(224,127)"/>
<path d="M0 0 C2.97 0 5.94 0 9 0 C9.33 1.65 9.66 3.3 10 5 C9.67 4.01 9.34 3.02 9 2 C8.34 2 7.68 2 7 2 C6.67 2.99 6.34 3.98 6 5 C3.69 5 1.38 5 -1 5 C-0.67 3.35 -0.34 1.7 0 0 Z " fill="#FFAB87" transform="translate(177,342)"/>
<path d="M0 0 C1.2065625 0.0309375 1.2065625 0.0309375 2.4375 0.0625 C2.7675 1.3825 3.0975 2.7025 3.4375 4.0625 C1.7875 4.0625 0.1375 4.0625 -1.5625 4.0625 C-1.5625 4.7225 -1.5625 5.3825 -1.5625 6.0625 C0.0875 6.0625 1.7375 6.0625 3.4375 6.0625 C3.1075 6.7225 2.7775 7.3825 2.4375 8.0625 C-2.4375 7.1875 -2.4375 7.1875 -3.5625 6.0625 C-3.6875 3.5625 -3.6875 3.5625 -3.5625 1.0625 C-2.5625 0.0625 -2.5625 0.0625 0 0 Z " fill="#4A4659" transform="translate(132.5625,69.9375)"/>
<path d="M0 0 C3 0.125 3 0.125 4 1.125 C4.04063832 2.79117115 4.042721 4.45888095 4 6.125 C1.36 6.125 -1.28 6.125 -4 6.125 C-3.34 4.805 -2.68 3.485 -2 2.125 C-2.66 1.795 -3.32 1.465 -4 1.125 C-3 0.125 -3 0.125 0 0 Z " fill="#9C9AA4" transform="translate(100,262.875)"/>
<path d="M0 0 C2.31 0 4.62 0 7 0 C7 1.98 7 3.96 7 6 C5.02 6 3.04 6 1 6 C0.67 4.02 0.34 2.04 0 0 Z " fill="#B7B5BD" transform="translate(248,180)"/>
<path d="M0 0 C3.63 0 7.26 0 11 0 C10.67 1.32 10.34 2.64 10 4 C10 3.01 10 2.02 10 1 C9.34 1 8.68 1 8 1 C7.67 1.99 7.34 2.98 7 4 C4.69 4.33 2.38 4.66 0 5 C0 3.35 0 1.7 0 0 Z " fill="#9B8CFF" transform="translate(214,396)"/>
<path d="M0 0 C0 1.98 0 3.96 0 6 C-1.98 6.33 -3.96 6.66 -6 7 C-6.33 5.35 -6.66 3.7 -7 2 C-1.125 0 -1.125 0 0 0 Z " fill="#747180" transform="translate(282,128)"/>
<path d="M0 0 C0 0.99 0 1.98 0 3 C2.31 3.33 4.62 3.66 7 4 C7 4.66 7 5.32 7 6 C4.69 6.33 2.38 6.66 0 7 C0 7.99 0 8.98 0 10 C-1.32 8.68 -2.64 7.36 -4 6 C-2.84826645 3.53199953 -1.95216435 1.95216435 0 0 Z " fill="#575365" transform="translate(90,67)"/>
<path d="M0 0 C3.96 0 7.92 0 12 0 C12 0.99 12 1.98 12 3 C7.74433453 4.16063604 4.3164922 3.76173392 0 3 C0 2.01 0 1.02 0 0 Z " fill="#E3E3E3" transform="translate(56,452)"/>
<path d="M0 0 C1.4540625 0.0309375 1.4540625 0.0309375 2.9375 0.0625 C2.980221 1.72861905 2.97813832 3.39632885 2.9375 5.0625 C1.9375 6.0625 1.9375 6.0625 -0.625 6.125 C-1.8315625 6.0940625 -1.8315625 6.0940625 -3.0625 6.0625 C-3.44468767 4.40635343 -3.77645102 2.73792976 -4.0625 1.0625 C-3.0625 0.0625 -3.0625 0.0625 0 0 Z " fill="#A9A8B0" transform="translate(252.0625,207.9375)"/>
<path d="M0 0 C1.65 0.33 3.3 0.66 5 1 C4.125 5.875 4.125 5.875 3 7 C3.66 7.33 4.32 7.66 5 8 C5 8.66 5 9.32 5 10 C3.02 10 1.04 10 -1 10 C0.33333333 7.33333333 1.66666667 4.66666667 3 2 C1.68 2.33 0.36 2.66 -1 3 C-0.67 2.01 -0.34 1.02 0 0 Z " fill="#403C50" transform="translate(214,99)"/>
<path d="M0 0 C1.65 0.33 3.3 0.66 5 1 C4.67 2.98 4.34 4.96 4 7 C4.66 7.33 5.32 7.66 6 8 C6 8.66 6 9.32 6 10 C3.69 10 1.38 10 -1 10 C0.33333333 7.33333333 1.66666667 4.66666667 3 2 C2.34 1.67 1.68 1.34 1 1 C1 1.66 1 2.32 1 3 C0.34 3 -0.32 3 -1 3 C-0.67 2.01 -0.34 1.02 0 0 Z " fill="#444053" transform="translate(197,99)"/>
<path d="M0 0 C0.66 0 1.32 0 2 0 C2 0.99 2 1.98 2 3 C3.32 3.33 4.64 3.66 6 4 C6 6.31 6 8.62 6 11 C5.67 11 5.34 11 5 11 C5 9.02 5 7.04 5 5 C4.01 5 3.02 5 2 5 C2 6.98 2 8.96 2 11 C1.34 11 0.68 11 0 11 C0 7.37 0 3.74 0 0 Z " fill="#403C51" transform="translate(185,98)"/>
<path d="M0 0 C1.99954746 -0.04254356 4.00041636 -0.04080783 6 0 C7 1 7 1 7.0625 4.5625 C7.041875 5.696875 7.02125 6.83125 7 8 C6.34 8 5.68 8 5 8 C5 5.69 5 3.38 5 1 C4.01 1.495 4.01 1.495 3 2 C2.34227572 5.02934491 2.34227572 5.02934491 2 8 C1.34 8 0.68 8 0 8 C0 5.36 0 2.72 0 0 Z " fill="#363246" transform="translate(138,70)"/>
<path d="M0 0 C0.99 0.33 1.98 0.66 3 1 C4.32 1 5.64 1 7 1 C7 2.65 7 4.3 7 6 C4.36 6 1.72 6 -1 6 C-0.34 5.67 0.32 5.34 1 5 C1 4.01 1 3.02 1 2 C0.34 1.67 -0.32 1.34 -1 1 C-0.67 0.67 -0.34 0.34 0 0 Z " fill="#9788FF" transform="translate(167,394)"/>
<path d="M0 0 C0.66 0 1.32 0 2 0 C2 0.66 2 1.32 2 2 C3.32 2 4.64 2 6 2 C6 3.65 6 5.3 6 7 C4.02 7 2.04 7 0 7 C0 4.69 0 2.38 0 0 Z " fill="#FFCDB8" transform="translate(169,355)"/>
<path d="M0 0 C2.0625 0.4375 2.0625 0.4375 4 1 C5.125 4.75 5.125 4.75 4 7 C2.35 6.67 0.7 6.34 -1 6 C-1.042721 4.33388095 -1.04063832 2.66617115 -1 1 C-0.67 0.67 -0.34 0.34 0 0 Z " fill="#7A7785" transform="translate(90,42)"/>
<path d="M0 0 C3.3 0 6.6 0 10 0 C9.67 1.32 9.34 2.64 9 4 C9 3.01 9 2.02 9 1 C8.34 1 7.68 1 7 1 C6.67 1.99 6.34 2.98 6 4 C3.69 4 1.38 4 -1 4 C-0.67 2.68 -0.34 1.36 0 0 Z " fill="#9F90FF" transform="translate(177,396)"/>
<path d="M0 0 C2.64 0 5.28 0 8 0 C7.814375 0.61875 7.62875 1.2375 7.4375 1.875 C6.76313824 4.04160178 6.76313824 4.04160178 8 6 C5.33333333 6 2.66666667 6 0 6 C0 4.02 0 2.04 0 0 Z " fill="#9C9AA4" transform="translate(272,208)"/>
<path d="M0 0 C0.99 0.495 0.99 0.495 2 1 C2 1.66 2 2.32 2 3 C2.45375 2.505 2.9075 2.01 3.375 1.5 C5 0 5 0 7 0 C7 2.31 7 4.62 7 7 C6.21625 6.814375 5.4325 6.62875 4.625 6.4375 C2.02910225 5.74037734 2.02910225 5.74037734 0 7 C0 4.69 0 2.38 0 0 Z " fill="#FFD8C8" transform="translate(179,355)"/>
<path d="M0 0 C0.66 0 1.32 0 2 0 C2.33 2.31 2.66 4.62 3 7 C-0.11257569 7 -2.10765685 6.82638376 -5 6 C-5 4.68 -5 3.36 -5 2 C-3.35 2 -1.7 2 0 2 C0 1.34 0 0.68 0 0 Z " fill="#FFD5C4" transform="translate(222,355)"/>
<path d="M0 0 C2.76276177 0.52268466 5.3260876 1.10869587 8 2 C7.67 3.32 7.34 4.64 7 6 C4.69 6 2.38 6 0 6 C0.66 4.35 1.32 2.7 2 1 C1.34 0.67 0.68 0.34 0 0 Z " fill="#9F9CA6" transform="translate(248,236)"/>
<path d="M0 0 C1.65 0.33 3.3 0.66 5 1 C5 2.98 5 4.96 5 7 C4.34 7 3.68 7 3 7 C3 6.34 3 5.68 3 5 C2.01 5.495 2.01 5.495 1 6 C1.33 6.66 1.66 7.32 2 8 C1.01 8 0.02 8 -1 8 C-0.835 7.236875 -0.67 6.47375 -0.5 5.6875 C0.09145396 2.96403764 0.09145396 2.96403764 0 0 Z " fill="#444054" transform="translate(165,101)"/>
<path d="M0 0 C6.93 0.495 6.93 0.495 14 1 C14 1.66 14 2.32 14 3 C9.05 3 4.1 3 -1 3 C-0.67 2.01 -0.34 1.02 0 0 Z " fill="#C8E0FF" transform="translate(55,454)"/>
<path d="M0 0 C2.64 0 5.28 0 8 0 C7.01 0.495 7.01 0.495 6 1 C6 1.99 6 2.98 6 4 C6.66 4.33 7.32 4.66 8 5 C5.10765685 5.82638376 3.11257569 6 0 6 C0.66 4.35 1.32 2.7 2 1 C1.34 0.67 0.68 0.34 0 0 Z " fill="#888592" transform="translate(198,313)"/>
<path d="M0 0 C1.32 0 2.64 0 4 0 C4.33 0.99 4.66 1.98 5 3 C5 2.01 5 1.02 5 0 C5.99 0.33 6.98 0.66 8 1 C7.67 2.65 7.34 4.3 7 6 C4.69 6 2.38 6 0 6 C0.66 4.68 1.32 3.36 2 2 C1.34 1.34 0.68 0.68 0 0 Z " fill="#A89FFF" transform="translate(220,236)"/>
<path d="M0 0 C2.31 0 4.62 0 7 0 C7 1.65 7 3.3 7 5 C4 6 4 6 1 5 C0.67 3.35 0.34 1.7 0 0 Z " fill="#A8A7AF" transform="translate(273,180)"/>
<path d="M0 0 C1.65 0.33 3.3 0.66 5 1 C4.45773019 4.79588866 2.79872437 6.47211993 0 9 C-1.125 2.25 -1.125 2.25 0 0 Z " fill="#DFDEE1" transform="translate(212,100)"/>
<path d="M0 0 C1.32 0 2.64 0 4 0 C4 0.99 4 1.98 4 3 C4.66 2.67 5.32 2.34 6 2 C5.67 1.34 5.34 0.68 5 0 C5.99 0 6.98 0 8 0 C8 1.65 8 3.3 8 5 C5.10765685 5.82638376 3.11257569 6 0 6 C0.66 4.68 1.32 3.36 2 2 C1.34 1.34 0.68 0.68 0 0 Z " fill="#6AD4CD" transform="translate(157,236)"/>
<path d="M0 0 C2.97 0 5.94 0 9 0 C8.67 1.32 8.34 2.64 8 4 C4.28400809 4.20086443 3.22791555 4.1519437 0 2 C0 1.34 0 0.68 0 0 Z " fill="#F7E28B" transform="translate(126,361)"/>
<path d="M0 0 C3 1 3 1 4 3 C4.99 3 5.98 3 7 3 C6.34 4.32 5.68 5.64 5 7 C3.35 7 1.7 7 0 7 C0 4.69 0 2.38 0 0 Z " fill="#FFCCB7" transform="translate(226,355)"/>
<path d="M0 0 C1.65 0.33 3.3 0.66 5 1 C5 2.32 5 3.64 5 5 C3.125 5.625 3.125 5.625 1 6 C0.34 5.34 -0.32 4.68 -1 4 C-0.625 1.875 -0.625 1.875 0 0 Z " fill="#96949F" transform="translate(121,313)"/>
<path d="M0 0 C0.99 0 1.98 0 3 0 C3.33 0.66 3.66 1.32 4 2 C4.33 1.34 4.66 0.68 5 0 C5.66 0 6.32 0 7 0 C7 1.65 7 3.3 7 5 C5.68 4.67 4.36 4.34 3 4 C3 4.66 3 5.32 3 6 C1.68 6 0.36 6 -1 6 C-0.649375 5.38125 -0.29875 4.7625 0.0625 4.125 C0.371875 3.42375 0.68125 2.7225 1 2 C0.67 1.34 0.34 0.68 0 0 Z " fill="#9896A1" transform="translate(190,236)"/>
<path d="M0 0 C1.98 0 3.96 0 6 0 C6.33 1.65 6.66 3.3 7 5 C4 6 4 6 1 5 C0.67 3.35 0.34 1.7 0 0 Z " fill="#F78C9B" transform="translate(190,180)"/>
<path d="M0 0 C2.31 0 4.62 0 7 0 C7 1.98 7 3.96 7 6 C5.68 5.67 4.36 5.34 3 5 C3 4.34 3 3.68 3 3 C2.34 2.67 1.68 2.34 1 2 C0.67 2.99 0.34 3.98 0 5 C0 3.35 0 1.7 0 0 Z " fill="#C5BBFF" transform="translate(228,410)"/>
<path d="M0 0 C-0.33 0.66 -0.66 1.32 -1 2 C-1.99 1.67 -2.98 1.34 -4 1 C-4 2.32 -4 3.64 -4 5 C-2.68 5.33 -1.36 5.66 0 6 C-1.65614657 6.38218767 -3.32457024 6.71395102 -5 7 C-6 6 -6 6 -6.0625 2.9375 C-6.041875 1.968125 -6.02125 0.99875 -6 0 C-3.50907189 -1.24546405 -2.58919267 -0.7767578 0 0 Z " fill="#4A4659" transform="translate(183,102)"/>
<path d="M0 0 C0.66 0 1.32 0 2 0 C2.33 1.98 2.66 3.96 3 6 C0.13822943 7.43088528 -1.93375773 6.59991697 -5 6 C-5 5.34 -5 4.68 -5 4 C-4.01 3.67 -3.02 3.34 -2 3 C-1.34 2.01 -0.68 1.02 0 0 Z " fill="#666373" transform="translate(101,42)"/>
<path d="M0 0 C1.4540625 0.0309375 1.4540625 0.0309375 2.9375 0.0625 C2.9375 2.0425 2.9375 4.0225 2.9375 6.0625 C0 5.25 0 5.25 -3.0625 4.0625 C-3.3925 3.0725 -3.7225 2.0825 -4.0625 1.0625 C-3.0625 0.0625 -3.0625 0.0625 0 0 Z " fill="#A8A6AF" transform="translate(194.0625,262.9375)"/>
<path d="M0 0 C1.98 0 3.96 0 6 0 C6 1.65 6 3.3 6 5 C4.02 5.33 2.04 5.66 0 6 C0.66 4.35 1.32 2.7 2 1 C1.34 0.67 0.68 0.34 0 0 Z " fill="#A2A0A9" transform="translate(97,236)"/>
<path d="M0 0 C2.46800047 1.15173355 4.04783565 2.04783565 6 4 C6.99 4.33 7.98 4.66 9 5 C5.625 5.625 5.625 5.625 2 6 C1.34 5.34 0.68 4.68 0 4 C0 2.68 0 1.36 0 0 Z " fill="#AB8399" transform="translate(132,410)"/>
<path d="M0 0 C3.4375 0.8125 3.4375 0.8125 7 2 C7.33 2.99 7.66 3.98 8 5 C5.69 5 3.38 5 1 5 C1 4.01 1 3.02 1 2 C0.34 1.67 -0.32 1.34 -1 1 C-0.67 0.67 -0.34 0.34 0 0 Z " fill="#8572FF" transform="translate(198,394)"/>
<path d="M0 0 C1.65 0 3.3 0 5 0 C4.67 0.99 4.34 1.98 4 3 C4.38932856 5.14255793 4.38932856 5.14255793 5 7 C4.01 7 3.02 7 2 7 C0.5393715 4.35261084 0 3.10551666 0 0 Z " fill="#C16050" transform="translate(141,344)"/>
<path d="M0 0 C3.63 0 7.26 0 11 0 C11 0.99 11 1.98 11 3 C9.35333797 2.8864371 7.70763918 2.75882619 6.0625 2.625 C5.14597656 2.55539062 4.22945313 2.48578125 3.28515625 2.4140625 C2.15400391 2.20910156 2.15400391 2.20910156 1 2 C0.67 1.34 0.34 0.68 0 0 Z " fill="#D7E2FF" transform="translate(307,456)"/>
<path d="M0 0 C1.98 0.495 1.98 0.495 4 1 C3.67 2.65 3.34 4.3 3 6 C2.01 6 1.02 6 0 6 C-1.125 2.25 -1.125 2.25 0 0 Z " fill="#BAAFFF" transform="translate(166,410)"/>
<path d="M0 0 C0.66 0 1.32 0 2 0 C1.53199289 4.05606165 1.12046792 7.46588679 -1 11 C-1.66 10.34 -2.32 9.68 -3 9 C-2.01 6.03 -1.02 3.06 0 0 Z " fill="#E67A52" transform="translate(135,350)"/>
<path d="M0 0 C1.32 0.66 2.64 1.32 4 2 C3.67 3.32 3.34 4.64 3 6 C1.68 5.67 0.36 5.34 -1 5 C-0.67 3.35 -0.34 1.7 0 0 Z " fill="#797785" transform="translate(166,129)"/>
<path d="M0 0 C0.99 0 1.98 0 3 0 C2.67 0.99 2.34 1.98 2 3 C2.66 3.33 3.32 3.66 4 4 C3.67 5.32 3.34 6.64 3 8 C1.68 7.67 0.36 7.34 -1 7 C-0.34 6.34 0.32 5.68 1 5 C0.34 4.67 -0.32 4.34 -1 4 C-0.67 2.68 -0.34 1.36 0 0 Z " fill="#696676" transform="translate(93,127)"/>
<path d="M0 0 C0.99 0.33 1.98 0.66 3 1 C3 1.99 3 2.98 3 4 C3.33 4.66 3.66 5.32 4 6 C2.02 6 0.04 6 -2 6 C-1.125 1.125 -1.125 1.125 0 0 Z " fill="#8190FF" transform="translate(95,452)"/>
<path d="M0 0 C0.99 0.33 1.98 0.66 3 1 C3 2.32 3 3.64 3 5 C3.66 5.33 4.32 5.66 5 6 C3.35 6 1.7 6 0 6 C-0.38218767 4.34385343 -0.71395102 2.67542976 -1 1 C-0.67 0.67 -0.34 0.34 0 0 Z " fill="#FFA985" transform="translate(160,341)"/>
<path d="M0 0 C0.99 0 1.98 0 3 0 C3 3.3 3 6.6 3 10 C2.34 10 1.68 10 1 10 C1 7.36 1 4.72 1 2 C0.34 1.67 -0.32 1.34 -1 1 C-0.67 0.67 -0.34 0.34 0 0 Z " fill="#4E4A5D" transform="translate(222,99)"/>
<path d="M0 0 C3.63 0 7.26 0 11 0 C11 1.65 11 3.3 11 5 C10.01 5 9.02 5 8 5 C8 3.68 8 2.36 8 1 C5.36 1 2.72 1 0 1 C0 0.67 0 0.34 0 0 Z " fill="#504C5E" transform="translate(285,43)"/>
<path d="M0 0 C0.66 0 1.32 0 2 0 C2 0.66 2 1.32 2 2 C2.66 2 3.32 2 4 2 C4.33 1.34 4.66 0.68 5 0 C5 1.98 5 3.96 5 6 C4.67 5.34 4.34 4.68 4 4 C3.34 4 2.68 4 2 4 C2 4.66 2 5.32 2 6 C1.34 6 0.68 6 0 6 C0 4.02 0 2.04 0 0 Z " fill="#70707A" transform="translate(149,449)"/>
<path d="M0 0 C0.99 0 1.98 0 3 0 C3 1.98 3 3.96 3 6 C1.68 5.67 0.36 5.34 -1 5 C-0.67 3.35 -0.34 1.7 0 0 Z " fill="#81818B" transform="translate(200,449)"/>
<path d="M0 0 C1 3 1 3 0.0625 5.1875 C-0.4634375 6.0846875 -0.4634375 6.0846875 -1 7 C-1.66 7 -2.32 7 -3 7 C-3.66 6.34 -4.32 5.68 -5 5 C-5 3.68 -5 2.36 -5 1 C-3.68 1 -2.36 1 -1 1 C-0.67 0.67 -0.34 0.34 0 0 Z " fill="#D2CBFF" transform="translate(164,408)"/>
<path d="M0 0 C1.32 0 2.64 0 4 0 C4 1.65 4 3.3 4 5 C2.35 4.67 0.7 4.34 -1 4 C-0.67 2.68 -0.34 1.36 0 0 Z " fill="#FFC2A9" transform="translate(200,357)"/>
<path d="M0 0 C2.31 0 4.62 0 7 0 C6.01 0.495 6.01 0.495 5 1 C5 1.99 5 2.98 5 4 C3.68 4.33 2.36 4.66 1 5 C0.67 3.35 0.34 1.7 0 0 Z " fill="#B9C1FF" transform="translate(94,309)"/>
<path d="M0 0 C1.65 0 3.3 0 5 0 C5 1.65 5 3.3 5 5 C3.35 5 1.7 5 0 5 C0 3.35 0 1.7 0 0 Z " fill="#ADACB4" transform="translate(222,180)"/>
<path d="M0 0 C1.35432675 1.31200404 2.68733482 2.64631404 4 4 C4 4.33 4 4.66 4 5 C1.69 5 -0.62 5 -3 5 C-1.125 1.125 -1.125 1.125 0 0 Z " fill="#28243B" transform="translate(179,71)"/>
<path d="M0 0 C1.65 0 3.3 0 5 0 C5 0.66 5 1.32 5 2 C4.01 2 3.02 2 2 2 C2 3.98 2 5.96 2 8 C1.34 8 0.68 8 0 8 C0 5.36 0 2.72 0 0 Z " fill="#4A4659" transform="translate(165,70)"/>
<path d="M0 0 C0.99 0 1.98 0 3 0 C3.33 1.65 3.66 3.3 4 5 C2.68 5.33 1.36 5.66 0 6 C-0.38218767 4.34385343 -0.71395102 2.67542976 -1 1 C-0.67 0.67 -0.34 0.34 0 0 Z " fill="#C6BEFF" transform="translate(223,410)"/>
<path d="M0 0 C0.8353125 0.7734375 0.8353125 0.7734375 1.6875 1.5625 C0.6975 1.8925 -0.2925 2.2225 -1.3125 2.5625 C-2.3025 1.9025 -3.2925 1.2425 -4.3125 0.5625 C-4.3125 1.5525 -4.3125 2.5425 -4.3125 3.5625 C-5.3025 3.2325 -6.2925 2.9025 -7.3125 2.5625 C-7.3125 1.5725 -7.3125 0.5825 -7.3125 -0.4375 C-2.88173077 -1.79134615 -2.88173077 -1.79134615 0 0 Z " fill="#FF9A6F" transform="translate(164.3125,357.4375)"/>
<path d="M0 0 C0.66 0 1.32 0 2 0 C2 0.66 2 1.32 2 2 C3.32 1.34 4.64 0.68 6 0 C6 1.65 6 3.3 6 5 C5.34 4.67 4.68 4.34 4 4 C1.90178785 4.39938767 1.90178785 4.39938767 0 5 C0 3.35 0 1.7 0 0 Z " fill="#5C596A" transform="translate(161,313)"/>
<path d="M0 0 C0.66 0 1.32 0 2 0 C2 0.66 2 1.32 2 2 C3.32 1.34 4.64 0.68 6 0 C6 1.65 6 3.3 6 5 C5.34 4.67 4.68 4.34 4 4 C1.90178785 4.39938767 1.90178785 4.39938767 0 5 C0 3.35 0 1.7 0 0 Z " fill="#615D6E" transform="translate(113,313)"/>
<path d="M0 0 C0.99 0.33 1.98 0.66 3 1 C3 1.66 3 2.32 3 3 C3.66 3 4.32 3 5 3 C5 3.66 5 4.32 5 5 C4.34 5 3.68 5 3 5 C2.67 5.66 2.34 6.32 2 7 C1.34 7 0.68 7 0 7 C0 4.69 0 2.38 0 0 Z " fill="#696676" transform="translate(121,128)"/>
<path d="M0 0 C2.0625 0.4375 2.0625 0.4375 4 1 C3.01 2.485 3.01 2.485 2 4 C2.66 4.33 3.32 4.66 4 5 C2.68 5.33 1.36 5.66 0 6 C-0.38218767 4.34385343 -0.71395102 2.67542976 -1 1 C-0.67 0.67 -0.34 0.34 0 0 Z " fill="#75757E" transform="translate(178,449)"/>
<path d="M0 0 C1.98 0.495 1.98 0.495 4 1 C4 1.99 4 2.98 4 4 C2.35 4.33 0.7 4.66 -1 5 C-0.67 3.35 -0.34 1.7 0 0 Z " fill="#B4BEFF" transform="translate(95,445)"/>
<path d="M0 0 C0.99 0 1.98 0 3 0 C4 3 4 3 3 6 C1.68 5.67 0.36 5.34 -1 5 C-0.67 3.35 -0.34 1.7 0 0 Z " fill="#C9C0FF" transform="translate(181,410)"/>
<path d="M0 0 C0.66 0 1.32 0 2 0 C2.33 2.31 2.66 4.62 3 7 C2.01 7.33 1.02 7.66 0 8 C-1.125 2.25 -1.125 2.25 0 0 Z " fill="#84818E" transform="translate(127,127)"/>
<path d="M0 0 C1.32 0.33 2.64 0.66 4 1 C4 1.99 4 2.98 4 4 C3.34 4 2.68 4 2 4 C2 4.99 2 5.98 2 7 C1.34 7 0.68 7 0 7 C0 4.69 0 2.38 0 0 Z " fill="#757280" transform="translate(247,128)"/>
<path d="M0 0 C0.99 1.485 0.99 1.485 2 3 C4.05003955 4.19232613 4.05003955 4.19232613 6 5 C5.01 5.33 4.02 5.66 3 6 C2.67 6.99 2.34 7.98 2 9 C1.34 9 0.68 9 0 9 C0 6.03 0 3.06 0 0 Z " fill="#DCDBDF" transform="translate(162,99)"/>
<path d="M0 0 C0.99 0 1.98 0 3 0 C3 1.65 3 3.3 3 5 C1.68 5 0.36 5 -1 5 C-0.67 3.35 -0.34 1.7 0 0 Z " fill="#C1B7FF" transform="translate(194,410)"/>
<path d="M0 0 C1.485 0.99 1.485 0.99 3 2 C2.67 3.32 2.34 4.64 2 6 C1.01 6 0.02 6 -1 6 C-1.042721 4.33388095 -1.04063832 2.66617115 -1 1 C-0.67 0.67 -0.34 0.34 0 0 Z " fill="#9180FF" transform="translate(209,394)"/>
<path d="M0 0 C0.99 0.33 1.98 0.66 3 1 C3 2.65 3 4.3 3 6 C0 5 0 5 -1.1875 2.9375 C-1.5896875 1.9784375 -1.5896875 1.9784375 -2 1 C-1.34 0.67 -0.68 0.34 0 0 Z " fill="#93919C" transform="translate(131,263)"/>
<path d="M0 0 C1.32 0.33 2.64 0.66 4 1 C3.6875 2.9375 3.6875 2.9375 3 5 C2.01 5.33 1.02 5.66 0 6 C0 4.02 0 2.04 0 0 Z " fill="#9C9AA4" transform="translate(159,180)"/>
<path d="M0 0 C1.32 0.33 2.64 0.66 4 1 C3.67 2.65 3.34 4.3 3 6 C2.01 5.67 1.02 5.34 0 5 C0 3.35 0 1.7 0 0 Z " fill="#A09EA8" transform="translate(250,152)"/>
<path d="M0 0 C0.99 0.33 1.98 0.66 3 1 C2.67 2.65 2.34 4.3 2 6 C1.01 6 0.02 6 -1 6 C-1.042721 4.33388095 -1.04063832 2.66617115 -1 1 C-0.67 0.67 -0.34 0.34 0 0 Z " fill="#A3A2AB" transform="translate(192,152)"/>
<path d="M0 0 C0.66 0 1.32 0 2 0 C2 1.65 2 3.3 2 5 C0.68 5.33 -0.64 5.66 -2 6 C-2.33 4.35 -2.66 2.7 -3 1 C-2.67 1.99 -2.34 2.98 -2 4 C-1.34 4 -0.68 4 0 4 C0 2.68 0 1.36 0 0 Z " fill="#74717F" transform="translate(231,129)"/>
<path d="M0 0 C0.99 0.33 1.98 0.66 3 1 C3 2.65 3 4.3 3 6 C1.68 6 0.36 6 -1 6 C-1.042721 4.33388095 -1.04063832 2.66617115 -1 1 C-0.67 0.67 -0.34 0.34 0 0 Z " fill="#757581" transform="translate(195,449)"/>
<path d="M0 0 C0.66 0 1.32 0 2 0 C2.33 1.65 2.66 3.3 3 5 C1.68 5 0.36 5 -1 5 C-0.67 3.35 -0.34 1.7 0 0 Z " fill="#676572" transform="translate(140,449)"/>
<path d="M0 0 C1.2065625 0.0309375 1.2065625 0.0309375 2.4375 0.0625 C0.7875 1.7125 -0.8625 3.3625 -2.5625 5.0625 C-3.125 3.125 -3.125 3.125 -3.5625 1.0625 C-2.5625 0.0625 -2.5625 0.0625 0 0 Z " fill="#11B7AA" transform="translate(143.5625,359.9375)"/>
<path d="M0 0 C0.99 0.33 1.98 0.66 3 1 C3.6875 3.0625 3.6875 3.0625 4 5 C2.68 5.33 1.36 5.66 0 6 C0 4.02 0 2.04 0 0 Z " fill="#FFD29C" transform="translate(130,208)"/>
<path d="M0 0 C0.99 0.33 1.98 0.66 3 1 C3.6875 3.0625 3.6875 3.0625 4 5 C2.68 5.33 1.36 5.66 0 6 C0 4.02 0 2.04 0 0 Z " fill="#8B8995" transform="translate(224,208)"/>
<path d="M0 0 C0.99 0 1.98 0 3 0 C3 1.98 3 3.96 3 6 C2.01 6 1.02 6 0 6 C0 4.02 0 2.04 0 0 Z " fill="#F5F5F6" transform="translate(206,101)"/>
<path d="M0 0 C0.99 0.33 1.98 0.66 3 1 C3 2.32 3 3.64 3 5 C1.68 5 0.36 5 -1 5 C-0.67 3.35 -0.34 1.7 0 0 Z " fill="#ECECEE" transform="translate(150,71)"/>
<path d="M0 0 C2.33944736 0.28730055 4.6739143 0.61936779 7 1 C7 1.99 7 2.98 7 4 C1.25 2.125 1.25 2.125 -1 1 C-0.67 0.67 -0.34 0.34 0 0 Z " fill="#C5DFDF" transform="translate(313,453)"/>
<path d="M0 0 C1.32 0 2.64 0 4 0 C4 1.65 4 3.3 4 5 C2.68 5 1.36 5 0 5 C0 3.35 0 1.7 0 0 Z " fill="#FFDDD0" transform="translate(212,357)"/>
<path d="M0 0 C1.32 0.33 2.64 0.66 4 1 C4 2.65 4 4.3 4 6 C2.68 6 1.36 6 0 6 C0.185625 5.38125 0.37125 4.7625 0.5625 4.125 C1.23686176 1.95839822 1.23686176 1.95839822 0 0 Z " fill="#84818E" transform="translate(208,313)"/>
<path d="M0 0 C0.66 0 1.32 0 2 0 C2 2.64 2 5.28 2 8 C1.34 8 0.68 8 0 8 C-0.38063221 5.6739143 -0.71269945 3.33944736 -1 1 C-0.67 0.67 -0.34 0.34 0 0 Z " fill="#919EFF" transform="translate(91,316)"/>
<path d="M0 0 C0.33 0.66 0.66 1.32 1 2 C1.66 2 2.32 2 3 2 C3 1.34 3 0.68 3 0 C3.66 0 4.32 0 5 0 C5 1.65 5 3.3 5 5 C4.34 5 3.68 5 3 5 C3 4.34 3 3.68 3 3 C2.34 3 1.68 3 1 3 C0.67 3.66 0.34 4.32 0 5 C0 3.35 0 1.7 0 0 Z " fill="#646171" transform="translate(153,313)"/>
<path d="M0 0 C0.66 0 1.32 0 2 0 C2.33 1.98 2.66 3.96 3 6 C2.01 6 1.02 6 0 6 C0 4.02 0 2.04 0 0 Z " fill="#21BFB4" transform="translate(165,235)"/>
<path d="M0 0 C1.32 0 2.64 0 4 0 C4 1.98 4 3.96 4 6 C2.68 6 1.36 6 0 6 C0.66 4.68 1.32 3.36 2 2 C1.34 1.34 0.68 0.68 0 0 Z " fill="#A19FA8" transform="translate(126,236)"/>
<path d="M0 0 C0.99 0.33 1.98 0.66 3 1 C2.67 2.65 2.34 4.3 2 6 C1.01 5.67 0.02 5.34 -1 5 C-0.67 3.35 -0.34 1.7 0 0 Z " fill="#5F5B6C" transform="translate(194,129)"/>
</svg>
