<?xml version="1.0" encoding="UTF-8"?>
<svg version="1.1" xmlns="http://www.w3.org/2000/svg" width="768" height="325">
<path d="M0 0 C4.39871593 3.22488356 8.0363253 6.99877603 11.72265625 10.99609375 C12.65078125 11.84171875 13.57890625 12.68734375 14.53515625 13.55859375 C18.34032142 17.79863494 20.44281778 21.96726481 21.22265625 27.62109375 C20.62040609 31.68628236 19.77687431 34.27067907 16.72265625 36.99609375 C13.91664155 38.63218858 11.04940531 40.01015774 8.10546875 41.3828125 C4.7055126 43.00426965 1.4799616 44.79312457 -1.77734375 46.68359375 C-7.77300957 50.14563772 -13.79268664 53.56219411 -19.83984375 56.93359375 C-20.69707031 57.41852295 -21.55429687 57.90345215 -22.4375 58.40307617 C-23.2521875 58.85529541 -24.066875 59.30751465 -24.90625 59.7734375 C-25.6288501 60.17812256 -26.3514502 60.58280762 -27.09594727 60.99975586 C-31.16980918 62.86046436 -33.52543608 63.23353828 -37.83984375 61.87109375 C-41.48569483 59.8824477 -43.17561687 58.55286231 -45.27734375 54.99609375 C-46.32933689 51.13878556 -46.50168072 48.78127314 -45.40234375 44.93359375 C-40.52414671 38.19020373 -32.21161523 34.76139989 -25.08984375 30.74609375 C-24.31761475 30.30942383 -23.54538574 29.87275391 -22.74975586 29.42285156 C-18.67165527 27.16383259 -14.78563305 25.29033948 -10.27734375 23.99609375 C-10.27734375 23.33609375 -10.27734375 22.67609375 -10.27734375 21.99609375 C-11.00824219 21.70992187 -11.73914063 21.42375 -12.4921875 21.12890625 C-14.19030912 20.43822565 -15.87526977 19.71215661 -17.53125 18.92578125 C-26.19447963 14.96796061 -34.18403148 14.68727024 -43.21484375 17.74609375 C-47.1198673 19.32160758 -50.13172075 21.15488588 -53.27734375 23.99609375 C-53.93734375 23.99609375 -54.59734375 23.99609375 -55.27734375 23.99609375 C-55.54289062 24.5478125 -55.8084375 25.09953125 -56.08203125 25.66796875 C-57.27734375 27.99609375 -57.27734375 27.99609375 -58.78515625 30.44921875 C-64.44227765 40.23303258 -64.91272459 50.06701439 -62.27734375 60.99609375 C-61.94734375 61.98609375 -61.61734375 62.97609375 -61.27734375 63.99609375 C-60.61734375 63.99609375 -59.95734375 63.99609375 -59.27734375 63.99609375 C-57.49428851 66.63501551 -56.28674754 68.96788238 -55.27734375 71.99609375 C-54.61734375 71.99609375 -53.95734375 71.99609375 -53.27734375 71.99609375 C-53.27734375 72.65609375 -53.27734375 73.31609375 -53.27734375 73.99609375 C-52.54515625 74.28226562 -51.81296875 74.5684375 -51.05859375 74.86328125 C-49.37185295 75.55029646 -47.69899013 76.27508828 -46.05859375 77.06640625 C-37.57898352 80.98677399 -28.81397903 81.60626149 -19.96484375 78.37109375 C-11.6399787 74.49154499 -6.97406302 69.81753551 -1.9296875 62.2109375 C1.00112716 58.28239871 4.01606304 57.24497193 8.72265625 56.55859375 C12.66931054 57.1341475 14.68309062 58.42934944 17.72265625 60.99609375 C20.05018364 64.37476254 20.76791759 66.18331567 20.5390625 70.29296875 C18.40435772 79.97574451 9.73578199 89.44666877 1.72265625 94.99609375 C-13.20611579 103.95335698 -28.4913862 107.40388916 -45.52734375 103.24609375 C-60.51020713 99.2967969 -72.86343299 90.44839277 -81.0703125 77.07421875 C-88.6527442 62.62079339 -90.79326829 47.38407617 -86.65234375 31.49609375 C-81.93843446 17.23939247 -72.02744231 4.82045055 -58.75390625 -2.37109375 C-39.33668697 -11.77370137 -18.55210535 -11.61067159 0 0 Z " fill="#5568FA" transform="translate(369.27734375,88.00390625)"/>
<path d="M0 0 C0.59425781 0.40605469 1.18851562 0.81210938 1.80078125 1.23046875 C8.77328165 6.5023593 13.48998739 14.74274904 15.5 23.1875 C15.665 24.445625 15.83 25.70375 16 27 C13.19505794 29.80494206 5.62849585 28.67204759 1.87304688 28.74316406 C-5.27506093 28.59393936 -5.27506093 28.59393936 -8.55078125 25.91015625 C-9.96143779 23.320784 -10.99726853 20.7684108 -12 18 C-16.87029077 13.00154368 -22.98442585 10.87619961 -29.875 10.5625 C-34.71886578 10.68997015 -38.59104297 12.13009553 -42.96875 14.125 C-45 15 -45 15 -47 15 C-47 15.66 -47 16.32 -47 17 C-47.556875 17.495 -48.11375 17.99 -48.6875 18.5 C-57.64922537 28.18835175 -57.5551428 40.42323177 -57.140625 52.83544922 C-56.55589554 61.83581616 -53.35628093 68.9913102 -46.8125 75.1875 C-41.19831059 79.74828073 -34.5963436 81.64645315 -27.39453125 81.34375 C-21.08577894 80.43808898 -14.98337242 78.58087229 -10.5 73.875 C-8.38148181 70.95959656 -7.32078652 68.21720343 -6.34375 64.7578125 C-6.08787109 63.86465332 -5.83199219 62.97149414 -5.56835938 62.05126953 C-5.28702148 61.03589111 -5.28702148 61.03589111 -5 60 C-6.0372522 60.00785522 -6.0372522 60.00785522 -7.09545898 60.01586914 C-10.20946352 60.036575 -13.32345361 60.04963963 -16.4375 60.0625 C-17.52611328 60.07087891 -18.61472656 60.07925781 -19.73632812 60.08789062 C-20.77080078 60.09111328 -21.80527344 60.09433594 -22.87109375 60.09765625 C-23.82943115 60.10289307 -24.78776855 60.10812988 -25.77514648 60.11352539 C-28 60 -28 60 -29 59 C-29.09968672 56.89778307 -29.12968203 54.79207396 -29.125 52.6875 C-29.12757813 51.53636719 -29.13015625 50.38523438 -29.1328125 49.19921875 C-29 46 -29 46 -28 42 C-13.48 42 1.04 42 16 42 C17.97707725 57.81661797 16.83825951 72.93778652 7 86 C-0.27930498 94.14866938 -10.04683959 100.27156982 -21.17553711 101.17700195 C-38.67060141 101.63285798 -52.17105347 100.10856642 -65.625 87.875 C-77.03863644 75.69339266 -80.65449094 59.94770736 -80.47509766 43.67919922 C-79.82129963 27.06694987 -74.16526647 12.52708856 -62 1 C-44.16706105 -13.78674297 -18.47400235 -13.35327675 0 0 Z " fill="#04F7FC" transform="translate(176,93)"/>
<path d="M0 0 C7.23329626 4.72946294 11.87356929 12.6991168 14 21 C15.13182268 32.81213603 15.44554478 44.60539907 8.19921875 54.4453125 C2.13410991 61.77055075 -4.802087 66.40177271 -14.48046875 67.3359375 C-26.41212915 67.46166627 -35.26109489 65.71628895 -44.0546875 57.28515625 C-52.55513157 47.29969484 -52.81252227 35.48876823 -52 23 C-50.68051458 14.25561356 -46.40225454 8.32664888 -40.1875 2.25 C-28.67534022 -5.87623043 -12.47799467 -7.50165156 0 0 Z M-31 17 C-35.21126406 24.44849426 -34.78881732 33.69363244 -32.83203125 41.81640625 C-31.41366959 45.53877324 -29.01325459 48.42378233 -26 51 C-21.29870917 52.56709694 -16.55675798 53.23919496 -11.9609375 51.01171875 C-6.75224147 47.0774909 -5.03169205 42.3016866 -4 36 C-3.08562116 27.4743832 -4.87639306 19.96810544 -10 13 C-17.65037382 8.30998822 -25.54714032 10.24588971 -31 17 Z " fill="#05F6FB" transform="translate(254,127)"/>
<path d="M0 0 C7.1531364 5.39165742 10.29439358 13.67241029 11.73828125 22.28125 C12.16741163 26.15568433 12.19725264 29.85378841 12.01171875 33.75 C11.01171875 34.75 11.01171875 34.75 9.14512634 34.87025452 C8.3301619 34.86803391 7.51519745 34.86581329 6.67553711 34.86352539 C5.29421852 34.86341209 5.29421852 34.86341209 3.88499451 34.86329651 C2.88396194 34.85813522 1.88292938 34.85297394 0.8515625 34.84765625 C-0.16804062 34.8462413 -1.18764374 34.84482635 -2.23814392 34.84336853 C-5.50905232 34.83775097 -8.77989338 34.8251955 -12.05078125 34.8125 C-14.26236881 34.80748726 -16.47395743 34.80292396 -18.68554688 34.79882812 C-24.11981482 34.78777584 -29.55404322 34.77102063 -34.98828125 34.75 C-34.38049206 36.53012863 -33.76268165 38.30683797 -33.140625 40.08203125 C-32.79765381 41.07178955 -32.45468262 42.06154785 -32.10131836 43.08129883 C-31.07926988 45.95114352 -31.07926988 45.95114352 -28.55078125 48.4375 C-23.14537457 50.42896562 -17.66892317 50.71691777 -11.98828125 49.75 C-8.64692459 47.58064602 -7.25693417 46.55595875 -5.98828125 42.75 C-3.52954357 42.89058476 -1.0714295 43.03722999 1.38671875 43.1875 C2.08539062 43.22681641 2.7840625 43.26613281 3.50390625 43.30664062 C8.78515625 43.63671875 8.78515625 43.63671875 11.01171875 44.75 C9.33448876 51.79436596 6.73681264 56.25781545 1.01171875 60.75 C-8.09888971 66.21636508 -20.91569127 66.28181095 -31.14453125 64.06640625 C-33.60982494 63.14953005 -35.74525591 62.11906345 -37.98828125 60.75 C-38.62894531 60.36070312 -39.26960938 59.97140625 -39.9296875 59.5703125 C-46.43134778 54.82396007 -50.33469152 46.50388406 -51.98828125 38.75 C-52.58188249 28.84367117 -53.06416467 19.61517139 -47.98828125 10.75 C-47.41078125 9.698125 -46.83328125 8.64625 -46.23828125 7.5625 C-34.60383411 -6.98055893 -16.03109477 -10.07848787 0 0 Z M-30.98828125 12.75 C-33.03534896 15.81454515 -34.98828125 18.99598938 -34.98828125 22.75 C-25.41828125 22.75 -15.84828125 22.75 -5.98828125 22.75 C-4.76509328 20.83216211 -4.76509328 20.83216211 -5.40625 18.91015625 C-7.42514638 13.35047679 -7.42514638 13.35047679 -11.98828125 9.75 C-18.64722896 7.53035076 -25.68009215 7.77185374 -30.98828125 12.75 Z " fill="#5568FA" transform="translate(522.98828125,126.25)"/>
<path d="M0 0 C5.60098952 4.08848602 7.44652535 9.29387787 9.1640625 15.8515625 C9.63800313 19.80102575 9.63549817 23.67138592 9.5546875 27.64453125 C9.54902771 28.71657303 9.54336792 29.78861481 9.53753662 30.8931427 C9.51536764 34.27559438 9.46520812 37.65693775 9.4140625 41.0390625 C9.39397233 43.34959394 9.37572601 45.6601422 9.359375 47.97070312 C9.31556678 53.59807521 9.24667597 59.22463177 9.1640625 64.8515625 C3.5540625 64.8515625 -2.0559375 64.8515625 -7.8359375 64.8515625 C-7.85052002 63.58562256 -7.86510254 62.31968262 -7.88012695 61.01538086 C-7.93829872 56.29814046 -8.01553043 51.58136799 -8.09838867 46.86450195 C-8.13154934 44.82681905 -8.15960862 42.78904626 -8.18237305 40.7512207 C-8.21608212 37.81422787 -8.26840624 34.87805227 -8.32421875 31.94140625 C-8.33060867 31.03696274 -8.3369986 30.13251923 -8.34358215 29.20066833 C-8.4876098 22.94043019 -9.30480258 17.86945413 -13.4609375 12.9140625 C-17.23809918 11.22427964 -20.77571538 11.21825229 -24.8359375 11.8515625 C-28.14307033 13.47506407 -30.15022182 14.63495588 -31.97021484 17.86401367 C-33.23272322 22.22084251 -33.19430748 26.44896681 -33.25 30.96484375 C-33.26936615 31.93439499 -33.2887323 32.90394623 -33.3086853 33.90287781 C-33.36831186 36.98985078 -33.4147989 40.07686138 -33.4609375 43.1640625 C-33.49913284 45.26108368 -33.53818548 47.35808944 -33.578125 49.45507812 C-33.67399959 54.58711381 -33.75809327 59.71922293 -33.8359375 64.8515625 C-39.7759375 64.8515625 -45.7159375 64.8515625 -51.8359375 64.8515625 C-51.8359375 42.4115625 -51.8359375 19.9715625 -51.8359375 -3.1484375 C-46.2259375 -3.1484375 -40.6159375 -3.1484375 -34.8359375 -3.1484375 C-34.5059375 -0.8384375 -34.1759375 1.4715625 -33.8359375 3.8515625 C-33.40023437 3.44164062 -32.96453125 3.03171875 -32.515625 2.609375 C-23.03593896 -5.9674838 -10.94869766 -6.84875981 0 0 Z " fill="#5568F9" transform="translate(597.8359375,125.1484375)"/>
<path d="M0 0 C1.33892304 3.94076038 2.6710621 7.88373971 3.99780273 11.82861328 C4.44693469 13.16122357 4.89769844 14.49328536 5.3503418 15.82470703 C8.96059679 26.44974799 12.08429568 37.16441083 15 48 C15.38333496 46.78940918 15.76666992 45.57881836 16.16162109 44.33154297 C17.58873815 39.82505125 19.01644894 35.31874782 20.44433594 30.8125 C21.06135911 28.86495992 21.67822289 26.91736933 22.29492188 24.96972656 C23.18317074 22.16457934 24.0719993 19.35961635 24.9609375 16.5546875 C25.23497406 15.68883026 25.50901062 14.82297302 25.79135132 13.93087769 C26.29977784 12.32733324 26.81182975 10.72493161 27.32830811 9.1239624 C27.9214185 7.24848319 28.46575244 5.35772923 29.00244141 3.46533203 C29.49623291 2.24499268 29.49623291 2.24499268 30 1 C33.56045177 -0.18681726 36.43808337 -0.09689832 40.1875 -0.0625 C41.45980469 -0.05347656 42.73210937 -0.04445313 44.04296875 -0.03515625 C45.50669922 -0.01775391 45.50669922 -0.01775391 47 0 C48.41357727 4.59710036 47.46654078 7.36057574 45.7890625 11.79296875 C45.42364349 12.77632957 45.42364349 12.77632957 45.05084229 13.77955627 C44.25323024 15.91984042 43.43901617 18.05340774 42.625 20.1875 C41.79176403 22.41311308 40.96314599 24.64040839 40.13491821 26.8678894 C39.57473301 28.37403098 39.01318157 29.87966509 38.45028687 31.38479614 C35.40775604 39.53558251 32.581513 47.75654876 29.76806641 55.98901367 C29.42952637 56.97748291 29.09098633 57.96595215 28.7421875 58.984375 C28.4519873 59.83741211 28.16178711 60.69044922 27.86279297 61.56933594 C26.97487735 64.07077563 25.98580229 66.53549427 25 69 C18.73 69 12.46 69 6 69 C1.28639032 58.19915387 -2.61084502 47.13475094 -6.53051758 36.02636719 C-7.69023409 32.74225755 -8.85748352 29.46089204 -10.02539062 26.1796875 C-10.77128593 24.07307686 -11.51674395 21.96631133 -12.26171875 19.859375 C-12.60756516 18.88836853 -12.95341156 17.91736206 -13.30973816 16.91693115 C-15.16078125 11.65242966 -16.74513616 6.43840958 -18 1 C-15.37504621 0.83257698 -12.75004205 0.6660283 -10.125 0.5 C-9.00544922 0.42845703 -9.00544922 0.42845703 -7.86328125 0.35546875 C-2.2265625 0 -2.2265625 0 0 0 Z " fill="#5568F8" transform="translate(418,121)"/>
<path d="M0 0 C0.70253906 0.00386719 1.40507813 0.00773437 2.12890625 0.01171875 C2.83144531 0.00785156 3.53398438 0.00398438 4.2578125 0 C9.50229247 0.01010497 9.50229247 0.01010497 10.62890625 1.13671875 C10.86544148 3.66268134 11.05064317 6.16779082 11.19140625 8.69921875 C11.23458984 9.41013672 11.27777344 10.12105469 11.32226562 10.85351562 C11.42862402 12.61433787 11.52929471 14.37550195 11.62890625 16.13671875 C15.58890625 16.46671875 19.54890625 16.79671875 23.62890625 17.13671875 C23.62890625 21.75671875 23.62890625 26.37671875 23.62890625 31.13671875 C19.33890625 31.13671875 15.04890625 31.13671875 10.62890625 31.13671875 C11.12390625 50.44171875 11.12390625 50.44171875 11.62890625 70.13671875 C14.92890625 70.13671875 18.22890625 70.13671875 21.62890625 70.13671875 C23.77917383 75.4407121 24.7378891 79.36062763 24.62890625 85.13671875 C17.60734939 87.20974982 9.14167456 87.20687758 2.3828125 84.2578125 C-1.82831726 81.56606586 -4.80144092 77.84567724 -6.37109375 73.13671875 C-6.48404121 71.74092602 -6.54698562 70.34071966 -6.57641602 68.94067383 C-6.59636124 68.10002884 -6.61630646 67.25938385 -6.63685608 66.39326477 C-6.65356857 65.4900499 -6.67028107 64.58683502 -6.6875 63.65625 C-6.7082811 62.72826096 -6.72906219 61.80027191 -6.75047302 60.84416199 C-6.81586698 57.87925635 -6.87480637 54.91426203 -6.93359375 51.94921875 C-6.97678862 49.93944395 -7.02040322 47.92967812 -7.06445312 45.91992188 C-7.17153802 40.99227843 -7.2728342 36.06454576 -7.37109375 31.13671875 C-8.67046875 31.15734375 -9.96984375 31.17796875 -11.30859375 31.19921875 C-12.66275008 31.22071329 -14.01865458 31.20820074 -15.37109375 31.13671875 C-16.37109375 30.13671875 -16.37109375 30.13671875 -16.46875 27.1953125 C-16.45714844 26.00035156 -16.44554687 24.80539063 -16.43359375 23.57421875 C-16.42457031 22.37667969 -16.41554688 21.17914063 -16.40625 19.9453125 C-16.39464844 19.01847656 -16.38304687 18.09164062 -16.37109375 17.13671875 C-13.29786831 16.22613344 -10.57012014 16.04785691 -7.37109375 16.13671875 C-7.31050781 15.06550781 -7.24992188 13.99429688 -7.1875 12.890625 C-7.10310838 11.49347484 -7.01845969 10.09634018 -6.93359375 8.69921875 C-6.87461914 7.63864258 -6.87461914 7.63864258 -6.81445312 6.55664062 C-6.42708122 0.32889225 -6.26873538 0.01207849 0 0 Z " fill="#5668FA" transform="translate(632.37109375,104.86328125)"/>
<path d="M0 0 C2.81413328 0.38625359 4.55210355 0.65695122 7 2 C9.09799117 4.80971476 10.5606176 7.81194643 12 11 C12.495 11.99 12.495 11.99 13 13 C13.42241934 17.39316118 13.37740377 20.90590549 10.6328125 24.54296875 C7.63355268 27.21934175 4.00065629 28.6998446 0.3828125 30.38671875 C-3.01714365 32.0081759 -6.24269465 33.79703082 -9.5 35.6875 C-15.49566582 39.14954397 -21.51534289 42.56610036 -27.5625 45.9375 C-28.41972656 46.4224292 -29.27695312 46.9073584 -30.16015625 47.40698242 C-30.97484375 47.85920166 -31.78953125 48.3114209 -32.62890625 48.77734375 C-33.35150635 49.18202881 -34.07410645 49.58671387 -34.81860352 50.00366211 C-38.89246543 51.86437061 -41.24809233 52.23744453 -45.5625 50.875 C-49.20835108 48.88635395 -50.89827312 47.55676856 -53 44 C-54.05199314 40.14269181 -54.22433697 37.78517939 -53.125 33.9375 C-50.05948836 29.69988096 -46.49068537 27.60952981 -42 25 C-41.32855957 24.60699707 -40.65711914 24.21399414 -39.96533203 23.80908203 C-37.65150303 22.46249703 -35.32804981 21.13433648 -33 19.8125 C-32.25290771 19.38420898 -31.50581543 18.95591797 -30.73608398 18.51464844 C-26.18076571 15.97811353 -21.76854157 14.11398609 -16.75 12.68237305 C-14.79278696 12.14461635 -14.79278696 12.14461635 -14 10 C-12.0390625 8.9296875 -12.0390625 8.9296875 -9.625 7.875 C-8.83351563 7.52179688 -8.04203125 7.16859375 -7.2265625 6.8046875 C-5 6 -5 6 -2 6 C-1.855625 5.38125 -1.71125 4.7625 -1.5625 4.125 C-1 2 -1 2 0 0 Z " fill="#04F7FC" transform="translate(377,99)"/>
<path d="M0 0 C3.96 0 7.92 0 12 0 C12.33 2.97 12.66 5.94 13 9 C13.66 9 14.32 9 15 9 C15 8.01 15 7.02 15 6 C15.66 6 16.32 6 17 6 C17.12375 6.969375 17.2475 7.93875 17.375 8.9375 C17.58125 9.948125 17.7875 10.95875 18 12 C18.66 12.33 19.32 12.66 20 13 C18.73046875 14.3671875 17.4609375 15.734375 16.19140625 17.1015625 C13.09537037 22.03491803 13.86789678 28.7031016 13.90234375 34.3359375 C13.90446617 35.65496567 13.90446617 35.65496567 13.90663147 37.00064087 C13.91220123 39.79212942 13.9247481 42.58353594 13.9375 45.375 C13.94251891 47.27473842 13.94708113 49.1744781 13.95117188 51.07421875 C13.96216075 55.71617714 13.97940443 60.35807469 14 65 C11.85423363 65.02685938 9.70837355 65.04633088 7.5625 65.0625 C6.36753906 65.07410156 5.17257812 65.08570313 3.94140625 65.09765625 C1 65 1 65 0 64 C-0.09405142 62.0056827 -0.11743249 60.00800457 -0.11352539 58.01147461 C-0.11344986 56.73022202 -0.11337433 55.44896942 -0.11329651 54.12889099 C-0.10818909 52.72004152 -0.10297309 51.31119244 -0.09765625 49.90234375 C-0.09579202 48.46887766 -0.09436814 47.03541093 -0.09336853 45.60194397 C-0.08954372 41.82240043 -0.07971377 38.0428951 -0.06866455 34.2633667 C-0.05844963 30.40930702 -0.05387074 26.55524118 -0.04882812 22.70117188 C-0.03809145 15.13409512 -0.02049497 7.56705777 0 0 Z " fill="#5669FA" transform="translate(549,123)"/>
<path d="M0 0 C14.52 0 29.04 0 44 0 C39 5 39 5 36 7 C35.34 7 34.68 7 34 7 C34 7.66 34 8.32 34 9 C32.34151823 10.01351664 30.67334039 11.01120795 29 12 C25.74056592 14.5351154 25.07779155 15.61104227 24.25 19.75 C24.1675 20.8225 24.085 21.895 24 23 C23.67 23 23.34 23 23 23 C23 21.35 23 19.7 23 18 C22.30849854 18.00523682 21.61699707 18.01047363 20.90454102 18.01586914 C17.79053648 18.036575 14.67654639 18.04963963 11.5625 18.0625 C10.47388672 18.07087891 9.38527344 18.07925781 8.26367188 18.08789062 C7.22919922 18.09111328 6.19472656 18.09433594 5.12890625 18.09765625 C4.17056885 18.10289307 3.21223145 18.10812988 2.22485352 18.11352539 C0 18 0 18 -1 17 C-1.09968672 14.89778307 -1.12968203 12.79207396 -1.125 10.6875 C-1.12757813 9.53636719 -1.13015625 8.38523438 -1.1328125 7.19921875 C-1 4 -1 4 0 0 Z " fill="#526AFB" transform="translate(148,135)"/>
<path d="M0 0 C0 0.33 0 0.66 0 1 C-6.625 1.125 -6.625 1.125 -10 0 C-12.73289293 -0.22797562 -15.45042204 -0.41668187 -18.1875 -0.5625 C-18.93708984 -0.60568359 -19.68667969 -0.64886719 -20.45898438 -0.69335938 C-22.30578375 -0.79922685 -24.15286834 -0.9000976 -26 -1 C-26 -0.34 -26 0.32 -26 1 C-27.0725 1.4125 -28.145 1.825 -29.25 2.25 C-32.54509777 3.6412635 -34.55176356 5.37041272 -37 8 C-37.66 8 -38.32 8 -39 8 C-39 8.66 -39 9.32 -39 10 C-39.66 10 -40.32 10 -41 10 C-41.1340625 10.58007812 -41.268125 11.16015625 -41.40625 11.7578125 C-42.14360271 14.54228917 -43.20163527 17.13803912 -44.28125 19.8046875 C-47.16577172 28.61502014 -46.82419745 40.5920616 -43.25 49.1875 C-39.88838773 55.51453452 -34.43996021 59.97217061 -28 63 C-23.11953113 64.13221252 -18.29555847 64.18320055 -13.3125 64.1875 C-12.55388672 64.19974609 -11.79527344 64.21199219 -11.01367188 64.22460938 C-7.14408349 64.23485542 -5.29307278 64.19538185 -2 62 C-0.6078125 61.5978125 -0.6078125 61.5978125 0.8125 61.1875 C4.90037864 59.66456482 6.93865113 58.13254303 10 55 C10.77693395 52.16974061 11 49.90567855 11 47 C3.40483221 47.01423565 3.40483221 47.01423565 -3.0625 50.5 C-3.701875 51.325 -4.34125 52.15 -5 53 C-8.37236503 54.68618252 -12.10761976 54.35296693 -15.8125 54.4375 C-16.62009766 54.48326172 -17.42769531 54.52902344 -18.25976562 54.57617188 C-24.11889983 54.6865405 -24.11889983 54.6865405 -26.61865234 52.73876953 C-27.94921875 51.16015625 -27.94921875 51.16015625 -30 48 C-30.66 47.01 -31.32 46.02 -32 45 C-32 41.7 -32 38.4 -32 35 C-16.82 35 -1.64 35 14 35 C14 30.05 14 25.1 14 20 C14.33 20 14.66 20 15 20 C15.90654677 25.32596226 16.39446773 30.59347171 16 36 C15 37 15 37 13.13340759 37.12025452 C12.31844315 37.11803391 11.5034787 37.11581329 10.66381836 37.11352539 C9.28249977 37.11341209 9.28249977 37.11341209 7.87327576 37.11329651 C6.87224319 37.10813522 5.87121063 37.10297394 4.83984375 37.09765625 C3.82024063 37.0962413 2.80063751 37.09482635 1.75013733 37.09336853 C-1.52077107 37.08775097 -4.79161213 37.0751955 -8.0625 37.0625 C-10.27408756 37.05748726 -12.48567618 37.05292396 -14.69726562 37.04882812 C-20.13153357 37.03777584 -25.56576197 37.02102063 -31 37 C-30.39221081 38.78012863 -29.7744004 40.55683797 -29.15234375 42.33203125 C-28.80937256 43.32178955 -28.46640137 44.31154785 -28.11303711 45.33129883 C-27.09098863 48.20114352 -27.09098863 48.20114352 -24.5625 50.6875 C-19.15709332 52.67896562 -13.68064192 52.96691777 -8 52 C-4.65864334 49.83064602 -3.26865292 48.80595875 -2 45 C0.45873768 45.14058476 2.91685175 45.28722999 5.375 45.4375 C6.07367187 45.47681641 6.77234375 45.51613281 7.4921875 45.55664062 C12.7734375 45.88671875 12.7734375 45.88671875 15 47 C13.32277001 54.04436596 10.72509389 58.50781545 5 63 C-4.11060846 68.46636508 -16.92741002 68.53181095 -27.15625 66.31640625 C-29.62154369 65.39953005 -31.75697466 64.36906345 -34 63 C-34.64066406 62.61070312 -35.28132813 62.22140625 -35.94140625 61.8203125 C-42.44306653 57.07396007 -46.34641027 48.75388406 -48 41 C-48.59360124 31.09367117 -49.07588342 21.86517139 -44 13 C-43.4225 11.948125 -42.845 10.89625 -42.25 9.8125 C-31.78975937 -3.26280078 -15.55497258 -7.61876208 0 0 Z " fill="#5661C7" transform="translate(519,124)"/>
<path d="M0 0 C0.99 0 1.98 0 3 0 C3.33 0.99 3.66 1.98 4 3 C3.34 3.66 2.68 4.32 2 5 C1.35232207 7.57061311 1.35232207 7.57061311 1 10 C5.455 10.99 5.455 10.99 10 12 C12.82038192 21.53662213 12.10457888 31.25362396 11.88354492 41.08813477 C11.83510519 43.41682108 11.80536626 45.74521026 11.77734375 48.07421875 C11.75558578 48.78059982 11.73382782 49.4869809 11.71141052 50.21476746 C11.65355549 56.02647324 13.15579072 59.92526456 17 64.25 C23.28240899 67.91473858 30.84369207 68.31805813 38 68 C37.67 64.37 37.34 60.74 37 57 C34.75390625 57.09765625 32.5078125 57.1953125 30.26171875 57.29296875 C27.48372541 56.93312505 26.70572785 56.16758647 25 54 C23.40080541 50.80161082 23.83698241 47.32946642 23.83203125 43.81640625 C23.82870285 43.0050975 23.82537445 42.19378876 23.82194519 41.3578949 C23.8168787 39.64053922 23.81453678 37.92317369 23.81469727 36.20581055 C23.81251163 33.57649536 23.79435564 30.94760024 23.77539062 28.31835938 C23.7724565 26.6510431 23.77047183 24.98372484 23.76953125 23.31640625 C23.76234573 22.52883438 23.75516022 21.74126251 23.74775696 20.92982483 C23.76386283 17.0869531 23.81733718 15.27399423 26 12 C28.8203125 11.70703125 28.8203125 11.70703125 32.125 11.8125 C33.76855469 11.85310547 33.76855469 11.85310547 35.4453125 11.89453125 C36.70988281 11.94673828 36.70988281 11.94673828 38 12 C38 8.7 38 5.4 38 2 C34.37 2 30.74 2 27 2 C27 1.67 27 1.34 27 1 C30.96 1 34.92 1 39 1 C39 5.62 39 10.24 39 15 C34.71 15 30.42 15 26 15 C26.33 27.87 26.66 40.74 27 54 C30.3 54 33.6 54 37 54 C39.15026758 59.30399335 40.10898285 63.22390888 40 69 C32.97844314 71.07303107 24.51276831 71.07015883 17.75390625 68.12109375 C13.54277649 65.42934711 10.56965283 61.70895849 9 57 C8.88705254 55.60420727 8.82410813 54.20400091 8.79467773 52.80395508 C8.77473251 51.96331009 8.75478729 51.1226651 8.73423767 50.25654602 C8.71752518 49.35333115 8.70081268 48.45011627 8.68359375 47.51953125 C8.66281265 46.59154221 8.64203156 45.66355316 8.62062073 44.70744324 C8.55522677 41.7425376 8.49628738 38.77754328 8.4375 35.8125 C8.39430513 33.8027252 8.35069053 31.79295937 8.30664062 29.78320312 C8.19955573 24.85555968 8.09825955 19.92782701 8 15 C6.700625 15.020625 5.40125 15.04125 4.0625 15.0625 C2.70834367 15.08399454 1.35243917 15.07148199 0 15 C-1 14 -1 14 -1.1328125 11.09375 C-1.13023437 9.9078125 -1.12765625 8.721875 -1.125 7.5 C-1.12757813 6.3140625 -1.13015625 5.128125 -1.1328125 3.90625 C-1 1 -1 1 0 0 Z " fill="#5565CD" transform="translate(617,121)"/>
<path d="M0 0 C5.61 0 11.22 0 17 0 C17 3.3 17 6.6 17 10 C16.01 10.495 16.01 10.495 15 11 C15 7.7 15 4.4 15 1 C11.04 1 7.08 1 3 1 C3.33 22.12 3.66 43.24 4 65 C8.29 65.33 12.58 65.66 17 66 C16.94875977 64.73406006 16.89751953 63.46812012 16.84472656 62.16381836 C16.6594511 57.44748132 16.50211995 52.73054747 16.35302734 48.01293945 C16.28475332 45.97491128 16.20899748 43.93711898 16.12548828 41.8996582 C16.00645888 38.96336068 15.91475479 36.02725432 15.828125 33.08984375 C15.78560608 32.18540024 15.74308716 31.28095673 15.69927979 30.34910583 C15.53407084 23.3550284 17.24280933 19.75980545 21.375 14.125 C26.15152203 10.81817705 32.59513712 12.02712468 38 13 C38.66 13.33 39.32 13.66 40 14 C39.67 14.99 39.34 15.98 39 17 C38.01 16.34 37.02 15.68 36 15 C31.34462779 14.2374057 27.80250726 14.60604189 23.5625 16.6875 C20.34628563 19.58993736 19.21343715 21.79355187 18.79241943 26.14590454 C18.67228587 28.80278064 18.61873468 31.45389356 18.5859375 34.11328125 C18.56657135 35.08283249 18.5472052 36.05238373 18.5272522 37.05131531 C18.46762564 40.13828828 18.4211386 43.22529888 18.375 46.3125 C18.33680466 48.40952118 18.29775202 50.50652694 18.2578125 52.60351562 C18.16193791 57.73555131 18.07784423 62.86766043 18 68 C12.06 68 6.12 68 0 68 C0 45.56 0 23.12 0 0 Z " fill="#5B67C1" transform="translate(546,122)"/>
<path d="M0 0 C1.32 0 2.64 0 4 0 C6.4049653 14.04718369 4.59225255 28.44475399 -3.15234375 40.546875 C-10.24895485 49.96901405 -19.51200101 55.50203275 -31 58 C-46.51547691 59.26234101 -61.62142005 58.49991813 -74 48 C-75.85810565 46.07631415 -77.40680213 44.15852615 -79 42 C-78.05125 42.33 -77.1025 42.66 -76.125 43 C-73.22937548 44.10159191 -73.22937548 44.10159191 -71 44 C-70.67 44.99 -70.34 45.98 -70 47 C-66.11012558 48.67667001 -62.32317261 49.90843443 -58.25 51.0625 C-55 52 -55 52 -53.05688477 53.04199219 C-50.79716261 54.09447287 -49.31733851 54.25769792 -46.83984375 54.265625 C-45.65672607 54.27154663 -45.65672607 54.27154663 -44.44970703 54.27758789 C-43.62067871 54.26848389 -42.79165039 54.25937988 -41.9375 54.25 C-41.08784668 54.24540771 -40.23819336 54.24081543 -39.36279297 54.23608398 C-33.06907741 54.14552261 -27.12756865 53.4727665 -21 52 C-19.33432762 51.6617332 -17.66790174 51.32709734 -16 51 C-16 50.01 -16 49.02 -16 48 C-15.38125 47.9175 -14.7625 47.835 -14.125 47.75 C-11.81562433 47.18741541 -11.81562433 47.18741541 -10.75 44.9375 C-10.37875 43.9784375 -10.37875 43.9784375 -10 43 C-9.01 43 -8.02 43 -7 43 C-7 42.34 -7 41.68 -7 41 C-6.34 41 -5.68 41 -5 41 C-5.061875 40.278125 -5.12375 39.55625 -5.1875 38.8125 C-4.95879896 35.38198441 -3.76712081 33.94520135 -2 31 C1.69552832 22.37710059 1.6896073 13.22615532 2 4 C0.8553125 4.7115625 0.8553125 4.7115625 -0.3125 5.4375 C-3 7 -3 7 -6 8 C-6 7.34 -6 6.68 -6 6 C-4 4.66666667 -2 3.33333333 0 2 C0 1.34 0 0.68 0 0 Z " fill="#29E8F0" transform="translate(188,136)"/>
<path d="M0 0 C14.52 0 29.04 0 44 0 C39 5 39 5 36 7 C35.34 7 34.68 7 34 7 C34 7.66 34 8.32 34 9 C32.34151823 10.01351664 30.67334039 11.01120795 29 12 C25.74056592 14.5351154 25.07779155 15.61104227 24.25 19.75 C24.1675 20.8225 24.085 21.895 24 23 C23.67 23 23.34 23 23 23 C23 21.35 23 19.7 23 18 C22.30849854 18.00523682 21.61699707 18.01047363 20.90454102 18.01586914 C17.79053648 18.036575 14.67654639 18.04963963 11.5625 18.0625 C10.47388672 18.07087891 9.38527344 18.07925781 8.26367188 18.08789062 C7.22919922 18.09111328 6.19472656 18.09433594 5.12890625 18.09765625 C4.17056885 18.10289307 3.21223145 18.10812988 2.22485352 18.11352539 C0 18 0 18 -1 17 C-1.09968672 14.89778307 -1.12968203 12.79207396 -1.125 10.6875 C-1.12757813 9.53636719 -1.13015625 8.38523438 -1.1328125 7.19921875 C-1 4 -1 4 0 0 Z M1 4 C1.06404298 6.10860357 1.06404298 6.10860357 1.375 8.5 C1.46523437 9.3146875 1.55546875 10.129375 1.6484375 10.96875 C1.79725288 12.98930522 1.79725288 12.98930522 3 14 C4.47754616 14.07228699 5.95833998 14.0837999 7.4375 14.0625 C8.64212891 14.04896484 8.64212891 14.04896484 9.87109375 14.03515625 C10.92490234 14.01775391 10.92490234 14.01775391 12 14 C14 14 14 14 16.06640625 14.24609375 C21.59200657 14.66980958 24.55900152 14.07965452 28.9375 10.5625 C29.64777344 9.92441406 30.35804688 9.28632813 31.08984375 8.62890625 C33 7 33 7 36 6 C36 5.01 36 4.02 36 3 C31.17619198 2.9753481 26.35242033 2.95716307 21.52856445 2.94506836 C19.88630536 2.94002826 18.24405077 2.93319622 16.60180664 2.92456055 C14.24624521 2.91248074 11.89074291 2.90676861 9.53515625 2.90234375 C8.79660904 2.89718246 8.05806183 2.89202118 7.2971344 2.88670349 C3.86033506 2.57374281 3.86033506 2.57374281 1 4 Z " fill="#4C8CDF" transform="translate(148,135)"/>
<path d="M0 0 C0.66 0 1.32 0 2 0 C2.04898437 1.0621875 2.09796875 2.124375 2.1484375 3.21875 C2.68360215 13.74501287 2.68360215 13.74501287 5 24 C5.66 24 6.32 24 7 24 C8.78305524 26.63892176 9.99059621 28.97178863 11 32 C11.66 32 12.32 32 13 32 C13 32.66 13 33.32 13 34 C14.09828125 34.42925781 14.09828125 34.42925781 15.21875 34.8671875 C16.9054908 35.55420271 18.57835362 36.27899453 20.21875 37.0703125 C28.69836023 40.99068024 37.46336472 41.61016774 46.3125 38.375 C54.63736505 34.49545124 59.30328073 29.82144176 64.34765625 22.21484375 C66.54333847 19.27169525 68.49131782 18.04513937 72 17 C75.25 16.6875 75.25 16.6875 78 17 C78.99 17.99 78.99 17.99 80 19 C79.15695312 19.02578125 78.31390625 19.0515625 77.4453125 19.078125 C76.34960938 19.13484375 75.25390625 19.1915625 74.125 19.25 C73.03445313 19.29640625 71.94390625 19.3428125 70.8203125 19.390625 C67.89568588 19.68537272 67.89568588 19.68537272 66.6875 21.90625 C66.460625 22.5971875 66.23375 23.288125 66 24 C65.33333333 25.33333333 64.66666667 26.66666667 64 28 C63.34 28 62.68 28 62 28 C61.731875 28.53625 61.46375 29.0725 61.1875 29.625 C60.795625 30.40875 60.40375 31.1925 60 32 C59.62875 33.051875 59.2575 34.10375 58.875 35.1875 C57 38 57 38 55.02734375 38.60546875 C52.8125 38.875 52.8125 38.875 49 39 C49 39.99 49 40.98 49 42 C43.68255787 44.22350092 39.19422837 44.1920324 33.5625 43.875 C32.33176758 43.84019531 32.33176758 43.84019531 31.07617188 43.8046875 C25.27835102 43.5085498 21.81720874 42.24303488 17 39 C16.19691406 38.46117187 15.39382813 37.92234375 14.56640625 37.3671875 C13.90511719 36.87476563 13.24382812 36.38234375 12.5625 35.875 C11.88316406 35.37742188 11.20382812 34.87984375 10.50390625 34.3671875 C10.00761719 33.91601562 9.51132812 33.46484375 9 33 C9 32.34 9 31.68 9 31 C8.34 31 7.68 31 7 31 C1.16588656 25.3117394 0.03611644 19.84975803 -0.11328125 11.86328125 C-0.14262334 7.90691711 -0.08735816 3.95538345 0 0 Z " fill="#5B69D2" transform="translate(303,128)"/>
<path d="M0 0 C5.60098952 4.08848602 7.44652535 9.29387787 9.1640625 15.8515625 C9.63800313 19.80102575 9.63549817 23.67138592 9.5546875 27.64453125 C9.54902771 28.71657303 9.54336792 29.78861481 9.53753662 30.8931427 C9.51536764 34.27559438 9.46520812 37.65693775 9.4140625 41.0390625 C9.39397233 43.34959394 9.37572601 45.6601422 9.359375 47.97070312 C9.31556678 53.59807521 9.24667597 59.22463177 9.1640625 64.8515625 C3.5540625 64.8515625 -2.0559375 64.8515625 -7.8359375 64.8515625 C-7.8359375 50.9915625 -7.8359375 37.1315625 -7.8359375 22.8515625 C-7.5059375 22.8515625 -7.1759375 22.8515625 -6.8359375 22.8515625 C-6.8359375 36.0515625 -6.8359375 49.2515625 -6.8359375 62.8515625 C-2.2159375 62.8515625 2.4040625 62.8515625 7.1640625 62.8515625 C7.11984368 55.85850788 7.04993772 48.8663504 6.95654297 41.8737793 C6.92837203 39.4965734 6.9071383 37.11927452 6.89306641 34.74194336 C6.87158401 31.31836471 6.82490377 27.89589961 6.7734375 24.47265625 C6.77220886 23.41509628 6.77098022 22.35753632 6.76971436 21.26792908 C6.64365382 14.87170917 5.75245829 11.15333243 2.1640625 5.8515625 C2.1640625 5.1915625 2.1640625 4.5315625 2.1640625 3.8515625 C1.1740625 3.8515625 0.1840625 3.8515625 -0.8359375 3.8515625 C-2.19026425 2.53955846 -3.52327232 1.20524846 -4.8359375 -0.1484375 C-8.40034168 -1.33657223 -11.39068532 -1.39031703 -15.1484375 -1.4609375 C-16.44394531 -1.49832031 -17.73945312 -1.53570312 -19.07421875 -1.57421875 C-23.41375465 -1.08303556 -25.42525899 0.19881255 -28.8359375 2.8515625 C-29.8259375 3.5115625 -30.8159375 4.1715625 -31.8359375 4.8515625 C-31.8359375 3.8615625 -31.8359375 2.8715625 -31.8359375 1.8515625 C-23.0579226 -6.66827549 -9.92577834 -6.20889113 0 0 Z " fill="#555FC2" transform="translate(597.8359375,125.1484375)"/>
<path d="M0 0 C2.78021567 0.18336303 5.55465235 0.3955475 8.33032227 0.63867188 C9.29776367 0.6928125 10.26520508 0.74695313 11.26196289 0.80273438 C13.9468783 1.03377498 16.32796485 1.30837598 18.89282227 2.13867188 C20.95604794 4.97420807 21.89282227 6.63575124 21.89282227 10.13867188 C22.55282227 10.13867188 23.21282227 10.13867188 23.89282227 10.13867188 C26.07343542 20.49658437 25.35575306 30.21817729 19.95532227 39.45117188 C19.27469727 40.33804688 18.59407227 41.22492188 17.89282227 42.13867188 C17.39782227 43.10804688 16.90282227 44.07742187 16.39282227 45.07617188 C13.23465174 47.68166256 12.02552154 47.35324738 8.01782227 47.07617188 C-0.7370725 45.91241147 -0.7370725 45.91241147 -4.10717773 44.13867188 C-5.41967773 41.57617188 -5.41967773 41.57617188 -6.10717773 39.13867188 C-6.43717773 38.80867188 -6.76717773 38.47867188 -7.10717773 38.13867188 C-7.14798556 36.13908824 -7.1497213 34.13821934 -7.10717773 32.13867188 C-6.44717773 33.12867188 -5.78717773 34.11867187 -5.10717773 35.13867188 C-1.12647076 40.44495841 -1.12647076 40.44495841 4.94360352 42.41210938 C9.19412869 42.60297924 11.46615143 42.37571123 15.26782227 40.26367188 C20.08254987 35.51581549 21.02775065 28.50560856 21.26782227 22.01367188 C21.1178874 17.23824637 19.82274904 13.45940346 17.89282227 9.13867188 C17.58344727 8.16929687 17.27407227 7.19992188 16.95532227 6.20117188 C16.11632476 3.98834576 16.11632476 3.98834576 14.13110352 3.53320312 C9.48118337 2.71358369 4.26260449 1.84254609 -0.02124023 4.18554688 C-1.83260459 5.65191215 -1.83260459 5.65191215 -4.10717773 8.13867188 C-4.76717773 8.79867187 -5.42717773 9.45867187 -6.10717773 10.13867188 C-6.10717773 8.48867187 -6.10717773 6.83867187 -6.10717773 5.13867188 C-5.44717773 4.80867187 -4.78717773 4.47867188 -4.10717773 4.13867188 C-4.10717773 3.47867188 -4.10717773 2.81867188 -4.10717773 2.13867188 C-2.10717773 0.13867188 -2.10717773 0.13867188 0 0 Z " fill="#25E7ED" transform="translate(228.107177734375,135.861328125)"/>
<path d="M0 0 C0.66 0 1.32 0 2 0 C2 1.65 2 3.3 2 5 C2.66 5 3.32 5 4 5 C4.66 8.3 5.32 11.6 6 15 C6.66 15 7.32 15 8 15 C8.6496875 16.60875 8.6496875 16.60875 9.3125 18.25 C10.2793379 20.55199501 11.06009623 22.07122516 12.6875 24 C14.61071627 26.93061527 14.06144416 29.55912691 14 33 C14.63270867 34.34977849 15.30062468 35.68352881 16 37 C16.33 39.31 16.66 41.62 17 44 C22.61 44 28.22 44 34 44 C34.33 41.69 34.66 39.38 35 37 C35.44198328 35.11588841 35.91898569 33.23950224 36.4375 31.375 C36.68371094 30.47523438 36.92992187 29.57546875 37.18359375 28.6484375 C37.99524437 26.01542737 38.84519875 23.50280118 40 21 C40.66 20.67 41.32 20.34 42 20 C42.68472665 18.11235097 42.68472665 18.11235097 43.125 15.9375 C43.29257812 15.20402344 43.46015625 14.47054687 43.6328125 13.71484375 C43.81457031 12.86599609 43.81457031 12.86599609 44 12 C44.66 12 45.32 12 46 12 C46.33 11.34 46.66 10.68 47 10 C45.49163573 18.0359407 42.7718177 25.43096765 39.875 33.0625 C39.40179368 34.32205911 38.92913331 35.58182346 38.45703125 36.84179688 C37.31003754 39.89654543 36.15575349 42.94855491 35 46 C28.73 46 22.46 46 16 46 C12.33556386 37.4317846 9.02743406 28.79644993 5.9230957 20.01489258 C5.17665083 17.90686091 4.42156072 15.80205046 3.66601562 13.69726562 C3.18698155 12.34914244 2.70844666 11.00084176 2.23046875 9.65234375 C1.80145264 8.44570068 1.37243652 7.23905762 0.93041992 5.99584961 C0 3 0 3 0 0 Z " fill="#5861D3" transform="translate(408,144)"/>
<path d="M0 0 C0.33 0.99 0.66 1.98 1 3 C3.00016466 4.20882096 3.00016466 4.20882096 5 5 C5 5.66 5 6.32 5 7 C5.66 7 6.32 7 7 7 C7.33 7.99 7.66 8.98 8 10 C8.66 10.33 9.32 10.66 10 11 C10 11.66 10 12.32 10 13 C10.78375 13.309375 11.5675 13.61875 12.375 13.9375 C15 15 15 15 17 16 C17 16.66 17 17.32 17 18 C17.70125 18.268125 18.4025 18.53625 19.125 18.8125 C22 20 22 20 24.6875 21.5 C34.53294924 25.95831664 45.40105693 25.47082082 56 25 C56.66 24.67 57.32 24.34 58 24 C60.49457129 23.72620559 62.98892067 23.55450855 65.4921875 23.37890625 C68.10270495 22.98448227 69.78111673 22.4168194 72 21 C72.99 19.515 72.99 19.515 74 18 C77.27029809 16.72031814 80.58046607 15.78912322 84 15 C76.08682887 24.60885065 62.98249531 28.0285953 51.07421875 29.31640625 C35.4459106 29.97199157 20.57021764 24.34100396 9 14 C0.44065167 5.321955 0.44065167 5.321955 -1 1 C-0.67 0.67 -0.34 0.34 0 0 Z " fill="#5961C5" transform="translate(290,164)"/>
<path d="M0 0 C0.66 0.33 1.32 0.66 2 1 C1.59007812 1.54269531 1.18015625 2.08539063 0.7578125 2.64453125 C-0.05042969 3.71767578 -0.05042969 3.71767578 -0.875 4.8125 C-1.40867188 5.52019531 -1.94234375 6.22789062 -2.4921875 6.95703125 C-9.20818383 16.05668431 -9.78919652 26.98160238 -9 38 C-8.67 38.66 -8.34 39.32 -8 40 C-7.896875 40.70125 -7.79375 41.4025 -7.6875 42.125 C-6.89766347 45.42795277 -5.54063988 48.05873845 -3.9375 51.03515625 C-2.99448574 53.01155698 -2.45673282 54.86382253 -2 57 C-1.34 57 -0.68 57 0 57 C0.33 57.99 0.66 58.98 1 60 C-4.61731066 57.51285381 -8.32669745 52.94368513 -10.8125 47.375 C-14.3266576 37.3873942 -14.66608285 24.20226604 -11.05078125 14.14453125 C-8.3726041 8.67866042 -4.45530244 4.11258687 0 0 Z " fill="#16EBF1" transform="translate(215,128)"/>
<path d="M0 0 C9.26782961 5.70513147 15.07458218 14.57819902 18 25 C17.5625 27.22265625 17.5625 27.22265625 17 29 C-1.9863551 30.64416877 -1.9863551 30.64416877 -6.5546875 26.9140625 C-7.96035113 24.32308252 -8.99755978 21.76760671 -10 19 C-13.79501211 15.10511915 -17.93710978 13.71623397 -23 12 C-23 11.67 -23 11.34 -23 11 C-14.7755102 10.36734694 -14.7755102 10.36734694 -11.625 12.9375 C-11.08875 13.618125 -10.5525 14.29875 -10 15 C-9.01 15.33 -8.02 15.66 -7 16 C-7 17.32 -7 18.64 -7 20 C-6.34 20 -5.68 20 -5 20 C-4.34 21.98 -3.68 23.96 -3 26 C2.61 26 8.22 26 14 26 C11.93644454 18.77755591 9.90792954 11.95726345 3.75 7.25 C1 5 1 5 0.125 2.1875 C0.08375 1.465625 0.0425 0.74375 0 0 Z " fill="#2EE2E8" transform="translate(174,92)"/>
<path d="M0 0 C5.18626646 4.22584675 7.9232836 10.7698508 10 17 C11.13211011 30.49319098 11.0854884 42.12830333 2.1875 52.875 C-3.54419388 58.90444421 -10.08043876 62.52516019 -18.48046875 63.3359375 C-26.59639387 63.42145831 -33.74284185 62.92976548 -41 59 C-41.33 58.34 -41.66 57.68 -42 57 C-38.35797059 56.73351004 -36.25589104 56.87466561 -32.9375 58.5 C-24.80506356 62.29633648 -14.36630934 60.1151843 -6 58 C-6 57.34 -6 56.68 -6 56 C-4.1875 53.875 -4.1875 53.875 -2 52 C-1.01 52 -0.02 52 1 52 C1.144375 51.38125 1.28875 50.7625 1.4375 50.125 C2 48 2 48 3 46 C3.66 46 4.32 46 5 46 C7.49620416 39.67135484 8.47350747 34.16106995 8.375 27.375 C8.38660156 26.56804687 8.39820313 25.76109375 8.41015625 24.9296875 C8.38373515 19.50455437 7.32355646 15.88069795 5 11 C5 10.01 5 9.02 5 8 C4.34 8 3.68 8 3 8 C0 2.25 0 2.25 0 0 Z " fill="#39D5DF" transform="translate(258,131)"/>
<path d="M0 0 C5.28 0 10.56 0 16 0 C16 3.3 16 6.6 16 10 C15.01 10.495 15.01 10.495 14 11 C14 7.7 14 4.4 14 1 C10.04 1 6.08 1 2 1 C2.33 22.12 2.66 43.24 3 65 C7.29 65.33 11.58 65.66 16 66 C16 66.33 16 66.66 16 67 C10.72 67 5.44 67 0 67 C0 44.89 0 22.78 0 0 Z " fill="#4C5DD8" transform="translate(547,122)"/>
<path d="M0 0 C1.37325823 4.06969795 2.74227562 8.14079238 4.10766602 12.21313477 C4.57106919 13.59339244 5.03555608 14.97328684 5.5012207 16.3527832 C13.57756574 40.28623627 13.57756574 40.28623627 12 45 C8.40585277 37.46275921 5.5738194 30.52361203 6 22 C5.34 22 4.68 22 4 22 C3.80664062 21.18015625 3.61328125 20.3603125 3.4140625 19.515625 C3.15367187 18.43796875 2.89328125 17.3603125 2.625 16.25 C2.36976563 15.18265625 2.11453125 14.1153125 1.8515625 13.015625 C1.12466459 10.44147278 0.2973776 8.32399814 -1 6 C-2.32 6 -3.64 6 -5 6 C-5.66 5.01 -6.32 4.02 -7 3 C-7.99 3.495 -7.99 3.495 -9 4 C-9.33 4.99 -9.66 5.98 -10 7 C-10.66 7 -11.32 7 -12 7 C-12 5.68 -12 4.36 -12 3 C-12.99 2.67 -13.98 2.34 -15 2 C-14.62746094 3.26457031 -14.25492187 4.52914062 -13.87109375 5.83203125 C-13.39278085 7.49205839 -12.91494079 9.15222182 -12.4375 10.8125 C-12.19064453 11.64587891 -11.94378906 12.47925781 -11.68945312 13.33789062 C-11.34624023 14.54155273 -11.34624023 14.54155273 -10.99609375 15.76953125 C-10.78138428 16.50792236 -10.5666748 17.24631348 -10.34545898 18.00708008 C-10 20 -10 20 -11 23 C-12.17171756 19.71010914 -13.33651088 16.41780898 -14.5 13.125 C-14.83386719 12.18785156 -15.16773438 11.25070313 -15.51171875 10.28515625 C-15.82753906 9.38925781 -16.14335937 8.49335938 -16.46875 7.5703125 C-16.76201172 6.74289551 -17.05527344 5.91547852 -17.35742188 5.06298828 C-18 3 -18 3 -18 1 C-15.37504621 0.83257698 -12.75004205 0.6660283 -10.125 0.5 C-9.00544922 0.42845703 -9.00544922 0.42845703 -7.86328125 0.35546875 C-2.2265625 0 -2.2265625 0 0 0 Z " fill="#5861CA" transform="translate(418,121)"/>
<path d="M0 0 C3.63 0 7.26 0 11 0 C11 0.66 11 1.32 11 2 C10.16597656 2.10957031 9.33195312 2.21914062 8.47265625 2.33203125 C1.65182443 3.29304192 -4.5452318 4.59313728 -11 7 C-11 7.66 -11 8.32 -11 9 C-11.556875 9.495 -12.11375 9.99 -12.6875 10.5 C-21.64922537 20.18835175 -21.5551428 32.42323177 -21.140625 44.83544922 C-20.66498934 52.15660512 -18.46276247 58.24159682 -14 64 C-13.34 64.99 -12.68 65.98 -12 67 C-16.70810635 64.88946957 -19.10653901 62.42470284 -21.16015625 57.6875 C-23.63661232 51.17809331 -23.55156012 44.88775939 -23.4375 38 C-23.44458984 36.7934375 -23.45167969 35.586875 -23.45898438 34.34375 C-23.38931537 24.48290688 -21.97954394 15.08046478 -16 7 C-13.43899015 5.35935306 -10.79078454 4.18783964 -8 3 C-7.67 2.67 -7.34 2.34 -7 2 C-4.66702567 1.95907063 -2.33294775 1.95758277 0 2 C0 1.34 0 0.68 0 0 Z " fill="#3BD4DD" transform="translate(140,101)"/>
<path d="M0 0 C1.32 0 2.64 0 4 0 C6.4095514 14.07397065 4.55640158 28.38822668 -3.12890625 40.5390625 C-7.90424018 46.81977309 -13.74634314 51.85609166 -21 55 C-21.99 55 -22.98 55 -24 55 C-24 54.34 -24 53.68 -24 53 C-20.91190305 51.23537317 -19.76687864 51 -16 51 C-16 50.01 -16 49.02 -16 48 C-15.38125 47.9175 -14.7625 47.835 -14.125 47.75 C-11.81562433 47.18741541 -11.81562433 47.18741541 -10.75 44.9375 C-10.37875 43.9784375 -10.37875 43.9784375 -10 43 C-9.01 43 -8.02 43 -7 43 C-7 42.34 -7 41.68 -7 41 C-6.34 41 -5.68 41 -5 41 C-5.061875 40.278125 -5.12375 39.55625 -5.1875 38.8125 C-4.95879896 35.38198441 -3.76712081 33.94520135 -2 31 C1.69552832 22.37710059 1.6896073 13.22615532 2 4 C1.236875 4.474375 0.47375 4.94875 -0.3125 5.4375 C-3 7 -3 7 -6 8 C-6 7.34 -6 6.68 -6 6 C-4 4.66666667 -2 3.33333333 0 2 C0 1.34 0 0.68 0 0 Z " fill="#2EDAE6" transform="translate(188,136)"/>
<path d="M0 0 C0 4.0333534 -1.60879918 5.83517538 -4 9 C-4.66 9 -5.32 9 -6 9 C-6.33 10.98 -6.66 12.96 -7 15 C-7.66 15 -8.32 15 -9 15 C-8.9175 15.86625 -8.835 16.7325 -8.75 17.625 C-9 21 -9 21 -11 23.40625 C-14.38831645 28.23617935 -13.41541421 34.23819282 -13.25 39.875 C-13.23195313 41.0403125 -13.21390625 42.205625 -13.1953125 43.40625 C-13.1483382 46.27168249 -13.08266293 49.13541168 -13 52 C-12.01 52.33 -11.02 52.66 -10 53 C-10.66 53 -11.32 53 -12 53 C-11.18836991 54.95869403 -10.37566899 56.91694436 -9.5625 58.875 C-9.11003906 59.96554688 -8.65757812 61.05609375 -8.19140625 62.1796875 C-7.50456537 63.80558624 -6.78934113 65.42131774 -6 67 C-7.32 67 -8.64 67 -10 67 C-10.81756238 64.93950145 -11.62884734 62.87651147 -12.4375 60.8125 C-12.88996094 59.66394531 -13.34242188 58.51539063 -13.80859375 57.33203125 C-18.37865917 44.55083189 -17.04047858 29.4300691 -12 17 C-8.85732032 10.58222436 -4.80199289 5.25932555 0 0 Z " fill="#5A66C3" transform="translate(297,96)"/>
<path d="M0 0 C2.81413328 0.38625359 4.55210355 0.65695122 7 2 C9.09799117 4.80971476 10.5606176 7.81194643 12 11 C12.33 11.66 12.66 12.32 13 13 C13.42165928 17.38525647 13.37399793 20.88946363 10.65234375 24.53125 C7.57082858 27.2703746 3.83651469 28.82005501 0.12109375 30.5390625 C-3.47630126 32.22294953 -6.85304982 34.17572764 -10.2578125 36.21484375 C-11.12019531 36.60349609 -11.12019531 36.60349609 -12 37 C-12.66 36.67 -13.32 36.34 -14 36 C-13 34 -13 34 -10.625 32.875 C-8 32 -8 32 -5 32 C-5 31.34 -5 30.68 -5 30 C-2 28 -2 28 2 28 C2 27.34 2 26.68 2 26 C5 24 5 24 8 24 C9.42668248 18.94176212 8.46292007 15.86044854 6.703125 11.125 C5.89149205 8.67206485 5.75147349 6.56810731 6 4 C3.36 4.33 0.72 4.66 -2 5 C-1.34 3.35 -0.68 1.7 0 0 Z " fill="#24E5EF" transform="translate(377,99)"/>
<path d="M0 0 C1 3 1 3 0.14453125 5.09375 C-0.29503906 5.8878125 -0.73460938 6.681875 -1.1875 7.5 C-5.68713355 16.12325316 -8.67581311 24.23210798 -9 34 C-9.03996094 35.04800781 -9.07992187 36.09601563 -9.12109375 37.17578125 C-9.29608772 46.26517407 -8.30478714 55.0295884 -7 64 C-12.5540667 58.4459333 -12.34842563 46.71511718 -12.4375 39.125 C-12.34903669 25.05483533 -8.73302031 11.23901744 0 0 Z " fill="#34DFE6" transform="translate(108,100)"/>
<path d="M0 0 C0.66 0.33 1.32 0.66 2 1 C-0.35735884 3.72957339 -2.58133526 4.88893396 -6 6 C-6.99 6 -7.98 6 -9 6 C-9.13535156 6.92425781 -9.13535156 6.92425781 -9.2734375 7.8671875 C-10 10 -10 10 -11.6015625 11.1953125 C-12.26929688 11.50210938 -12.93703125 11.80890625 -13.625 12.125 C-14.34171875 12.45628906 -15.0584375 12.78757812 -15.796875 13.12890625 C-17.81381266 13.92638338 -19.77565396 14.52884271 -21.875 15.0625 C-25.27395488 15.72023396 -25.27395488 15.72023396 -27 19 C-29.27734375 19.7734375 -29.27734375 19.7734375 -31.9375 20.375 C-35.9578458 21.48050708 -35.9578458 21.48050708 -39.0625 24.1875 C-40.27495689 27.82487068 -40.67609789 31.17795509 -41 35 C-43 32 -43 32 -42.875 28.625 C-41.69265255 23.72670341 -39.62050034 21.07705951 -35.42211914 18.28662109 C-33.99307251 17.53759521 -33.99307251 17.53759521 -32.53515625 16.7734375 C-31.48779297 16.2165625 -30.44042969 15.6596875 -29.36132812 15.0859375 C-28.27271484 14.52132812 -27.18410156 13.95671875 -26.0625 13.375 C-23.90713619 12.23776705 -21.75217383 11.09977285 -19.59765625 9.9609375 C-18.64383057 9.46384277 -17.69000488 8.96674805 -16.70727539 8.45458984 C-14.88204267 7.47391201 -13.08609806 6.43694509 -11.32202148 5.35009766 C-8.85189013 3.91388418 -6.7772904 3.54002869 -4 3 C-3.67 2.34 -3.34 1.68 -3 1 C-2.01 0.67 -1.02 0.34 0 0 Z " fill="#38DBE4" transform="translate(366,108)"/>
<path d="M0 0 C0.66 0 1.32 0 2 0 C1.01 3.3 0.02 6.6 -1 10 C-1.66 10 -2.32 10 -3 10 C-3.144375 10.7425 -3.28875 11.485 -3.4375 12.25 C-5.47301231 15.83250167 -7.39946031 16.77053585 -11.1640625 18.28125 C-18.81283197 20.21978111 -27.29607972 19.46741339 -35 18 C-35 17.34 -35 16.68 -35 16 C-36.175625 15.62875 -36.175625 15.62875 -37.375 15.25 C-40.3916501 13.81349995 -40.71565565 12.95279169 -42 10 C-41.32453125 10.34933594 -40.6490625 10.69867188 -39.953125 11.05859375 C-39.06109375 11.51363281 -38.1690625 11.96867188 -37.25 12.4375 C-36.36828125 12.88996094 -35.4865625 13.34242188 -34.578125 13.80859375 C-27.5338186 17.06391716 -20.63007721 16.77035159 -13.3125 14.4375 C-6.9069196 11.90756489 -3.5103991 8.22676172 -0.625 2.0625 C-0.41875 1.381875 -0.2125 0.70125 0 0 Z " fill="#21E8EC" transform="translate(170,158)"/>
<path d="M0 0 C1.05960937 0.00676758 1.05960937 0.00676758 2.140625 0.01367188 C3.88545275 0.02546125 5.630237 0.04339676 7.375 0.0625 C8.61713914 4.33577112 8.06646302 6.77791119 6.4375 10.875 C6.05722656 11.85082031 5.67695313 12.82664063 5.28515625 13.83203125 C4.98480469 14.56808594 4.68445313 15.30414063 4.375 16.0625 C4.045 16.0625 3.715 16.0625 3.375 16.0625 C3.02884002 10.40855369 3.94074762 7.03243194 6.375 2.0625 C4.24749844 2.29023256 2.12291944 2.54540818 0 2.8125 C-1.18335938 2.95171875 -2.36671875 3.0909375 -3.5859375 3.234375 C-6.7338608 3.73861298 -6.7338608 3.73861298 -8.0390625 6.140625 C-8.23242188 6.77484375 -8.42578125 7.4090625 -8.625 8.0625 C-9.285 8.0625 -9.945 8.0625 -10.625 8.0625 C-10.604375 8.990625 -10.58375 9.91875 -10.5625 10.875 C-10.625 14.0625 -10.625 14.0625 -11.625 17.0625 C-11.83898437 17.72765625 -12.05296875 18.3928125 -12.2734375 19.078125 C-13.82983951 23.86447957 -15.57179816 28.46723874 -17.625 33.0625 C-19.12532049 29.15592615 -18.07809408 26.46940013 -16.82421875 22.58203125 C-16.22383789 20.71321289 -16.22383789 20.71321289 -15.61132812 18.80664062 C-15.39806885 18.16186768 -15.18480957 17.51709473 -14.96508789 16.8527832 C-14.31263712 14.87541558 -13.67966674 12.89255768 -13.04882812 10.90820312 C-10.71276775 3.7286364 -10.71276775 3.7286364 -9.625 1.0625 C-6.55966836 -0.47016582 -3.35745728 -0.04026471 0 0 Z " fill="#5460CB" transform="translate(457.625,120.9375)"/>
<path d="M0 0 C0.33 0 0.66 0 1 0 C1.90654677 5.32596226 2.39446773 10.59347171 2 16 C1 17 1 17 -0.86659241 17.12025452 C-1.68155685 17.11803391 -2.4965213 17.11581329 -3.33618164 17.11352539 C-4.71750023 17.11341209 -4.71750023 17.11341209 -6.12672424 17.11329651 C-7.12775681 17.10813522 -8.12878937 17.10297394 -9.16015625 17.09765625 C-10.17975937 17.0962413 -11.19936249 17.09482635 -12.24986267 17.09336853 C-15.52077107 17.08775097 -18.79161213 17.0751955 -22.0625 17.0625 C-24.27408756 17.05748726 -26.48567618 17.05292396 -28.69726562 17.04882812 C-34.13153357 17.03777584 -39.56576197 17.02102063 -45 17 C-45.33 16.34 -45.66 15.68 -46 15 C-30.82 15 -15.64 15 0 15 C0 10.05 0 5.1 0 0 Z " fill="#4B58B6" transform="translate(533,144)"/>
<path d="M0 0 C3.43742918 -0.05802698 6.87473253 -0.09360486 10.3125 -0.125 C11.28896484 -0.14175781 12.26542969 -0.15851563 13.27148438 -0.17578125 C14.67817383 -0.18544922 14.67817383 -0.18544922 16.11328125 -0.1953125 C16.97735596 -0.20578613 17.84143066 -0.21625977 18.73168945 -0.22705078 C21 0 21 0 24 2 C22.97261719 1.95359375 21.94523437 1.9071875 20.88671875 1.859375 C9.91908841 1.51443924 0.54455718 2.28233545 -8 10 C-8.66 10 -9.32 10 -10 10 C-10.26554687 10.53109375 -10.53109375 11.0621875 -10.8046875 11.609375 C-13.203125 16.40625 -15.6015625 21.203125 -18 26 C-19.30597306 21.98368558 -18.57027087 19.75235116 -17.00390625 15.9453125 C-15.47998011 12.992335 -13.5044873 11.17055566 -11 9 C-10.34128906 8.38640625 -9.68257813 7.7728125 -9.00390625 7.140625 C-3.400625 2 -3.400625 2 0 2 C0 1.34 0 0.68 0 0 Z " fill="#5865CA" transform="translate(324,102)"/>
<path d="M0 0 C3.96 0 7.92 0 12 0 C12 4.62 12 9.24 12 14 C7.71 14 3.42 14 -1 14 C-0.67 25.88 -0.34 37.76 0 50 C-0.66 50 -1.32 50 -2 50 C-2.02467917 44.76725612 -2.04285003 39.53454597 -2.05493164 34.30175781 C-2.05996711 32.52082733 -2.06679581 30.739901 -2.07543945 28.95898438 C-2.08753942 26.40233335 -2.09323609 23.84573688 -2.09765625 21.2890625 C-2.10281754 20.49005524 -2.10797882 19.69104797 -2.11329651 18.86782837 C-2.11387171 13.22774341 -2.11387171 13.22774341 -1 11 C2.96 11 6.92 11 11 11 C11 7.7 11 4.4 11 1 C7.37 1 3.74 1 0 1 C0 0.67 0 0.34 0 0 Z " fill="#5964CC" transform="translate(644,122)"/>
<path d="M0 0 C0.66 0 1.32 0 2 0 C2.04898437 1.0621875 2.09796875 2.124375 2.1484375 3.21875 C2.68360215 13.74501287 2.68360215 13.74501287 5 24 C5.66 24 6.32 24 7 24 C8.78305524 26.63892176 9.99059621 28.97178863 11 32 C11.66 32 12.32 32 13 32 C13 32.66 13 33.32 13 34 C13.804375 34.268125 14.60875 34.53625 15.4375 34.8125 C16.7059375 35.4003125 16.7059375 35.4003125 18 36 C18.33 36.99 18.66 37.98 19 39 C15.01328937 37.63312778 12.11505367 35.84804907 9 33 C9 32.34 9 31.68 9 31 C8.34 31 7.68 31 7 31 C1.16588656 25.3117394 0.03611644 19.84975803 -0.11328125 11.86328125 C-0.14262334 7.90691711 -0.08735816 3.95538345 0 0 Z " fill="#505CD7" transform="translate(303,128)"/>
<path d="M0 0 C0.33 0 0.66 0 1 0 C0.835 1.258125 0.67 2.51625 0.5 3.8125 C-0.09401158 9.22649129 -0.16763863 14.55936458 0 20 C0.02835938 20.94101563 0.05671875 21.88203125 0.0859375 22.8515625 C0.16714844 24.19347656 0.16714844 24.19347656 0.25 25.5625 C0.29640625 26.36816406 0.3428125 27.17382812 0.390625 28.00390625 C0.80291689 30.18561632 0.80291689 30.18561632 2.94140625 31.06640625 C3.62074219 31.37449219 4.30007812 31.68257812 5 32 C6.7844844 35.56896879 8.21605182 39.0802591 9 43 C9.66 43 10.32 43 11 43 C11.33 43.99 11.66 44.98 12 46 C6.38268934 43.51285381 2.67330255 38.94368513 0.1875 33.375 C-1.78627659 27.76531916 -2.18229095 22.61019181 -2.1875 16.6875 C-2.19974609 15.96626953 -2.21199219 15.24503906 -2.22460938 14.50195312 C-2.23845487 9.35604523 -1.41468981 4.9486185 0 0 Z " fill="#3DE0E4" transform="translate(204,142)"/>
<path d="M0 0 C0.99 0.33 1.98 0.66 3 1 C-4.39781237 7.04725807 -11.20812076 11.61199245 -21 11 C-21.33 11.33 -21.66 11.66 -22 12 C-25.53430291 12.25391333 -29.08266874 12.18523797 -32.625 12.1875 C-33.61113281 12.19974609 -34.59726562 12.21199219 -35.61328125 12.22460938 C-41.14740766 12.23569241 -45.77431102 11.85167971 -51 10 C-51 9.67 -51 9.34 -51 9 C-45.25 8.875 -45.25 8.875 -43 10 C-41.64842019 10.09465345 -40.29238852 10.13072162 -38.9375 10.1328125 C-38.14085937 10.13410156 -37.34421875 10.13539063 -36.5234375 10.13671875 C-35.69070313 10.13285156 -34.85796875 10.12898437 -34 10.125 C-33.16726563 10.12886719 -32.33453125 10.13273438 -31.4765625 10.13671875 C-30.67992187 10.13542969 -29.88328125 10.13414062 -29.0625 10.1328125 C-27.96615234 10.13112061 -27.96615234 10.13112061 -26.84765625 10.12939453 C-24.90433947 10.11201795 -24.90433947 10.11201795 -23 9 C-20.50542871 8.72620559 -18.01107933 8.55450855 -15.5078125 8.37890625 C-12.89729505 7.98448227 -11.21888327 7.4168194 -9 6 C-8.34 5.01 -7.68 4.02 -7 3 C-5.02111039 2.27306096 -3.02045442 1.60183749 -1 1 C-0.67 0.67 -0.34 0.34 0 0 Z " fill="#5662E8" transform="translate(371,179)"/>
<path d="M0 0 C0.78375 -0.185625 1.5675 -0.37125 2.375 -0.5625 C5.54058196 -1.09009699 6.38348778 -0.79885215 9 1 C14.78524946 6.23427332 14.78524946 6.23427332 16 10 C15.625 12.25 15.625 12.25 15 14 C14.34 14 13.68 14 13 14 C12.62875 12.741875 12.2575 11.48375 11.875 10.1875 C10.67507423 7.04880528 10.14081575 6.10728819 7.375 4 C1.65409369 2.30491665 -3.48454827 1.86673512 -8.875 4.75 C-11.58826106 6.70354796 -13.28371416 8.17317627 -15 11 C-15.23046875 8.703125 -15.23046875 8.703125 -15 6 C-12.05489839 2.69680911 -8.30984812 0.42712439 -4.125 -0.9375 C-2 -1 -2 -1 0 0 Z " fill="#5560CB" transform="translate(504,133)"/>
<path d="M0 0 C0.70253906 0.00386719 1.40507813 0.00773437 2.12890625 0.01171875 C2.83144531 0.00785156 3.53398438 0.00398438 4.2578125 0 C9.50229247 0.01010497 9.50229247 0.01010497 10.62890625 1.13671875 C10.70210246 3.83326729 10.72133162 6.50363333 10.69140625 9.19921875 C10.68689453 9.95783203 10.68238281 10.71644531 10.67773438 11.49804688 C10.66591305 13.37763746 10.64797703 15.25718774 10.62890625 17.13671875 C9.96890625 17.13671875 9.30890625 17.13671875 8.62890625 17.13671875 C8.29890625 12.51671875 7.96890625 7.89671875 7.62890625 3.13671875 C3.33890625 3.13671875 -0.95109375 3.13671875 -5.37109375 3.13671875 C-5.37109375 7.09671875 -5.37109375 11.05671875 -5.37109375 15.13671875 C-5.70109375 15.13671875 -6.03109375 15.13671875 -6.37109375 15.13671875 C-6.39794787 12.82428083 -6.41742216 10.51175605 -6.43359375 8.19921875 C-6.44519531 6.91144531 -6.45679688 5.62367187 -6.46875 4.296875 C-6.30952151 -0.85575889 -4.69374609 0.00904383 0 0 Z " fill="#5361C3" transform="translate(632.37109375,104.86328125)"/>
<path d="M0 0 C0.33 0 0.66 0 1 0 C1.15855469 0.66386719 1.31710937 1.32773438 1.48046875 2.01171875 C2.96833269 7.64258503 4.28172067 11.24957284 9 15 C11.79731805 16.39865903 14.19284559 16.24537267 17.3125 16.3125 C19.00826172 16.36857422 19.00826172 16.36857422 20.73828125 16.42578125 C24.66137449 15.91366489 26.24349882 14.78662687 29 12 C29.33 11.01 29.66 10.02 30 9 C36.93 9.495 36.93 9.495 44 10 C44 10.33 44 10.66 44 11 C43.19175781 11.01417969 42.38351562 11.02835938 41.55078125 11.04296875 C34.57094822 11.06196813 34.57094822 11.06196813 28.875 14.5 C28.25625 15.325 27.6375 16.15 27 17 C23.62763497 18.68618252 19.89238024 18.35296693 16.1875 18.4375 C15.37990234 18.48326172 14.57230469 18.52902344 13.74023438 18.57617188 C7.88110017 18.6865405 7.88110017 18.6865405 5.38134766 16.73876953 C4.05078125 15.16015625 4.05078125 15.16015625 2 12 C1.34 11.01 0.68 10.02 0 9 C-0.1953125 6.73828125 -0.1953125 6.73828125 -0.125 4.3125 C-0.10695313 3.50425781 -0.08890625 2.69601563 -0.0703125 1.86328125 C-0.04710937 1.24839844 -0.02390625 0.63351563 0 0 Z " fill="#5C66BF" transform="translate(487,160)"/>
<path d="M0 0 C3 1 3 1 4.75 3.625 C6.27383794 7.73936243 5.97386143 9.7410392 5 14 C3.63248964 16.40493202 2.31789589 18.48842203 0.6875 20.6875 C0.29626953 21.24244141 -0.09496094 21.79738281 -0.49804688 22.36914062 C-2.75732401 25.52013908 -5.07977601 28.44091245 -8 31 C-8.66 31 -9.32 31 -10 31 C-10 30.01 -10 29.02 -10 28 C-9.34 27.67 -8.68 27.34 -8 27 C-7.67 26.01 -7.34 25.02 -7 24 C-6.34 24 -5.68 24 -5 24 C-4.731875 23.401875 -4.46375 22.80375 -4.1875 22.1875 C-3.00691239 20.01273336 -1.73183488 18.73183488 0 17 C0.33 16.01 0.66 15.02 1 14 C1.66 14 2.32 14 3 14 C2.58846263 9.02906176 2.20399168 4.55491614 0 0 Z " fill="#5562D0" transform="translate(384,148)"/>
<path d="M0 0 C8.2244898 -0.63265306 8.2244898 -0.63265306 11.375 1.9375 C11.91125 2.618125 12.4475 3.29875 13 4 C13.99 4.33 14.98 4.66 16 5 C16 6.32 16 7.64 16 9 C16.66 9 17.32 9 18 9 C18.66 11.64 19.32 14.28 20 17 C25.94 17 31.88 17 38 17 C38 16.34 38 15.68 38 15 C38.99 15 39.98 15 41 15 C40.67 15.99 40.34 16.98 40 18 C21.0136449 19.64416877 21.0136449 19.64416877 16.4453125 15.9140625 C15.03964887 13.32308252 14.00244022 10.76760671 13 8 C9.20498789 4.10511915 5.06289022 2.71623397 0 1 C0 0.67 0 0.34 0 0 Z " fill="#40E1E7" transform="translate(151,103)"/>
<path d="M0 0 C12.87 0.495 12.87 0.495 26 1 C25.67 3.64 25.34 6.28 25 9 C24.67 9 24.34 9 24 9 C24 7.35 24 5.7 24 4 C16.41 4 8.82 4 1 4 C0.67 2.68 0.34 1.36 0 0 Z " fill="#55B0E8" transform="translate(147,149)"/>
<path d="M0 0 C0 0.99 0 1.98 0 3 C-0.61875 3.144375 -1.2375 3.28875 -1.875 3.4375 C-4.03258322 3.93152225 -4.03258322 3.93152225 -6 5 C-6.33 4.01 -6.66 3.02 -7 2 C-7.99 2.495 -7.99 2.495 -9 3 C-9.33 3.99 -9.66 4.98 -10 6 C-10.66 6 -11.32 6 -12 6 C-12 4.68 -12 3.36 -12 2 C-12.99 1.67 -13.98 1.34 -15 1 C-14.62746094 2.26457031 -14.25492187 3.52914062 -13.87109375 4.83203125 C-13.39278085 6.49205839 -12.91494079 8.15222182 -12.4375 9.8125 C-12.19064453 10.64587891 -11.94378906 11.47925781 -11.68945312 12.33789062 C-11.34624023 13.54155273 -11.34624023 13.54155273 -10.99609375 14.76953125 C-10.78138428 15.50792236 -10.5666748 16.24631348 -10.34545898 17.00708008 C-10 19 -10 19 -11 22 C-12.17171756 18.71010914 -13.33651088 15.41780898 -14.5 12.125 C-14.83386719 11.18785156 -15.16773438 10.25070313 -15.51171875 9.28515625 C-15.82753906 8.38925781 -16.14335937 7.49335938 -16.46875 6.5703125 C-16.76201172 5.74289551 -17.05527344 4.91547852 -17.35742188 4.06298828 C-18 2 -18 2 -18 0 C-15.3753399 -0.19430855 -12.75053235 -0.38073238 -10.125 -0.5625 C-9.00544922 -0.64661133 -9.00544922 -0.64661133 -7.86328125 -0.73242188 C-2.2265625 -1.11328125 -2.2265625 -1.11328125 0 0 Z " fill="#586BE8" transform="translate(418,122)"/>
<path d="M0 0 C3.63 0 7.26 0 11 0 C11 0.66 11 1.32 11 2 C10.16597656 2.10957031 9.33195312 2.21914062 8.47265625 2.33203125 C1.65182443 3.29304192 -4.5452318 4.59313728 -11 7 C-11 7.66 -11 8.32 -11 9 C-12.31200404 10.35432675 -13.64631404 11.68733482 -15 13 C-15.33 13.66 -15.66 14.32 -16 15 C-18.0625 15.625 -18.0625 15.625 -20 16 C-19.34938905 14.32700041 -18.67966676 12.66140763 -18 11 C-17.73058594 10.32839844 -17.46117188 9.65679687 -17.18359375 8.96484375 C-15.72770894 6.54797887 -14.49115145 5.94797115 -11.9375 4.8125 C-9.26504211 3.70341129 -9.26504211 3.70341129 -7 2 C-4.66702567 1.95907063 -2.33294775 1.95758277 0 2 C0 1.34 0 0.68 0 0 Z " fill="#35DCE2" transform="translate(140,101)"/>
<path d="M0 0 C2.15482342 1.47603126 3.40121683 3.1073016 4.84765625 5.265625 C0.84765625 3.265625 0.84765625 3.265625 -1.02734375 2.203125 C-6.10967056 -0.03907801 -11.68443694 0.08326401 -17.15234375 0.078125 C-17.838125 0.06587891 -18.52390625 0.05363281 -19.23046875 0.04101562 C-23.63538693 0.02840613 -27.01655524 0.8733212 -31.15234375 2.265625 C-33.52734375 1.890625 -33.52734375 1.890625 -35.15234375 1.265625 C-24.81307381 -4.86134978 -10.93173418 -4.85854852 0 0 Z " fill="#38DAE3" transform="translate(252.15234375,125.734375)"/>
<path d="M0 0 C0.66 0 1.32 0 2 0 C1.67 1.65 1.34 3.3 1 5 C10.9 5 20.8 5 31 5 C31 5.66 31 6.32 31 7 C26.7641643 7.02469321 22.52836658 7.04285671 18.29248047 7.05493164 C16.8510668 7.05996474 15.40965824 7.06679173 13.96826172 7.07543945 C11.89809915 7.08754983 9.82800399 7.09323847 7.7578125 7.09765625 C6.5114502 7.10289307 5.26508789 7.10812988 3.98095703 7.11352539 C1 7 1 7 -1 6 C-0.67 4.02 -0.34 2.04 0 0 Z " fill="#5564CD" transform="translate(487,144)"/>
<path d="M0 0 C0.33 0.66 0.66 1.32 1 2 C-3.1079992 11.83317457 -11.28263212 19.78826039 -21 24 C-21.99 24 -22.98 24 -24 24 C-24 23.34 -24 22.68 -24 22 C-20.91190305 20.23537317 -19.76687864 20 -16 20 C-16 19.01 -16 18.02 -16 17 C-15.071875 16.87625 -15.071875 16.87625 -14.125 16.75 C-11.81562433 16.18741541 -11.81562433 16.18741541 -10.75 13.9375 C-10.5025 13.298125 -10.255 12.65875 -10 12 C-9.01 12 -8.02 12 -7 12 C-7 11.34 -7 10.68 -7 10 C-6.34 10 -5.68 10 -5 10 C-5 8.35 -5 6.7 -5 5 C-4.0409375 4.5978125 -4.0409375 4.5978125 -3.0625 4.1875 C-0.66868314 3.11332248 -0.66868314 3.11332248 0 0 Z " fill="#3BD9DE" transform="translate(188,167)"/>
<path d="M0 0 C0.33 0 0.66 0 1 0 C1.35070247 4.38378081 1.37330337 7.89039299 -1.34765625 11.53125 C-4.42917142 14.2703746 -8.16348531 15.82005501 -11.87890625 17.5390625 C-15.47630126 19.22294953 -18.85304982 21.17572764 -22.2578125 23.21484375 C-23.12019531 23.60349609 -23.12019531 23.60349609 -24 24 C-24.66 23.67 -25.32 23.34 -26 23 C-25 21 -25 21 -22.625 19.875 C-20 19 -20 19 -17 19 C-17 18.34 -17 17.68 -17 17 C-14 15 -14 15 -10 15 C-10 14.34 -10 13.68 -10 13 C-7 11 -7 11 -4 11 C-4 10.01 -4 9.02 -4 8 C-3.01 7.34 -2.02 6.68 -1 6 C-0.26656572 2.93443402 -0.26656572 2.93443402 0 0 Z " fill="#3ED7E0" transform="translate(389,112)"/>
<path d="M0 0 C0 0.33 0 0.66 0 1 C-6.93 2.485 -6.93 2.485 -14 4 C-14 4.66 -14 5.32 -14 6 C-14.6290625 6.13535156 -15.258125 6.27070312 -15.90625 6.41015625 C-22.80645378 8.14559907 -27.04043205 10.94345726 -32 16 C-32.66 15.67 -33.32 15.34 -34 15 C-28.15373382 9.30906939 -22.51932034 5.19118922 -15 2 C-13.989375 1.566875 -12.97875 1.13375 -11.9375 0.6875 C-7.93235619 -0.24987408 -4.09307423 -0.16372297 0 0 Z " fill="#3CDEE2" transform="translate(143,84)"/>
<path d="M0 0 C3.6016649 -0.26353646 5.68251432 -0.16212035 8.9375 1.5 C14.64694854 4.26389213 21.7995246 3.21546054 28 3 C27.67 3.99 27.34 4.98 27 6 C17.68114405 6.45273794 9.45319846 6.57742367 1 2 C0.67 1.34 0.34 0.68 0 0 Z " fill="#35E2E9" transform="translate(216,188)"/>
<path d="M0 0 C0.4846875 0.27714844 0.969375 0.55429688 1.46875 0.83984375 C6.4138373 3.51209285 10.39544133 4.59967438 16 5 C16.33 3.68 16.66 2.36 17 1 C21.455 0.505 21.455 0.505 26 0 C15.74378142 7.97444518 15.74378142 7.97444518 9.7109375 8.015625 C5.48574258 7.0977924 2.58427091 5.44569455 0 2 C0 1.34 0 0.68 0 0 Z " fill="#37D9E4" transform="translate(325,143)"/>
<path d="M0 0 C0.33 0 0.66 0 1 0 C1.33 5.28 1.66 10.56 2 16 C2.99 16.33 3.98 16.66 5 17 C4.34 17 3.68 17 3 17 C3.81163009 18.95869403 4.62433101 20.91694436 5.4375 22.875 C5.88996094 23.96554688 6.34242188 25.05609375 6.80859375 26.1796875 C7.49543463 27.80558624 8.21065887 29.42131774 9 31 C7.68 31 6.36 31 5 31 C-0.23282256 20.42222298 -0.58438282 11.5707799 0 0 Z " fill="#5764D6" transform="translate(282,132)"/>
<path d="M0 0 C10.44899011 0.33224134 20.28388636 1.80533352 29 8 C29 8.99 29 9.98 29 11 C28.34 11 27.68 11 27 11 C26.67 10.34 26.34 9.68 26 9 C23.47266765 8.34444881 23.47266765 8.34444881 21 8 C21 7.34 21 6.68 21 6 C18.03 5.34 15.06 4.68 12 4 C12 3.34 12 2.68 12 2 C8.04 2 4.08 2 0 2 C0 1.34 0 0.68 0 0 Z " fill="#3ADEE0" transform="translate(144,83)"/>
<path d="M0 0 C0.99 0 1.98 0 3 0 C3.33 0.99 3.66 1.98 4 3 C3.34 3.66 2.68 4.32 2 5 C1.35232207 7.57061311 1.35232207 7.57061311 1 10 C2.423125 10.433125 2.423125 10.433125 3.875 10.875 C7 12 7 12 9 14 C8 15 8 15 6.1875 15.1328125 C5.465625 15.13023437 4.74375 15.12765625 4 15.125 C3.278125 15.12757813 2.55625 15.13015625 1.8125 15.1328125 C0 15 0 15 -1 14 C-1.0989294 11.83519203 -1.129711 9.66706215 -1.125 7.5 C-1.12757813 6.3140625 -1.13015625 5.128125 -1.1328125 3.90625 C-1 1 -1 1 0 0 Z " fill="#5260CF" transform="translate(617,121)"/>
<path d="M0 0 C0.33 0 0.66 0 1 0 C1 11.88 1 23.76 1 36 C1.66 36 2.32 36 3 36 C3 36.99 3 37.98 3 39 C3.99 39 4.98 39 6 39 C6 39.66 6 40.32 6 41 C7.98 41 9.96 41 12 41 C12 41.33 12 41.66 12 42 C4.5184669 42.36794425 4.5184669 42.36794425 2.0625 40.625 C-0.4682463 36.75444683 -0.12664529 33.19866714 -0.09765625 28.7109375 C-0.0962413 27.89251373 -0.09482635 27.07408997 -0.09336853 26.23086548 C-0.0877629 23.61220675 -0.07520948 20.99363296 -0.0625 18.375 C-0.05748572 16.60156373 -0.05292269 14.82812613 -0.04882812 13.0546875 C-0.03779164 8.70309218 -0.02052325 4.3515605 0 0 Z " fill="#4C5AD4" transform="translate(641,136)"/>
<path d="M0 0 C1.35282423 2.70564845 0.61032833 4.05767863 0 7 C-0.24607457 11.62247352 -0.23108936 16.24662038 -0.25 20.875 C-0.270625 22.12925781 -0.29125 23.38351563 -0.3125 24.67578125 C-0.34070966 31.34031335 -0.0091299 36.0644086 3 42 C2.67 42.99 2.34 43.98 2 45 C1.34 43.02 0.68 41.04 0 39 C-0.66 39 -1.32 39 -2 39 C-2.21841824 34.57157983 -2.4149857 30.14286808 -2.59204102 25.71264648 C-2.65516535 24.20815621 -2.72408012 22.70389659 -2.79907227 21.19995117 C-2.9063285 19.02819237 -2.99218791 16.85643452 -3.07421875 14.68359375 C-3.13182373 13.37962646 -3.18942871 12.07565918 -3.2487793 10.73217773 C-2.96093282 6.41391559 -1.90353262 3.84404816 0 0 Z " fill="#16EBF3" transform="translate(118,118)"/>
<path d="M0 0 C0.66 0.33 1.32 0.66 2 1 C-0.35735884 3.72957339 -2.58133526 4.88893396 -6 6 C-6.99 6 -7.98 6 -9 6 C-9.08121094 6.62390625 -9.16242188 7.2478125 -9.24609375 7.890625 C-10 10 -10 10 -11.84765625 11.046875 C-12.94400391 11.39492187 -12.94400391 11.39492187 -14.0625 11.75 C-15.16271484 12.11351563 -15.16271484 12.11351563 -16.28515625 12.484375 C-17.13400391 12.73960938 -17.13400391 12.73960938 -18 13 C-18 11.68 -18 10.36 -18 9 C-16.60922699 8.17886823 -15.21211107 7.36847505 -13.8125 6.5625 C-13.03519531 6.11003906 -12.25789063 5.65757813 -11.45703125 5.19140625 C-9 4 -9 4 -6.26171875 3.46484375 C-5.14216797 3.23474609 -5.14216797 3.23474609 -4 3 C-3.67 2.34 -3.34 1.68 -3 1 C-2.01 0.67 -1.02 0.34 0 0 Z " fill="#26E6EE" transform="translate(366,108)"/>
<path d="M0 0 C1.06347656 0.09023437 2.12695312 0.18046875 3.22265625 0.2734375 C5.9375 0.625 5.9375 0.625 7.9375 1.625 C7.6075 2.615 7.2775 3.605 6.9375 4.625 C5.9475 3.965 4.9575 3.305 3.9375 2.625 C-0.71787221 1.8624057 -4.25999274 2.23104189 -8.5 4.3125 C-11.1351148 6.69053043 -12.12276802 8.24196486 -13.0625 11.625 C-13.7225 11.625 -14.3825 11.625 -15.0625 11.625 C-15.3925 12.285 -15.7225 12.945 -16.0625 13.625 C-15.80787391 8.40516506 -13.94992925 5.81848103 -10.6328125 2.04296875 C-7.34072126 -0.9297405 -4.15052114 -0.37319388 0 0 Z " fill="#5761C5" transform="translate(578.0625,134.375)"/>
<path d="M0 0 C0.66 0 1.32 0 2 0 C2 1.65 2 3.3 2 5 C2.66 5 3.32 5 4 5 C4.66 8.3 5.32 11.6 6 15 C6.66 15 7.32 15 8 15 C8.53251766 16.91345327 9.05059483 18.8309295 9.5625 20.75 C9.85253906 21.81734375 10.14257812 22.8846875 10.44140625 23.984375 C10.98742254 26.93209929 10.82156762 28.21769433 10 31 C8.56975258 27.06948228 7.14576919 23.13676931 5.72753906 19.2019043 C5.24422865 17.86371832 4.75921402 16.52614657 4.27246094 15.18920898 C3.57297655 13.26705444 2.87965723 11.34277196 2.1875 9.41796875 C1.76855469 8.26063232 1.34960938 7.1032959 0.91796875 5.91088867 C0 3 0 3 0 0 Z " fill="#5864C7" transform="translate(408,144)"/>
<path d="M0 0 C1.33801397 0.08786957 2.67530623 0.18731211 4.01171875 0.296875 C5.32785156 0.38453125 6.64398438 0.4721875 8 0.5625 C11.30799096 0.99564771 13.7743489 1.46854901 16.69921875 3.046875 C17.51171875 5.671875 17.51171875 5.671875 17.69921875 8.046875 C16.70921875 7.386875 15.71921875 6.726875 14.69921875 6.046875 C14.69921875 5.386875 14.69921875 4.726875 14.69921875 4.046875 C9.68164269 2.63640431 3.53846157 1.49398301 -1.21484375 4.09375 C-3.0262081 5.56011527 -3.0262081 5.56011527 -5.30078125 8.046875 C-5.96078125 8.706875 -6.62078125 9.366875 -7.30078125 10.046875 C-7.30078125 8.396875 -7.30078125 6.746875 -7.30078125 5.046875 C-6.64078125 4.716875 -5.98078125 4.386875 -5.30078125 4.046875 C-5.30078125 3.386875 -5.30078125 2.726875 -5.30078125 2.046875 C-3.30078125 0.046875 -3.30078125 0.046875 0 0 Z " fill="#49E2E5" transform="translate(229.30078125,135.953125)"/>
<path d="M0 0 C-0.58007812 0.25394531 -1.16015625 0.50789063 -1.7578125 0.76953125 C-5.36343386 2.3581466 -8.92490621 3.96177043 -12.4375 5.75 C-15 7 -15 7 -17 7 C-17 7.66 -17 8.32 -17 9 C-18.6796875 10.32421875 -18.6796875 10.32421875 -20.875 11.6875 C-21.95394531 12.37392578 -21.95394531 12.37392578 -23.0546875 13.07421875 C-24.01761719 13.53248047 -24.01761719 13.53248047 -25 14 C-25.66 13.67 -26.32 13.34 -27 13 C-21.10336251 6.97866021 -8.75949798 -2.91983266 0 0 Z " fill="#5B65C7" transform="translate(325,82)"/>
<path d="M0 0 C0.66 0.66 1.32 1.32 2 2 C0.73542969 2.03867188 0.73542969 2.03867188 -0.5546875 2.078125 C-1.65039062 2.13484375 -2.74609375 2.1915625 -3.875 2.25 C-4.96554687 2.29640625 -6.05609375 2.3428125 -7.1796875 2.390625 C-10.10431412 2.68537272 -10.10431412 2.68537272 -11.3125 4.90625 C-11.539375 5.5971875 -11.76625 6.288125 -12 7 C-12.66666667 8.33333333 -13.33333333 9.66666667 -14 11 C-14.66 11 -15.32 11 -16 11 C-16.268125 11.598125 -16.53625 12.19625 -16.8125 12.8125 C-17.98493467 14.97224808 -19.19369282 16.35790256 -21 18 C-21.66 17.67 -22.32 17.34 -23 17 C-22.54109375 16.49210937 -22.0821875 15.98421875 -21.609375 15.4609375 C-18.78424433 12.29156822 -16.18807254 9.30205589 -13.9375 5.6875 C-10.3672199 0.73517599 -5.97443388 -0.67891294 0 0 Z " fill="#5C6AC5" transform="translate(381,145)"/>
<path d="M0 0 C0.33 0.66 0.66 1.32 1 2 C-1 5 -1 5 -2.9453125 5.51171875 C-3.66460937 5.56972656 -4.38390625 5.62773437 -5.125 5.6875 C-6.40375 5.790625 -7.6825 5.89375 -9 6 C-9 6.99 -9 7.98 -9 9 C-10.98 9.33 -12.96 9.66 -15 10 C-15 9.34 -15 8.68 -15 8 C-14.34 8 -13.68 8 -13 8 C-13 7.34 -13 6.68 -13 6 C-11.3970947 5.18501438 -9.79262722 4.37310073 -8.1875 3.5625 C-7.29417969 3.11003906 -6.40085937 2.65757812 -5.48046875 2.19140625 C-3 1 -3 1 0 0 Z M-22 10 C-19.69 10 -17.38 10 -15 10 C-15 10.33 -15 10.66 -15 11 C-17.31 11 -19.62 11 -22 11 C-22 10.67 -22 10.34 -22 10 Z " fill="#5B69DD" transform="translate(361,161)"/>
<path d="M0 0 C0.33 0 0.66 0 1 0 C1.03738281 0.825 1.07476562 1.65 1.11328125 2.5 C1.54430402 10.07247842 2.45316192 17.26363257 4.0715332 24.66796875 C4.78503665 28.07420581 5.25919075 30.69252563 4 34 C0.47602577 22.45269159 -0.50204748 12.04913942 0 0 Z " fill="#45D7DB" transform="translate(96,130)"/>
<path d="M0 0 C0.33 0 0.66 0 1 0 C1.125 6.625 1.125 6.625 0 10 C-0.21398437 10.66515625 -0.42796875 11.3303125 -0.6484375 12.015625 C-2.20483951 16.80197957 -3.94679816 21.40473874 -6 26 C-7.24881179 22.45265056 -6.73522457 20.32383554 -5.56640625 16.796875 C-5.24736328 15.8171875 -4.92832031 14.8375 -4.59960938 13.828125 C-4.25736328 12.81234375 -3.91511719 11.7965625 -3.5625 10.75 C-3.22412109 9.71875 -2.88574219 8.6875 -2.53710938 7.625 C-1.7006023 5.0801334 -0.85462088 2.53882926 0 0 Z " fill="#5563C8" transform="translate(446,128)"/>
<path d="M0 0 C1.11375 0.4640625 1.11375 0.4640625 2.25 0.9375 C4.84465671 2.07111139 4.84465671 2.07111139 7.125 2.25 C9 3 9 3 10.75 5.875 C12 9 12 9 12 12 C12.66 12 13.32 12 14 12 C14.33 13.65 14.66 15.3 15 17 C14.34 17 13.68 17 13 17 C13 16.01 13 15.02 13 14 C12.34 14 11.68 14 11 14 C10.896875 13.360625 10.79375 12.72125 10.6875 12.0625 C10.460625 11.381875 10.23375 10.70125 10 10 C9.01 9.67 8.02 9.34 7 9 C7 8.01 7 7.02 7 6 C5.68 6 4.36 6 3 6 C2.67 5.01 2.34 4.02 2 3 C1.34 2.67 0.68 2.34 0 2 C0 1.34 0 0.68 0 0 Z " fill="#17EDF4" transform="translate(249,127)"/>
<path d="M0 0 C13.53 0 27.06 0 41 0 C39.68 1.32 38.36 2.64 37 4 C36.505 2.515 36.505 2.515 36 1 C18.675 1.495 18.675 1.495 1 2 C0.67 1.34 0.34 0.68 0 0 Z " fill="#3870DE" transform="translate(148,137)"/>
<path d="M0 0 C1.01320312 0.52400391 1.01320312 0.52400391 2.046875 1.05859375 C2.93890625 1.51363281 3.8309375 1.96867188 4.75 2.4375 C5.63171875 2.88996094 6.5134375 3.34242188 7.421875 3.80859375 C12.01038734 5.92904263 15.68697971 6.1131302 20.75 6.0625 C21.92046875 6.05347656 23.0909375 6.04445312 24.296875 6.03515625 C25.18890625 6.02355469 26.0809375 6.01195312 27 6 C27 6.66 27 7.32 27 8 C20.4 8 13.8 8 7 8 C7 7.34 7 6.68 7 6 C6.21625 5.7525 5.4325 5.505 4.625 5.25 C1.6083499 3.81349995 1.28434435 2.95279169 0 0 Z " fill="#3DD9DC" transform="translate(128,168)"/>
<path d="M0 0 C0.33 0.99 0.66 1.98 1 3 C1.66 3.33 2.32 3.66 3 4 C2.69320312 4.80695313 2.38640625 5.61390625 2.0703125 6.4453125 C0.82163422 10.59238269 0.31898558 14.58071322 -0.125 18.875 C-0.21136719 19.65875 -0.29773438 20.4425 -0.38671875 21.25 C-0.5970149 23.16603159 -0.79932744 25.0829366 -1 27 C-1.33 27 -1.66 27 -2 27 C-2.24908976 17.76984056 -1.68944836 9.08078495 0 0 Z " fill="#11F0F8" transform="translate(100,121)"/>
<path d="M0 0 C1.423125 0.495 1.423125 0.495 2.875 1 C5.77062452 2.10159191 5.77062452 2.10159191 8 2 C8.3403125 3.1446875 8.3403125 3.1446875 8.6875 4.3125 C10.29892715 7.61208893 11.72309327 8.43956823 15 10 C17.19130534 10.69579454 17.19130534 10.69579454 19 11 C19 11.66 19 12.32 19 13 C12.06449728 11.96211667 6.39604853 7.97271776 1.9375 2.625 C1.298125 1.75875 0.65875 0.8925 0 0 Z " fill="#54E1E7" transform="translate(109,178)"/>
<path d="M0 0 C0.99 0.33 1.98 0.66 3 1 C-2.59875686 5.69169569 -8.11032176 8.59990717 -15 11 C-15.33 10.34 -15.66 9.68 -16 9 C-14.88625 8.566875 -13.7725 8.13375 -12.625 7.6875 C-8.82487666 6.30088881 -8.82487666 6.30088881 -7 3 C-5.02111039 2.27306096 -3.02045442 1.60183749 -1 1 C-0.67 0.67 -0.34 0.34 0 0 Z " fill="#5059D2" transform="translate(371,179)"/>
<path d="M0 0 C0.33 0 0.66 0 1 0 C0.19500136 6.03748977 -0.88482498 12.01270113 -2 18 C-3.9375 18.5625 -3.9375 18.5625 -6 19 C-7 18 -7 18 -7.0625 14.9375 C-7.041875 13.968125 -7.02125 12.99875 -7 12 C-6.01 13.485 -6.01 13.485 -5 15 C-3.35 10.05 -1.7 5.1 0 0 Z " fill="#5965CF" transform="translate(438,154)"/>
<path d="M0 0 C6.8700676 3.05336338 9.8774145 7.08527139 13.1796875 13.66015625 C14 16 14 16 13 19 C12.32845067 17.71086513 11.66291141 16.41859796 11 15.125 C10.62875 14.40570313 10.2575 13.68640625 9.875 12.9453125 C9 11 9 11 9 9 C8.34 9 7.68 9 7 9 C5.29006566 7.3777546 3.62652316 5.70586575 2 4 C1.401875 3.401875 0.80375 2.80375 0.1875 2.1875 C-0.204375 1.795625 -0.59625 1.40375 -1 1 C-0.67 0.67 -0.34 0.34 0 0 Z " fill="#5561CA" transform="translate(519,125)"/>
<path d="M0 0 C0.309375 0.639375 0.61875 1.27875 0.9375 1.9375 C1.8345163 3.93610821 1.8345163 3.93610821 3 5 C3.27800006 8.09548855 3.23179345 11.20600705 3.25 14.3125 C3.270625 15.18068359 3.29125 16.04886719 3.3125 16.94335938 C3.35210915 23.39469897 3.35210915 23.39469897 1.484375 26.60546875 C0.99453125 27.06566406 0.5046875 27.52585938 0 28 C0 25.69 0 23.38 0 21 C0.66 21 1.32 21 2 21 C2 16.71 2 12.42 2 8 C1.34 8 0.68 8 0 8 C0 5.36 0 2.72 0 0 Z " fill="#17E9F4" transform="translate(264,144)"/>
<path d="M0 0 C-0.99 0.33 -1.98 0.66 -3 1 C-3.33 1.66 -3.66 2.32 -4 3 C-6.64 3 -9.28 3 -12 3 C-12.33 3.66 -12.66 4.32 -13 5 C-13.99 3.35 -14.98 1.7 -16 0 C-13.7089095 -0.19441368 -11.41709663 -0.38033135 -9.125 -0.5625 C-7.21074219 -0.71912109 -7.21074219 -0.71912109 -5.2578125 -0.87890625 C-2 -1 -2 -1 0 0 Z " fill="#5365E8" transform="translate(514,178)"/>
<path d="M0 0 C0.66 0.33 1.32 0.66 2 1 C0.0095043 3.67389923 -1.99286265 6.33857523 -4 9 C-4.7425 9.99 -5.485 10.98 -6.25 12 C-6.8275 12.66 -7.405 13.32 -8 14 C-8.66 14 -9.32 14 -10 14 C-8.38798165 8.2683792 -4.12110332 4.12110332 0 0 Z " fill="#3BE2E1" transform="translate(215,128)"/>
<path d="M0 0 C1.10960573 3.32881718 0.9412896 3.87364252 -0.21484375 7.01171875 C-0.48876953 7.76904297 -0.76269531 8.52636719 -1.04492188 9.30664062 C-1.33947266 10.09232422 -1.63402344 10.87800781 -1.9375 11.6875 C-2.22818359 12.48478516 -2.51886719 13.28207031 -2.81835938 14.10351562 C-3.53739302 16.07201757 -4.26763703 18.03641812 -5 20 C-5.33 20 -5.66 20 -6 20 C-6 16.7 -6 13.4 -6 10 C-5.34 10 -4.68 10 -4 10 C-3.34 7.36 -2.68 4.72 -2 2 C-1.34 2 -0.68 2 0 2 C0 1.34 0 0.68 0 0 Z " fill="#5560C6" transform="translate(454,154)"/>
<path d="M0 0 C0.33 0 0.66 0 1 0 C1.15855469 0.66386719 1.31710937 1.32773438 1.48046875 2.01171875 C2.96833269 7.64258503 4.28172067 11.24957284 9 15 C9.66 15.33 10.32 15.66 11 16 C11 16.66 11 17.32 11 18 C9.68 18 8.36 18 7 18 C-0.29518072 10.18373494 -0.29518072 10.18373494 -0.125 4.3125 C-0.10695313 3.50425781 -0.08890625 2.69601563 -0.0703125 1.86328125 C-0.04710937 1.24839844 -0.02390625 0.63351563 0 0 Z " fill="#5663CE" transform="translate(487,160)"/>
<path d="M0 0 C0.66 0 1.32 0 2 0 C1.01 3.3 0.02 6.6 -1 10 C-1.66 10 -2.32 10 -3 10 C-3.66 11.32 -4.32 12.64 -5 14 C-6.65 14 -8.3 14 -10 14 C-8.88625 12.948125 -8.88625 12.948125 -7.75 11.875 C-4.28682569 8.25440867 -1.5921543 4.77646289 0 0 Z " fill="#3FDCDF" transform="translate(170,158)"/>
<path d="M0 0 C1.32 0.33 2.64 0.66 4 1 C3.36578125 1.23460937 2.7315625 1.46921875 2.078125 1.7109375 C-0.18250739 2.82290908 -0.18250739 2.82290908 -0.828125 5.1640625 C-0.96734375 5.97617188 -1.1065625 6.78828125 -1.25 7.625 C-1.39953125 8.44226563 -1.5490625 9.25953125 -1.703125 10.1015625 C-1.85007812 11.04128906 -1.85007812 11.04128906 -2 12 C-1.34 12.33 -0.68 12.66 0 13 C-0.33 14.32 -0.66 15.64 -1 17 C-2.5 16 -2.5 16 -4 14 C-4.53271595 9.35776099 -4.62143414 6.42748674 -2 2.5 C-1.34 1.675 -0.68 0.85 0 0 Z " fill="#1AEBF2" transform="translate(329,129)"/>
<path d="M0 0 C0.99 0.33 1.98 0.66 3 1 C3.81542969 2.71826172 3.81542969 2.71826172 4.421875 4.9296875 C4.64230469 5.72503906 4.86273438 6.52039063 5.08984375 7.33984375 C5.30769531 8.17644531 5.52554687 9.01304687 5.75 9.875 C5.98332031 10.70386719 6.21664063 11.53273437 6.45703125 12.38671875 C8.13332171 18.60003488 8.13332171 18.60003488 7 22 C5.82828244 18.71010914 4.66348912 15.41780898 3.5 12.125 C3.16613281 11.18785156 2.83226562 10.25070313 2.48828125 9.28515625 C2.17246094 8.38925781 1.85664063 7.49335938 1.53125 6.5703125 C1.23798828 5.74289551 0.94472656 4.91547852 0.64257812 4.06298828 C0 2 0 2 0 0 Z " fill="#5765C4" transform="translate(400,122)"/>
<path d="M0 0 C0 0.33 0 0.66 0 1 C-5.61 1 -11.22 1 -17 1 C-17 1.66 -17 2.32 -17 3 C-20.83887763 4.48320272 -23.06204091 5.22419163 -27 4 C-18.29305364 -1.15967192 -9.79727205 -0.38047658 0 0 Z " fill="#49D4DB" transform="translate(244,123)"/>
<path d="M0 0 C1.33663454 2.0049518 2.64919943 4.02615394 3.9375 6.0625 C7.48317255 10.3925183 12.73298272 10.46499649 18 11 C18 11.33 18 11.66 18 12 C11.42850615 12.46753711 7.25657916 12.46809228 2 8 C0 6 0 6 -0.125 2.875 C-0.08375 1.92625 -0.0425 0.9775 0 0 Z " fill="#44D9DB" transform="translate(221,168)"/>
<path d="M0 0 C1.18851562 0.00902344 2.37703125 0.01804687 3.6015625 0.02734375 C4.51679688 0.03894531 5.43203125 0.05054687 6.375 0.0625 C2.95899252 2.33983832 0.41408914 2.69029248 -3.56640625 3.3046875 C-5.81350652 3.89141211 -5.81350652 3.89141211 -6.90234375 6.1328125 C-7.14082031 6.76960938 -7.37929688 7.40640625 -7.625 8.0625 C-8.285 8.0625 -8.945 8.0625 -9.625 8.0625 C-9.36938677 5.7193787 -9.03229228 3.38406597 -8.625 1.0625 C-5.74084117 -0.37957941 -3.20778472 -0.03144887 0 0 Z " fill="#4F5CD9" transform="translate(456.625,120.9375)"/>
<path d="M0 0 C0.33 0.66 0.66 1.32 1 2 C4.96 2 8.92 2 13 2 C13 2.33 13 2.66 13 3 C7.39 3 1.78 3 -4 3 C-4 3.66 -4 4.32 -4 5 C-7.3 5.33 -10.6 5.66 -14 6 C-10.73262697 2.73262697 -7.16831802 2.04327104 -2.625 1.875 C-1.75875 1.91625 -0.8925 1.9575 0 2 C0 1.34 0 0.68 0 0 Z " fill="#1AEFF4" transform="translate(143,83)"/>
<path d="M0 0 C0.70125 0.495 1.4025 0.99 2.125 1.5 C-0.81886623 2.97193312 -3.24890036 2.34936173 -6.5 2.0625 C-7.68851563 1.96066406 -8.87703125 1.85882813 -10.1015625 1.75390625 C-11.01679688 1.67011719 -11.93203125 1.58632812 -12.875 1.5 C-12.875 0.84 -12.875 0.18 -12.875 -0.5 C-8.24004036 -1.92614143 -4.37325231 -2.28169686 0 0 Z " fill="#1DEDF5" transform="translate(240.875,135.5)"/>
<path d="M0 0 C3.46941546 0.45822468 6.67395049 0.89131683 10 2 C10 2.99 10 3.98 10 5 C11.65 5 13.3 5 15 5 C14.67 5.99 14.34 6.98 14 8 C13.01 8 12.02 8 11 8 C11 7.34 11 6.68 11 6 C9.948125 5.5978125 9.948125 5.5978125 8.875 5.1875 C5.8350176 3.9318551 2.9272226 2.49764877 0 1 C0 0.67 0 0.34 0 0 Z " fill="#527AD3" transform="translate(348,104)"/>
<path d="M0 0 C0 0.99 0 1.98 0 3 C-5.57432514 4.66251802 -9.3067505 5.18609365 -15 4 C-15 3.67 -15 3.34 -15 3 C-12.87562952 2.49733206 -10.75048274 1.9979439 -8.625 1.5 C-7.44164062 1.2215625 -6.25828125 0.943125 -5.0390625 0.65625 C-2 0 -2 0 0 0 Z " fill="#2DE4EF" transform="translate(164,189)"/>
<path d="M0 0 C0.99 0.33 1.98 0.66 3 1 C1.35530213 8.04870515 -1.05431728 11.84616687 -7 16 C-7 15.01 -7 14.02 -7 13 C-5.7934375 12.1028125 -5.7934375 12.1028125 -4.5625 11.1875 C-1.40477443 8.49188061 -1.34364806 7.03786468 -1 3 C-0.67 2.01 -0.34 1.02 0 0 Z " fill="#535CBB" transform="translate(531,170)"/>
<path d="M0 0 C0.86963087 2.99706695 1.11763099 5.64956526 1.09765625 8.765625 C1.09443359 9.65507812 1.09121094 10.54453125 1.08789062 11.4609375 C1.07951172 12.38132813 1.07113281 13.30171875 1.0625 14.25 C1.05798828 15.18585938 1.05347656 16.12171875 1.04882812 17.0859375 C1.03706918 19.39069041 1.02063426 21.69531227 1 24 C0.34 23.67 -0.32 23.34 -1 23 C-1.22587773 19.73012965 -1.42766605 16.45920719 -1.625 13.1875 C-1.68945312 12.25873047 -1.75390625 11.32996094 -1.8203125 10.37304688 C-1.871875 9.48037109 -1.9234375 8.58769531 -1.9765625 7.66796875 C-2.02893066 6.84578857 -2.08129883 6.0236084 -2.13525391 5.17651367 C-2 3 -2 3 0 0 Z " fill="#5665EB" transform="translate(474,145)"/>
<path d="M0 0 C0 3 0 3 -1.9375 5.0625 C-2.618125 5.701875 -3.29875 6.34125 -4 7 C-4.33 7.66 -4.66 8.32 -5 9 C-7.0625 9.625 -7.0625 9.625 -9 10 C-5.11111111 0 -5.11111111 0 0 0 Z " fill="#28E5EC" transform="translate(129,107)"/>
<path d="M0 0 C0.33 0.66 0.66 1.32 1 2 C0.34 2 -0.32 2 -1 2 C-0.67 4.64 -0.34 7.28 0 10 C-0.66 10 -1.32 10 -2 10 C-2.33 11.65 -2.66 13.3 -3 15 C-3.66 14.67 -4.32 14.34 -5 14 C-4.7451971 12.03951648 -4.47063056 10.08159327 -4.1875 8.125 C-4.03667969 7.03445312 -3.88585937 5.94390625 -3.73046875 4.8203125 C-3 2 -3 2 0 0 Z " fill="#1AECF4" transform="translate(175,149)"/>
<path d="M0 0 C3.375 0.6875 3.375 0.6875 7 2 C8.4375 4.625 8.4375 4.625 9 7 C8.01 6.67 7.02 6.34 6 6 C6 5.34 6 4.68 6 4 C3.36 4.33 0.72 4.66 -2 5 C-1.34 3.35 -0.68 1.7 0 0 Z " fill="#38B1E8" transform="translate(377,99)"/>
<path d="M0 0 C-0.33 0.66 -0.66 1.32 -1 2 C-2.33076989 2.34342449 -3.66431979 2.67619874 -5 3 C-5.66 3.66 -6.32 4.32 -7 5 C-9.68839385 5.26991906 -12.29141936 5.08737357 -15 5 C-10.57744491 1.10815152 -5.80705928 0 0 0 Z M-9 5 C-7 6 -7 6 -7 6 Z " fill="#1BDFFC" transform="translate(383,103)"/>
<path d="M0 0 C0.99 0 1.98 0 3 0 C2.67 0.99 2.34 1.98 2 3 C-4.93 3 -11.86 3 -19 3 C-19.33 2.34 -19.66 1.68 -20 1 C-13.4 1.33 -6.8 1.66 0 2 C0 1.34 0 0.68 0 0 Z " fill="#56C8D1" transform="translate(189,118)"/>
<path d="M0 0 C0.66 0.33 1.32 0.66 2 1 C-0.35735884 3.72957339 -2.58133526 4.88893396 -6 6 C-6.99 6 -7.98 6 -9 6 C-9 6.66 -9 7.32 -9 8 C-9.99 7.67 -10.98 7.34 -12 7 C-9.56680171 4.05454944 -7.67586393 3.67713283 -4 3 C-3.67 2.34 -3.34 1.68 -3 1 C-2.01 0.67 -1.02 0.34 0 0 Z " fill="#30CCEE" transform="translate(366,108)"/>
<path d="M0 0 C3 1 3 1 4.8125 4.25 C6 8 6 8 5.1875 10.9375 C4.795625 11.618125 4.40375 12.29875 4 13 C3.67 13 3.34 13 3 13 C2.87625 11.783125 2.7525 10.56625 2.625 9.3125 C2.21108694 5.93520941 1.45426549 3.10243305 0 0 Z " fill="#505BCE" transform="translate(384,148)"/>
<path d="M0 0 C0.33 0 0.66 0 1 0 C1.25 5.625 1.25 5.625 -1 9 C-2.9375 10.25 -2.9375 10.25 -5 11 C-5.99 10.67 -6.98 10.34 -8 10 C-7.05125 9.278125 -6.1025 8.55625 -5.125 7.8125 C-2.32587438 5.50190102 -1.01482442 3.55188548 0 0 Z " fill="#3CDCE1" transform="translate(248,168)"/>
<path d="M0 0 C1.65 1.65 3.3 3.3 5 5 C4.34 6.98 3.68 8.96 3 11 C2.34 10.67 1.68 10.34 1 10 C0.5859375 7.71484375 0.5859375 7.71484375 0.375 4.9375 C0.30023438 4.01839844 0.22546875 3.09929687 0.1484375 2.15234375 C0.09945313 1.44207031 0.05046875 0.73179687 0 0 Z " fill="#515EEB" transform="translate(417,165)"/>
<path d="M0 0 C0.99 0.33 1.98 0.66 3 1 C1.03681826 4.53372712 -1.04070881 7.24479785 -4 10 C-4 8.35 -4 6.7 -4 5 C-3.34 4.67 -2.68 4.34 -2 4 C-2 3.34 -2 2.68 -2 2 C-1.34 1.34 -0.68 0.68 0 0 Z " fill="#30DCE1" transform="translate(226,136)"/>
<path d="M0 0 C1 3 1 3 0.22265625 5.04296875 C-0.16019531 5.75066406 -0.54304688 6.45835938 -0.9375 7.1875 C-1.31777344 7.90292969 -1.69804688 8.61835937 -2.08984375 9.35546875 C-2.54037109 10.16951172 -2.54037109 10.16951172 -3 11 C-3.99 11 -4.98 11 -6 11 C-4.54955729 6.89041233 -2.48889248 3.56741255 0 0 Z " fill="#3CDEDF" transform="translate(108,100)"/>
<path d="M0 0 C0.33 0.99 0.66 1.98 1 3 C-2.3125 4.625 -2.3125 4.625 -6 6 C-6.99 5.34 -7.98 4.68 -9 4 C-6.01353231 2.00902154 -3.40312738 1.05875074 0 0 Z " fill="#4750DB" transform="translate(523,184)"/>
<path d="M0 0 C0.66 0 1.32 0 2 0 C3.39300182 1.95890881 4.72245446 3.9639118 6 6 C6.99 7.485 6.99 7.485 8 9 C4.86493389 8.66410006 3.974751 7.97334828 1.75 5.625 C0 3 0 3 0 0 Z " fill="#4E5BCC" transform="translate(627,178)"/>
<path d="M0 0 C2.125 0.375 2.125 0.375 4 1 C3.01 2.485 3.01 2.485 2 4 C0.68 4 -0.64 4 -2 4 C-2 4.99 -2 5.98 -2 7 C-3.32 6.67 -4.64 6.34 -6 6 C-5.01 6 -4.02 6 -3 6 C-2.87625 5.38125 -2.7525 4.7625 -2.625 4.125 C-2 2 -2 2 0 0 Z " fill="#15EEF6" transform="translate(174,180)"/>
<path d="M0 0 C-1.45537568 0.83848804 -2.91440373 1.67063934 -4.375 2.5 C-5.59316406 3.19609375 -5.59316406 3.19609375 -6.8359375 3.90625 C-9 5 -9 5 -11 5 C-10.67 4.01 -10.34 3.02 -10 2 C-9.34 2 -8.68 2 -8 2 C-8 1.34 -8 0.68 -8 0 C-4.71303767 -0.79953138 -3.28976808 -1.09658936 0 0 Z " fill="#3BD6DD" transform="translate(362,138)"/>
<path d="M0 0 C1.32 0 2.64 0 4 0 C4 3.3 4 6.6 4 10 C2.02 10 0.04 10 -2 10 C-0.68 9.01 0.64 8.02 2 7 C1.34414811 3.39007621 1.34414811 3.39007621 0 0 Z " fill="#5767EC" transform="translate(651,123)"/>
<path d="M0 0 C0.99 0 1.98 0 3 0 C3 0.66 3 1.32 3 2 C2.34 2 1.68 2 1 2 C1.061875 2.94875 1.12375 3.8975 1.1875 4.875 C1.125625 5.90625 1.06375 6.9375 1 8 C0.01 8.66 -0.98 9.32 -2 10 C-2.17942163 6.05272412 -2.09350689 3.4019487 0 0 Z " fill="#4D5BD7" transform="translate(287,109)"/>
<path d="M0 0 C1.75099539 2.62649308 2.69309325 4.61808587 3.6875 7.5625 C3.95949219 8.34753906 4.23148437 9.13257813 4.51171875 9.94140625 C5 12 5 12 4 14 C3.896875 13.360625 3.79375 12.72125 3.6875 12.0625 C3.460625 11.381875 3.23375 10.70125 3 10 C2.01 9.67 1.02 9.34 0 9 C0 6.03 0 3.06 0 0 Z " fill="#18ECEF" transform="translate(100,155)"/>
<path d="M0 0 C0.33 0.66 0.66 1.32 1 2 C0.01 3.485 0.01 3.485 -1 5 C-4.125 5.1875 -4.125 5.1875 -7 5 C-7 4.34 -7 3.68 -7 3 C-4.66785852 1.79371992 -2.50357861 0.8345262 0 0 Z " fill="#505DE2" transform="translate(361,161)"/>
<path d="M0 0 C1.98 0 3.96 0 6 0 C5.67 0.99 5.34 1.98 5 3 C2.36 3.33 -0.28 3.66 -3 4 C-2.67 3.34 -2.34 2.68 -2 2 C-1.34 2 -0.68 2 0 2 C0 1.34 0 0.68 0 0 Z " fill="#1BEAF4" transform="translate(358,134)"/>
<path d="M0 0 C0.99 0 1.98 0 3 0 C2.67 0.99 2.34 1.98 2 3 C1.34 3 0.68 3 0 3 C0 6.96 0 10.92 0 15 C-0.33 15 -0.66 15 -1 15 C-1.02685412 12.68756208 -1.04632841 10.3750373 -1.0625 8.0625 C-1.07410156 6.77472656 -1.08570313 5.48695312 -1.09765625 4.16015625 C-1 1 -1 1 0 0 Z " fill="#646AC1" transform="translate(627,105)"/>
<path d="M0 0 C0.99 0.33 1.98 0.66 3 1 C2.34 1 1.68 1 1 1 C1 1.66 1 2.32 1 3 C-0.0725 3.12375 -1.145 3.2475 -2.25 3.375 C-5.37863615 3.89643936 -7.33480424 4.40088254 -10 6 C-9.67 4.68 -9.34 3.36 -9 2 C-6.94921875 1.77213542 -4.8984375 1.54427083 -2.84765625 1.31640625 C-0.98859771 1.18113386 -0.98859771 1.18113386 0 0 Z " fill="#12EFF6" transform="translate(139,100)"/>
<path d="M0 0 C1.21236328 0.01353516 1.21236328 0.01353516 2.44921875 0.02734375 C3.37154297 0.04474609 3.37154297 0.04474609 4.3125 0.0625 C4.3125 0.3925 4.3125 0.7225 4.3125 1.0625 C-0.91262279 2.52920113 -5.2689234 3.28827402 -10.6875 3.0625 C-6.91890928 0.55010618 -4.42510751 -0.06413199 0 0 Z " fill="#47D9DB" transform="translate(138.6875,83.9375)"/>
<path d="M0 0 C1 3 1 3 0.29296875 5.0078125 C-0.25423828 6.05582031 -0.25423828 6.05582031 -0.8125 7.125 C-1.16957031 7.82882813 -1.52664063 8.53265625 -1.89453125 9.2578125 C-3 11 -3 11 -5 12 C-4.625 9.0625 -4.625 9.0625 -4 6 C-3.34 5.67 -2.68 5.34 -2 5 C-1.27840576 3.35636866 -0.60648579 1.68949614 0 0 Z " fill="#5760BF" transform="translate(389,156)"/>
<path d="M0 0 C0.66 0.33 1.32 0.66 2 1 C1.52219697 2.29217171 1.04270894 3.58372046 0.5625 4.875 C0.29566406 5.59429687 0.02882813 6.31359375 -0.24609375 7.0546875 C-1 9 -1 9 -2 11 C-2.66 10.67 -3.32 10.34 -4 10 C-2.68 6.7 -1.36 3.4 0 0 Z " fill="#4953D2" transform="translate(475,137)"/>
<path d="M0 0 C0 0.99 0 1.98 0 3 C-0.61875 3.144375 -1.2375 3.28875 -1.875 3.4375 C-4.03258322 3.93152225 -4.03258322 3.93152225 -6 5 C-6 3.35 -6 1.7 -6 0 C-2.25 -1.125 -2.25 -1.125 0 0 Z " fill="#4F60EB" transform="translate(418,122)"/>
<path d="M0 0 C9.59453303 0.59453303 9.59453303 0.59453303 13 4 C10.21078018 5.39460991 8.87922897 4.58060045 5.9375 3.6875 C4.58978516 3.29111328 4.58978516 3.29111328 3.21484375 2.88671875 C1 2 1 2 0 0 Z " fill="#5260DF" transform="translate(351,82)"/>
<path d="M0 0 C3.0831351 1.19899698 6.06279492 2.47700477 9 4 C9 4.66 9 5.32 9 6 C5.32579134 5.69381595 4.21864487 5.24228216 1.6875 2.4375 C1.130625 1.633125 0.57375 0.82875 0 0 Z " fill="#5259C9" transform="translate(298,176)"/>
<path d="M0 0 C-2.39509338 2.89932357 -4.31245243 3.50168276 -8 4 C-8 3.01 -8 2.02 -8 1 C-4.93251126 -0.86240388 -3.40254489 -1.2151946 0 0 Z " fill="#16EDF3" transform="translate(354,140)"/>
<path d="M0 0 C2.0625 0.4375 2.0625 0.4375 4 1 C2.37660195 2.70884005 0.70680947 4.37446717 -1 6 C-1.66 6 -2.32 6 -3 6 C-1.125 1.125 -1.125 1.125 0 0 Z " fill="#12F0F4" transform="translate(217,128)"/>
<path d="M0 0 C1.485 0.99 1.485 0.99 3 2 C3 3.32 3 4.64 3 6 C4.65 6 6.3 6 8 6 C8 6.33 8 6.66 8 7 C5.125 7.125 5.125 7.125 2 7 C0 5 0 5 -0.125 2.375 C-0.08375 1.59125 -0.0425 0.8075 0 0 Z " fill="#14EEF4" transform="translate(169,112)"/>
<path d="M0 0 C1.48285242 0.95262034 2.96118201 1.91228405 4.4375 2.875 C5.67306641 3.67550781 5.67306641 3.67550781 6.93359375 4.4921875 C9 6 9 6 10 8 C5.60249328 7.49259538 3.13051078 4.91706686 0 2 C0 1.34 0 0.68 0 0 Z " fill="#5866C3" transform="translate(365,86)"/>
<path d="M0 0 C1.423125 0.495 1.423125 0.495 2.875 1 C5.77062452 2.10159191 5.77062452 2.10159191 8 2 C8.33 3.32 8.66 4.64 9 6 C4.64464931 4.83857315 2.35380297 3.92300495 0 0 Z " fill="#36E4E7" transform="translate(109,178)"/>
<path d="M0 0 C1 1 2 2 3 3 C3.8353125 3.7734375 3.8353125 3.7734375 4.6875 4.5625 C6 6 6 6 6 8 C4 7 2 6 0 5 C0 3.35 0 1.7 0 0 Z " fill="#15F1F3" transform="translate(109,173)"/>
<path d="M0 0 C4.03384128 2.07143201 5.92856799 3.96615872 8 8 C4.82461668 7.65978036 3.97723135 6.97533396 1.75 4.5625 C0 2 0 2 0 0 Z " fill="#1EEBEF" transform="translate(123,165)"/>
<path d="M0 0 C1.2077558 3.62326739 0.54311128 4.64146369 -1 8 C-1.66 8 -2.32 8 -3 8 C-3.33 8.66 -3.66 9.32 -4 10 C-3.5205537 5.78087253 -2.83374881 3.20336822 0 0 Z " fill="#4D59D0" transform="translate(566,138)"/>
<path d="M0 0 C0 0.99 0 1.98 0 3 C-1.11375 3.433125 -1.11375 3.433125 -2.25 3.875 C-4.56739797 4.82302644 -6.77917115 5.84845911 -9 7 C-9 6.34 -9 5.68 -9 5 C-7.5390625 3.7109375 -7.5390625 3.7109375 -5.625 2.375 C-4.99851563 1.92898437 -4.37203125 1.48296875 -3.7265625 1.0234375 C-2 0 -2 0 0 0 Z " fill="#27C7F8" transform="translate(191,137)"/>
<path d="M0 0 C0.33 0.66 0.66 1.32 1 2 C1.99 2.33 2.98 2.66 4 3 C3.67 3.66 3.34 4.32 3 5 C2.34 5 1.68 5 1 5 C1 5.66 1 6.32 1 7 C0.34 7 -0.32 7 -1 7 C-0.67 4.69 -0.34 2.38 0 0 Z " fill="#5161EE" transform="translate(284,121)"/>
<path d="M0 0 C0.99 0.33 1.98 0.66 3 1 C3 1.99 3 2.98 3 4 C3.66 4 4.32 4 5 4 C5.33 4.99 5.66 5.98 6 7 C2.63279613 5.60667426 1.0140476 4.0210714 -1 1 C-0.67 0.67 -0.34 0.34 0 0 Z " fill="#39DCE1" transform="translate(210,181)"/>
<path d="M0 0 C1.97194115 1.97194115 2.832365 3.50904533 4 6 C4.33 6.66 4.66 7.32 5 8 C3.68 8 2.36 8 1 8 C-0.35439668 5.29120665 -0.06501451 2.99066732 0 0 Z " fill="#4A59DB" transform="translate(286,155)"/>
<path d="M0 0 C0.66 0.33 1.32 0.66 2 1 C2.73075648 3.3140622 3.40138258 5.64828869 4 8 C3.01 8.33 2.02 8.66 1 9 C0.63877119 7.68942607 0.28619689 6.37646376 -0.0625 5.0625 C-0.35833984 3.96615234 -0.35833984 3.96615234 -0.66015625 2.84765625 C-0.77230469 2.23792969 -0.88445312 1.62820312 -1 1 C-0.67 0.67 -0.34 0.34 0 0 Z " fill="#4F59CE" transform="translate(417,122)"/>
<path d="M0 0 C0.33 0.99 0.66 1.98 1 3 C0.34 3 -0.32 3 -1 3 C-1.66 4.32 -2.32 5.64 -3 7 C-3.99 6.67 -4.98 6.34 -6 6 C-4 4 -2 2 0 0 Z " fill="#4C56D1" transform="translate(315,109)"/>
<path d="M0 0 C2.83374881 3.20336822 3.5205537 5.78087253 4 10 C1 8 1 8 0.48828125 6.0546875 C0.32552083 4.03645833 0.16276042 2.01822917 0 0 Z " fill="#39D6DD" transform="translate(187,107)"/>
<path d="M0 0 C1.5625 1.1875 1.5625 1.1875 3 3 C2.6875 5.6875 2.6875 5.6875 2 8 C1.34 8 0.68 8 0 8 C-0.79953138 4.71303767 -1.09658936 3.28976808 0 0 Z " fill="#4F5BD6" transform="translate(517,139)"/>
<path d="" fill="#FFFFFF" transform="translate(0,0)"/>
<path d="" fill="#FFFFFF" transform="translate(0,0)"/>
<path d="" fill="#FFFFFF" transform="translate(0,0)"/>
<path d="" fill="#FFFFFF" transform="translate(0,0)"/>
<path d="" fill="#FFFFFF" transform="translate(0,0)"/>
<path d="" fill="#FFFFFF" transform="translate(0,0)"/>
<path d="" fill="#FFFFFF" transform="translate(0,0)"/>
<path d="" fill="#FFFFFF" transform="translate(0,0)"/>
<path d="" fill="#FFFFFF" transform="translate(0,0)"/>
<path d="" fill="#FFFFFF" transform="translate(0,0)"/>
<path d="" fill="#FFFFFF" transform="translate(0,0)"/>
<path d="" fill="#FFFFFF" transform="translate(0,0)"/>
<path d="" fill="#FFFFFF" transform="translate(0,0)"/>
<path d="" fill="#FFFFFF" transform="translate(0,0)"/>
<path d="" fill="#FFFFFF" transform="translate(0,0)"/>
<path d="" fill="#FFFFFF" transform="translate(0,0)"/>
<path d="" fill="#FFFFFF" transform="translate(0,0)"/>
<path d="" fill="#FFFFFF" transform="translate(0,0)"/>
<path d="" fill="#FFFFFF" transform="translate(0,0)"/>
<path d="" fill="#FFFFFF" transform="translate(0,0)"/>
<path d="" fill="#FFFF00" transform="translate(0,0)"/>
<path d="" fill="#FFFFFF" transform="translate(0,0)"/>
<path d="" fill="#FFFFFF" transform="translate(0,0)"/>
<path d="" fill="#FFFFFF" transform="translate(0,0)"/>
<path d="" fill="#FFFFFF" transform="translate(0,0)"/>
<path d="" fill="#FFFFFF" transform="translate(0,0)"/>
<path d="" fill="#FFFFFF" transform="translate(0,0)"/>
<path d="" fill="#FFFFFF" transform="translate(0,0)"/>
<path d="" fill="#FFFFFF" transform="translate(0,0)"/>
<path d="" fill="#FFFFFF" transform="translate(0,0)"/>
<path d="" fill="#FFFFFF" transform="translate(0,0)"/>
<path d="" fill="#FFFFFF" transform="translate(0,0)"/>
<path d="" fill="#FFFFFF" transform="translate(0,0)"/>
<path d="" fill="#FFFFFF" transform="translate(0,0)"/>
<path d="" fill="#FFFFFF" transform="translate(0,0)"/>
<path d="" fill="#FFFFFF" transform="translate(0,0)"/>
<path d="" fill="#FFFFFE" transform="translate(0,0)"/>
<path d="" fill="#FFFFFF" transform="translate(0,0)"/>
<path d="" fill="#FFFFFF" transform="translate(0,0)"/>
<path d="" fill="#FFFFFF" transform="translate(0,0)"/>
<path d="" fill="#FFFFFF" transform="translate(0,0)"/>
<path d="" fill="#FFFFFF" transform="translate(0,0)"/>
<path d="" fill="#FFFFFF" transform="translate(0,0)"/>
<path d="" fill="#FFFFFF" transform="translate(0,0)"/>
<path d="" fill="#FFFFFF" transform="translate(0,0)"/>
<path d="" fill="#FFFFFF" transform="translate(0,0)"/>
<path d="" fill="#FFFFFF" transform="translate(0,0)"/>
<path d="" fill="#FFFFFF" transform="translate(0,0)"/>
<path d="" fill="#FFFFFF" transform="translate(0,0)"/>
<path d="" fill="#FFFFFF" transform="translate(0,0)"/>
<path d="" fill="#FFFFFF" transform="translate(0,0)"/>
<path d="" fill="#FFFFFF" transform="translate(0,0)"/>
<path d="" fill="#FFFFFF" transform="translate(0,0)"/>
<path d="" fill="#FFFFFF" transform="translate(0,0)"/>
<path d="" fill="#FFFFFF" transform="translate(0,0)"/>
<path d="" fill="#FFFFFF" transform="translate(0,0)"/>
<path d="" fill="#FFFFFF" transform="translate(0,0)"/>
<path d="" fill="#FFFFFF" transform="translate(0,0)"/>
<path d="" fill="#FFFFFF" transform="translate(0,0)"/>
<path d="" fill="#FFFFFF" transform="translate(0,0)"/>
<path d="" fill="#FFFFFF" transform="translate(0,0)"/>
<path d="" fill="#FFFFFF" transform="translate(0,0)"/>
<path d="" fill="#FFFFFF" transform="translate(0,0)"/>
<path d="" fill="#FFFFFF" transform="translate(0,0)"/>
<path d="" fill="#FFFFFF" transform="translate(0,0)"/>
<path d="" fill="#FFFFFF" transform="translate(0,0)"/>
<path d="" fill="#FFFFFF" transform="translate(0,0)"/>
<path d="" fill="#FFFFFF" transform="translate(0,0)"/>
<path d="" fill="#FFFFFF" transform="translate(0,0)"/>
<path d="" fill="#FFFFFF" transform="translate(0,0)"/>
<path d="" fill="#FFFFFF" transform="translate(0,0)"/>
<path d="" fill="#FFFFFF" transform="translate(0,0)"/>
<path d="" fill="#FFFFFF" transform="translate(0,0)"/>
<path d="" fill="#FFFFFF" transform="translate(0,0)"/>
<path d="" fill="#FFFFFF" transform="translate(0,0)"/>
</svg>
